%TF.GenerationSoftware,Altium Limited,Altium Designer,22.7.1 (60)*%
G04 Layer_Color=16711935*
%FSLAX43Y43*%
%MOMM*%
%TF.SameCoordinates,FE58890B-FB48-4B87-A9EE-914DEB8A6D29*%
%TF.FilePolarity,Negative*%
%TF.FileFunction,Soldermask,Bot*%
%TF.Part,Single*%
G01*
G75*
%TA.AperFunction,SMDPad,CuDef*%
%ADD16R,1.300X0.900*%
%ADD17R,0.900X1.300*%
%TA.AperFunction,ComponentPad*%
%ADD40R,1.700X1.700*%
%ADD41C,1.700*%
%ADD42C,1.500*%
%ADD43R,1.408X1.408*%
%ADD44C,1.408*%
%ADD45C,3.250*%
%ADD46C,2.400*%
%ADD47C,1.508*%
%ADD48C,1.400*%
%ADD49C,1.600*%
G04:AMPARAMS|DCode=50|XSize=1.6mm|YSize=1.6mm|CornerRadius=0.4mm|HoleSize=0mm|Usage=FLASHONLY|Rotation=90.000|XOffset=0mm|YOffset=0mm|HoleType=Round|Shape=RoundedRectangle|*
%AMROUNDEDRECTD50*
21,1,1.600,0.800,0,0,90.0*
21,1,0.800,1.600,0,0,90.0*
1,1,0.800,0.400,0.400*
1,1,0.800,0.400,-0.400*
1,1,0.800,-0.400,-0.400*
1,1,0.800,-0.400,0.400*
%
%ADD50ROUNDEDRECTD50*%
G04:AMPARAMS|DCode=51|XSize=1.6mm|YSize=1.6mm|CornerRadius=0.4mm|HoleSize=0mm|Usage=FLASHONLY|Rotation=0.000|XOffset=0mm|YOffset=0mm|HoleType=Round|Shape=RoundedRectangle|*
%AMROUNDEDRECTD51*
21,1,1.600,0.800,0,0,0.0*
21,1,0.800,1.600,0,0,0.0*
1,1,0.800,0.400,-0.400*
1,1,0.800,-0.400,-0.400*
1,1,0.800,-0.400,0.400*
1,1,0.800,0.400,0.400*
%
%ADD51ROUNDEDRECTD51*%
%ADD52C,2.000*%
%ADD53C,1.950*%
G04:AMPARAMS|DCode=54|XSize=1.95mm|YSize=1.95mm|CornerRadius=0.488mm|HoleSize=0mm|Usage=FLASHONLY|Rotation=180.000|XOffset=0mm|YOffset=0mm|HoleType=Round|Shape=RoundedRectangle|*
%AMROUNDEDRECTD54*
21,1,1.950,0.975,0,0,180.0*
21,1,0.975,1.950,0,0,180.0*
1,1,0.975,-0.488,0.488*
1,1,0.975,0.488,0.488*
1,1,0.975,0.488,-0.488*
1,1,0.975,-0.488,-0.488*
%
%ADD54ROUNDEDRECTD54*%
%TA.AperFunction,ViaPad*%
%ADD55C,3.200*%
%TA.AperFunction,ComponentPad*%
%ADD56R,1.110X1.110*%
%ADD57C,1.110*%
%ADD58C,1.300*%
G04:AMPARAMS|DCode=59|XSize=1.3mm|YSize=1.3mm|CornerRadius=0.325mm|HoleSize=0mm|Usage=FLASHONLY|Rotation=180.000|XOffset=0mm|YOffset=0mm|HoleType=Round|Shape=RoundedRectangle|*
%AMROUNDEDRECTD59*
21,1,1.300,0.650,0,0,180.0*
21,1,0.650,1.300,0,0,180.0*
1,1,0.650,-0.325,0.325*
1,1,0.650,0.325,0.325*
1,1,0.650,0.325,-0.325*
1,1,0.650,-0.325,-0.325*
%
%ADD59ROUNDEDRECTD59*%
%TA.AperFunction,ViaPad*%
%ADD60C,0.610*%
D16*
X116257Y50050D02*
D03*
Y51950D02*
D03*
X111757Y50050D02*
D03*
Y51950D02*
D03*
X118007Y51950D02*
D03*
Y50050D02*
D03*
X110007Y51950D02*
D03*
Y50050D02*
D03*
D17*
X114957Y48750D02*
D03*
X113057D02*
D03*
X113050Y47000D02*
D03*
X114950D02*
D03*
X113057Y53250D02*
D03*
X114957D02*
D03*
X113057Y55000D02*
D03*
X114957D02*
D03*
D40*
X87250Y67500D02*
D03*
D41*
X91000D02*
D03*
X94750D02*
D03*
D42*
Y88500D02*
D03*
X87250Y85000D02*
D03*
D43*
X131650Y47555D02*
D03*
D44*
X129110Y48825D02*
D03*
X131650Y50095D02*
D03*
X129110Y51365D02*
D03*
X131650Y52635D02*
D03*
X129110Y53905D02*
D03*
X131650Y55175D02*
D03*
X129110Y56445D02*
D03*
D45*
X138000Y46285D02*
D03*
Y57715D02*
D03*
D46*
X134950Y59815D02*
D03*
Y44185D02*
D03*
D47*
X142060Y45370D02*
D03*
Y58630D02*
D03*
Y47910D02*
D03*
Y56090D02*
D03*
D48*
X72094Y24703D02*
D03*
X48894D02*
D03*
D49*
X123000Y9230D02*
D03*
Y11770D02*
D03*
Y14310D02*
D03*
X56540Y38000D02*
D03*
X50520Y32000D02*
D03*
X42000Y8730D02*
D03*
Y11270D02*
D03*
Y13810D02*
D03*
X115230Y14000D02*
D03*
X76270Y34000D02*
D03*
X71190D02*
D03*
X73730D02*
D03*
X78810D02*
D03*
X81350D02*
D03*
X29000Y8730D02*
D03*
Y11270D02*
D03*
Y13810D02*
D03*
X92230Y7000D02*
D03*
X81770D02*
D03*
X79230D02*
D03*
X76690D02*
D03*
D50*
X123000Y6690D02*
D03*
X42000Y6190D02*
D03*
X29000D02*
D03*
D51*
X54000Y38000D02*
D03*
X47980Y32000D02*
D03*
X117770Y14000D02*
D03*
X68650Y34000D02*
D03*
X94770Y7000D02*
D03*
X84310D02*
D03*
D52*
X25000Y27500D02*
D03*
X21000D02*
D03*
D53*
X106230Y74680D02*
D03*
X111230Y82300D02*
D03*
Y74680D02*
D03*
X106230Y82300D02*
D03*
X101230D02*
D03*
Y74680D02*
D03*
X23230Y73300D02*
D03*
Y65680D02*
D03*
D54*
X116230Y82300D02*
D03*
Y74680D02*
D03*
X28230Y73300D02*
D03*
Y65680D02*
D03*
D55*
X130000Y87000D02*
D03*
X20000D02*
D03*
X130000Y8000D02*
D03*
X20000D02*
D03*
D56*
X23000Y53670D02*
D03*
D57*
Y57570D02*
D03*
X43760Y58860D02*
D03*
Y48700D02*
D03*
Y37270D02*
D03*
D58*
X38000Y22500D02*
D03*
X36000D02*
D03*
X34000D02*
D03*
D59*
X32000D02*
D03*
D60*
X121800Y45000D02*
D03*
X98236Y30304D02*
D03*
X97736Y29654D02*
D03*
X106015Y24067D02*
D03*
X94267Y34887D02*
D03*
X78115Y12919D02*
D03*
X78847Y13556D02*
D03*
X79476Y14055D02*
D03*
X50012Y14890D02*
D03*
X50491Y26619D02*
D03*
X87639Y23025D02*
D03*
X86647Y22424D02*
D03*
X89527Y25854D02*
D03*
X89500Y27500D02*
D03*
X98117Y32193D02*
D03*
X96388Y27762D02*
D03*
X96467Y28524D02*
D03*
X91595Y31565D02*
D03*
X93059Y31835D02*
D03*
X93942Y31201D02*
D03*
X94827Y29759D02*
D03*
X113776Y45186D02*
D03*
X114366Y45843D02*
D03*
X113034Y44444D02*
D03*
X112320Y45770D02*
D03*
X108234Y52462D02*
D03*
Y51652D02*
D03*
X48000Y26000D02*
D03*
X117771Y25220D02*
D03*
X77250Y44750D02*
D03*
X94500Y32000D02*
D03*
Y30500D02*
D03*
X72000Y50000D02*
D03*
X33600Y30950D02*
D03*
X35500Y32000D02*
D03*
Y26000D02*
D03*
X106000Y47000D02*
D03*
Y45000D02*
D03*
X110869Y50997D02*
D03*
X106000Y51000D02*
D03*
X102250Y50000D02*
D03*
X102250Y52000D02*
D03*
X108250Y49250D02*
D03*
X106000Y43000D02*
D03*
X112000Y53000D02*
D03*
X116000Y49000D02*
D03*
Y53000D02*
D03*
X121800Y52000D02*
D03*
Y50000D02*
D03*
Y47000D02*
D03*
X121750Y41000D02*
D03*
X121800Y55000D02*
D03*
X115000Y41000D02*
D03*
X116000Y47000D02*
D03*
X116850D02*
D03*
X106750Y23500D02*
D03*
X110000Y55000D02*
D03*
X107250Y31000D02*
D03*
X103000Y41000D02*
D03*
X102250Y56500D02*
D03*
X110000Y41000D02*
D03*
X102250Y45500D02*
D03*
Y46500D02*
D03*
X104000Y29000D02*
D03*
Y33000D02*
D03*
X121800Y59000D02*
D03*
X51000Y54000D02*
D03*
X52257Y59905D02*
D03*
X68257D02*
D03*
X67000Y54000D02*
D03*
X84257Y59905D02*
D03*
X83000Y54000D02*
D03*
X106750Y22300D02*
D03*
X109000Y11000D02*
D03*
X116000Y55000D02*
D03*
X90000Y52500D02*
D03*
X88800Y34200D02*
D03*
X89500Y31500D02*
D03*
Y29500D02*
D03*
X49000Y17972D02*
D03*
Y15432D02*
D03*
Y12892D02*
D03*
Y7812D02*
D03*
X76690Y10352D02*
D03*
X49000Y23052D02*
D03*
X86000Y28750D02*
D03*
X124250Y20000D02*
D03*
X37500Y30000D02*
D03*
X113250Y50236D02*
D03*
X114000Y51000D02*
D03*
X91000Y58750D02*
D03*
X113250Y51750D02*
D03*
X114750Y51742D02*
D03*
Y50273D02*
D03*
X95500Y20000D02*
D03*
X123175Y51950D02*
D03*
X86500Y25000D02*
D03*
Y24000D02*
D03*
X101500Y20000D02*
D03*
X103650Y12050D02*
D03*
X97500Y25750D02*
D03*
X96355Y24000D02*
D03*
X54500Y9000D02*
D03*
X92262Y30934D02*
D03*
X94000Y27500D02*
D03*
X49000Y10352D02*
D03*
X71000Y7812D02*
D03*
Y5272D02*
D03*
Y23005D02*
D03*
X87750Y34750D02*
D03*
X119250Y9500D02*
D03*
X112250Y20000D02*
D03*
X89750Y40500D02*
D03*
X115179Y24719D02*
D03*
X114381Y34966D02*
D03*
X116000Y38347D02*
D03*
Y37500D02*
D03*
X65000Y21250D02*
D03*
X45239Y7813D02*
D03*
X94500Y42000D02*
D03*
X91000Y64000D02*
D03*
X124000Y26500D02*
D03*
X95750Y50000D02*
D03*
X137500Y40000D02*
D03*
X97250Y58750D02*
D03*
X131000Y40000D02*
D03*
X92500Y65000D02*
D03*
X96000Y62500D02*
D03*
X128132Y52635D02*
D03*
X89500Y65000D02*
D03*
X123025Y42000D02*
D03*
X45250Y5250D02*
D03*
X125500Y34750D02*
D03*
X84887Y24756D02*
D03*
X71190Y16600D02*
D03*
X69900Y14250D02*
D03*
X62432Y22000D02*
D03*
X86000Y62500D02*
D03*
X88250Y50000D02*
D03*
%TF.MD5,dbda81cb06b58f9329958323e52bcf59*%
M02*
