%TF.GenerationSoftware,Altium Limited,Altium Designer,22.7.1 (60)*%
G04 Layer_Physical_Order=1*
G04 Layer_Color=255*
%FSLAX43Y43*%
%MOMM*%
%TF.SameCoordinates,FE58890B-FB48-4B87-A9EE-914DEB8A6D29*%
%TF.FilePolarity,Positive*%
%TF.FileFunction,Copper,L1,Top,Signal*%
%TF.Part,Single*%
G01*
G75*
%TA.AperFunction,Conductor*%
%ADD10C,3.000*%
%ADD11C,1.400*%
%TA.AperFunction,SMDPad,CuDef*%
%ADD12R,1.500X0.300*%
%ADD13R,0.300X1.500*%
%TA.AperFunction,BGAPad,CuDef*%
%ADD14R,0.700X0.700*%
%TA.AperFunction,SMDPad,CuDef*%
%ADD15R,0.900X1.500*%
%ADD16R,1.300X0.900*%
%ADD17R,0.900X1.300*%
%TA.AperFunction,ConnectorPad*%
G04:AMPARAMS|DCode=18|XSize=1.3mm|YSize=2.7mm|CornerRadius=0.13mm|HoleSize=0mm|Usage=FLASHONLY|Rotation=270.000|XOffset=0mm|YOffset=0mm|HoleType=Round|Shape=RoundedRectangle|*
%AMROUNDEDRECTD18*
21,1,1.300,2.440,0,0,270.0*
21,1,1.040,2.700,0,0,270.0*
1,1,0.260,-1.220,-0.520*
1,1,0.260,-1.220,0.520*
1,1,0.260,1.220,0.520*
1,1,0.260,1.220,-0.520*
%
%ADD18ROUNDEDRECTD18*%
%TA.AperFunction,SMDPad,CuDef*%
%ADD19R,2.300X1.500*%
%ADD20R,5.500X2.000*%
%ADD21R,0.900X0.800*%
%ADD22R,3.800X2.030*%
%ADD23R,1.100X1.300*%
%ADD24R,4.200X1.900*%
%ADD25R,0.800X0.900*%
%ADD26R,1.500X0.900*%
%ADD27O,1.650X0.650*%
%ADD28R,0.254X0.610*%
%ADD29R,0.610X0.254*%
%ADD30R,2.591X2.591*%
%ADD31R,1.905X1.041*%
%ADD32R,1.400X1.000*%
%ADD33R,1.600X0.991*%
%TA.AperFunction,Conductor*%
%ADD34C,0.300*%
%ADD35C,0.200*%
%ADD36C,0.250*%
%ADD37C,0.500*%
%ADD38C,2.000*%
%ADD39C,1.000*%
%TA.AperFunction,ComponentPad*%
%ADD40R,1.700X1.700*%
%ADD41C,1.700*%
%ADD42C,1.500*%
%ADD43R,1.408X1.408*%
%ADD44C,1.408*%
%ADD45C,3.250*%
%ADD46C,2.400*%
%ADD47C,1.508*%
%ADD48C,1.400*%
%ADD49C,1.600*%
G04:AMPARAMS|DCode=50|XSize=1.6mm|YSize=1.6mm|CornerRadius=0.4mm|HoleSize=0mm|Usage=FLASHONLY|Rotation=90.000|XOffset=0mm|YOffset=0mm|HoleType=Round|Shape=RoundedRectangle|*
%AMROUNDEDRECTD50*
21,1,1.600,0.800,0,0,90.0*
21,1,0.800,1.600,0,0,90.0*
1,1,0.800,0.400,0.400*
1,1,0.800,0.400,-0.400*
1,1,0.800,-0.400,-0.400*
1,1,0.800,-0.400,0.400*
%
%ADD50ROUNDEDRECTD50*%
G04:AMPARAMS|DCode=51|XSize=1.6mm|YSize=1.6mm|CornerRadius=0.4mm|HoleSize=0mm|Usage=FLASHONLY|Rotation=0.000|XOffset=0mm|YOffset=0mm|HoleType=Round|Shape=RoundedRectangle|*
%AMROUNDEDRECTD51*
21,1,1.600,0.800,0,0,0.0*
21,1,0.800,1.600,0,0,0.0*
1,1,0.800,0.400,-0.400*
1,1,0.800,-0.400,-0.400*
1,1,0.800,-0.400,0.400*
1,1,0.800,0.400,0.400*
%
%ADD51ROUNDEDRECTD51*%
%ADD52C,2.000*%
%ADD53C,1.950*%
G04:AMPARAMS|DCode=54|XSize=1.95mm|YSize=1.95mm|CornerRadius=0.488mm|HoleSize=0mm|Usage=FLASHONLY|Rotation=180.000|XOffset=0mm|YOffset=0mm|HoleType=Round|Shape=RoundedRectangle|*
%AMROUNDEDRECTD54*
21,1,1.950,0.975,0,0,180.0*
21,1,0.975,1.950,0,0,180.0*
1,1,0.975,-0.488,0.488*
1,1,0.975,0.488,0.488*
1,1,0.975,0.488,-0.488*
1,1,0.975,-0.488,-0.488*
%
%ADD54ROUNDEDRECTD54*%
%TA.AperFunction,ViaPad*%
%ADD55C,3.200*%
%TA.AperFunction,ComponentPad*%
%ADD56R,1.110X1.110*%
%ADD57C,1.110*%
%ADD58C,1.300*%
G04:AMPARAMS|DCode=59|XSize=1.3mm|YSize=1.3mm|CornerRadius=0.325mm|HoleSize=0mm|Usage=FLASHONLY|Rotation=180.000|XOffset=0mm|YOffset=0mm|HoleType=Round|Shape=RoundedRectangle|*
%AMROUNDEDRECTD59*
21,1,1.300,0.650,0,0,180.0*
21,1,0.650,1.300,0,0,180.0*
1,1,0.650,-0.325,0.325*
1,1,0.650,0.325,0.325*
1,1,0.650,0.325,-0.325*
1,1,0.650,-0.325,-0.325*
%
%ADD59ROUNDEDRECTD59*%
%TA.AperFunction,ViaPad*%
%ADD60C,0.610*%
G36*
X93749Y67368D02*
X93817Y67114D01*
X93949Y66885D01*
X94135Y66699D01*
X94364Y66567D01*
X94618Y66499D01*
X94882D01*
X95136Y66567D01*
X95208Y66608D01*
X96324Y65492D01*
Y64672D01*
X95663D01*
Y64800D01*
X95616Y64916D01*
X95500Y64964D01*
X94500D01*
X94384Y64916D01*
X94337Y64800D01*
Y64672D01*
X93181D01*
X93005Y64900D01*
Y64900D01*
X91995D01*
Y64900D01*
X92072Y64714D01*
X92214Y64572D01*
X92265Y64551D01*
Y64307D01*
X91338D01*
X91258Y64387D01*
X91091Y64456D01*
X90909D01*
X90742Y64387D01*
X90662Y64307D01*
X89735D01*
Y64551D01*
X89786Y64572D01*
X89928Y64714D01*
X90005Y64900D01*
Y64900D01*
X88995D01*
Y64900D01*
X88819Y64672D01*
X87663D01*
Y64800D01*
X87616Y64916D01*
X87500Y64964D01*
X86500D01*
X86384Y64916D01*
X86337Y64800D01*
Y64672D01*
X85676D01*
Y65492D01*
X86683Y66499D01*
X88251D01*
Y67500D01*
X89098D01*
X89999D01*
Y67368D01*
X90067Y67114D01*
X90199Y66885D01*
X90385Y66699D01*
X90614Y66567D01*
X90868Y66499D01*
X91132D01*
X91386Y66567D01*
X91615Y66699D01*
X91801Y66885D01*
X91933Y67114D01*
X92001Y67368D01*
Y67500D01*
X93749D01*
Y67368D01*
D02*
G37*
G36*
X145745Y63163D02*
X140189Y63163D01*
X140159Y63151D01*
X140126D01*
X140103Y63128D01*
X140073Y63116D01*
X139971Y63081D01*
X139791Y63071D01*
X139681Y63181D01*
X139598Y63236D01*
X139500Y63256D01*
X139500Y63256D01*
X120500D01*
X120500Y63256D01*
X120402Y63236D01*
X120319Y63181D01*
X120319Y63181D01*
X113569Y56431D01*
X113514Y56348D01*
X113494Y56250D01*
X113494Y56250D01*
Y55801D01*
X112349D01*
Y54199D01*
X112704D01*
X112714Y54152D01*
X112769Y54069D01*
X112994Y53844D01*
Y53462D01*
X112472D01*
X112472Y53462D01*
X112222Y53402D01*
X112091Y53456D01*
X111909D01*
X111742Y53387D01*
X111613Y53258D01*
X111544Y53091D01*
Y52909D01*
X111597Y52782D01*
X111534Y52626D01*
X111469Y52532D01*
X109347D01*
X109347Y52532D01*
X108690D01*
Y52553D01*
X108621Y52720D01*
X108493Y52849D01*
X108325Y52918D01*
X108144D01*
X107976Y52849D01*
X107848Y52720D01*
X107778Y52553D01*
Y52371D01*
X107848Y52204D01*
X107962Y52057D01*
X107848Y51910D01*
X107778Y51743D01*
Y51561D01*
X107791Y51531D01*
X107634Y51281D01*
X106363D01*
X106258Y51387D01*
X106091Y51456D01*
X105909D01*
X105801Y51411D01*
X105617Y51493D01*
X105551Y51549D01*
Y52801D01*
X104349D01*
Y51199D01*
X104669D01*
Y50801D01*
X104349D01*
Y49199D01*
X105551D01*
Y49719D01*
X107720D01*
X107785Y49623D01*
X107847Y49469D01*
X107794Y49341D01*
Y49159D01*
X107863Y48992D01*
X107992Y48863D01*
X108159Y48794D01*
X108341D01*
X108508Y48863D01*
X108613Y48969D01*
X111089D01*
X111196Y48990D01*
X111288Y49051D01*
X111705Y49469D01*
X111993D01*
X112011Y49472D01*
X112231D01*
X112451Y49451D01*
X112472Y49231D01*
Y48538D01*
X112494D01*
Y47656D01*
X112139Y47300D01*
X112083Y47217D01*
X112064Y47119D01*
X112064Y47119D01*
Y46157D01*
X112061Y46156D01*
X111933Y46028D01*
X111864Y45861D01*
Y45679D01*
X111933Y45512D01*
X112061Y45383D01*
X112229Y45314D01*
X112410D01*
X112528Y45363D01*
X112699Y45290D01*
X112778Y45230D01*
Y44832D01*
X112776Y44831D01*
X112647Y44703D01*
X112578Y44535D01*
Y44354D01*
X112647Y44186D01*
X112776Y44058D01*
X112943Y43988D01*
X113125D01*
X113292Y44058D01*
X113421Y44186D01*
X113422Y44189D01*
X115492D01*
X115492Y44189D01*
X115589Y44208D01*
X115673Y44263D01*
X116153Y44744D01*
X118449D01*
Y44199D01*
X119651D01*
Y45801D01*
X118449D01*
Y45256D01*
X116047D01*
X115949Y45236D01*
X115866Y45181D01*
X115866Y45181D01*
X115386Y44700D01*
X114289D01*
X114213Y44837D01*
X114172Y44950D01*
X114232Y45095D01*
Y45156D01*
X114257Y45289D01*
X114457Y45387D01*
X114624Y45457D01*
X114753Y45585D01*
X114822Y45753D01*
Y45934D01*
X114753Y46102D01*
X114624Y46230D01*
X114506Y46279D01*
Y47558D01*
X114756Y47662D01*
X114997Y47420D01*
X115097Y47354D01*
X115214Y47330D01*
X115373D01*
X115544Y47091D01*
Y46909D01*
X115613Y46742D01*
X115742Y46613D01*
X115909Y46544D01*
X116091D01*
X116258Y46613D01*
X116262Y46617D01*
X116425Y46718D01*
X116588Y46617D01*
X116592Y46613D01*
X116759Y46544D01*
X116941D01*
X117108Y46613D01*
X117237Y46742D01*
X117306Y46909D01*
Y47091D01*
X117237Y47258D01*
X117108Y47387D01*
X116941Y47456D01*
X116912D01*
X116752Y47616D01*
Y47648D01*
X116728Y47766D01*
X116662Y47865D01*
X116222Y48305D01*
X116201Y48319D01*
X116204Y48583D01*
X116207Y48592D01*
X116258Y48613D01*
X116387Y48742D01*
X116456Y48909D01*
Y49091D01*
X116402Y49222D01*
X116462Y49472D01*
X116462D01*
Y49786D01*
X116712Y49889D01*
X117115Y49487D01*
Y49254D01*
X117139Y49136D01*
X117205Y49037D01*
X118185Y48057D01*
X118284Y47990D01*
X118297Y47988D01*
X118449Y47801D01*
Y46199D01*
X119651D01*
Y47801D01*
X119832Y47967D01*
X120168D01*
X120349Y47801D01*
X120349Y47717D01*
Y46199D01*
X121551D01*
Y46438D01*
X121709Y46544D01*
X121891D01*
X122058Y46613D01*
X122187Y46742D01*
X122256Y46909D01*
Y47091D01*
X122187Y47258D01*
X122058Y47387D01*
X121891Y47456D01*
X121757D01*
X121619Y47580D01*
X121617Y47862D01*
X121732Y47967D01*
X123837D01*
Y44043D01*
X123700Y43850D01*
X123150D01*
Y43000D01*
X123050D01*
Y42900D01*
X122400D01*
Y42150D01*
X122487D01*
X122520Y42100D01*
Y42100D01*
X123025D01*
Y41900D01*
X122520D01*
Y41900D01*
X122350Y41657D01*
X109257D01*
Y42199D01*
X109551D01*
Y43801D01*
X109257D01*
Y44199D01*
X109551D01*
Y45801D01*
X109257D01*
Y46199D01*
X109551D01*
Y47801D01*
X108349D01*
Y46199D01*
X108643D01*
Y45801D01*
X108349D01*
Y44199D01*
X108643D01*
Y43801D01*
X108349D01*
Y42199D01*
X108643D01*
Y41657D01*
X100500D01*
X100330Y41634D01*
X100172Y41569D01*
X100036Y41464D01*
X97228Y38657D01*
X68909D01*
Y44750D01*
Y48500D01*
Y52091D01*
X84193D01*
Y49551D01*
X83699D01*
Y48349D01*
X85301D01*
Y49551D01*
X84807D01*
Y52091D01*
X89795D01*
X89909Y52044D01*
X90022D01*
X91693Y50373D01*
Y49551D01*
X91199D01*
Y48349D01*
X92801D01*
Y49551D01*
X92307D01*
Y50500D01*
X92284Y50617D01*
X92217Y50717D01*
X90456Y52478D01*
Y52591D01*
X90387Y52758D01*
X90258Y52887D01*
X90091Y52956D01*
X89909D01*
X89795Y52909D01*
X84721D01*
X84700Y53150D01*
X84700Y53159D01*
Y53900D01*
X84050D01*
Y54000D01*
X83950D01*
Y54850D01*
X83400D01*
Y54641D01*
X83150Y54484D01*
X83100Y54505D01*
X83100D01*
Y54000D01*
X82900D01*
Y54505D01*
X82900D01*
X82850Y54484D01*
X82600Y54641D01*
Y54850D01*
X82050D01*
Y54000D01*
X81950D01*
Y53900D01*
X81300D01*
Y53159D01*
X81300Y53150D01*
X81279Y52909D01*
X80357D01*
Y53199D01*
X80651D01*
Y54801D01*
X80357D01*
Y55610D01*
X80675D01*
X80861Y55647D01*
X81018Y55752D01*
X81123Y55909D01*
X81160Y56095D01*
X81152Y56136D01*
X81382Y56260D01*
X81948Y55694D01*
X82040Y55633D01*
X82147Y55611D01*
X84141D01*
X84652Y55100D01*
X84548Y54850D01*
X84150D01*
Y54100D01*
X84700D01*
Y54698D01*
X84950Y54802D01*
X85349Y54403D01*
Y53199D01*
X86551D01*
Y54801D01*
X85747D01*
X85160Y55388D01*
X85284Y55618D01*
X85325Y55610D01*
X86325D01*
X86511Y55647D01*
X86668Y55752D01*
X86726Y55839D01*
X91095D01*
X91095Y55839D01*
X91193Y55859D01*
X91276Y55914D01*
X92061Y56699D01*
X93451D01*
Y57849D01*
X93451Y57901D01*
Y58099D01*
X93451Y58151D01*
Y59301D01*
X91649D01*
Y59159D01*
X91205D01*
X91091Y59206D01*
X90909D01*
X90742Y59137D01*
X90613Y59008D01*
X90601Y58978D01*
X90351Y59028D01*
Y59301D01*
X88549D01*
Y58956D01*
X86683D01*
X86668Y58978D01*
X86511Y59083D01*
X86325Y59120D01*
Y59370D01*
X86530Y59410D01*
X86703Y59527D01*
X86820Y59700D01*
X86840Y59805D01*
X85825D01*
Y59905D01*
X85725D01*
Y60440D01*
X85325D01*
X85120Y60400D01*
X84947Y60284D01*
X84929Y60257D01*
X84867Y60240D01*
X84625Y60252D01*
X84543Y60333D01*
X84358Y60410D01*
X84357D01*
Y59905D01*
Y59400D01*
X84358D01*
X84543Y59477D01*
X84625Y59558D01*
X84867Y59570D01*
X84929Y59553D01*
X84947Y59527D01*
X85120Y59410D01*
X85325Y59370D01*
Y59120D01*
X85139Y59083D01*
X84982Y58978D01*
X84877Y58821D01*
X84840Y58635D01*
X84877Y58449D01*
X84982Y58292D01*
X85139Y58187D01*
X85325Y58150D01*
X86325D01*
X86511Y58187D01*
X86668Y58292D01*
X86770Y58444D01*
X88549D01*
Y58151D01*
X88549Y58099D01*
Y57901D01*
X88549Y57849D01*
Y57556D01*
X86770D01*
X86668Y57708D01*
X86511Y57813D01*
X86325Y57850D01*
X85325D01*
X85139Y57813D01*
X84982Y57708D01*
X84877Y57551D01*
X84840Y57365D01*
X84877Y57179D01*
X84982Y57022D01*
X85139Y56917D01*
X85325Y56880D01*
X86325D01*
X86511Y56917D01*
X86668Y57022D01*
X86683Y57044D01*
X88549D01*
Y56699D01*
X90351D01*
Y57849D01*
X90351Y57901D01*
Y58099D01*
X90351Y58151D01*
Y58472D01*
X90601Y58522D01*
X90613Y58492D01*
X90742Y58363D01*
X90909Y58294D01*
X91091D01*
X91205Y58341D01*
X91504D01*
X91649Y58099D01*
Y57901D01*
X91649Y57849D01*
Y57011D01*
X90989Y56351D01*
X86726D01*
X86668Y56438D01*
X86511Y56543D01*
X86325Y56580D01*
X85325D01*
X85139Y56543D01*
X84982Y56438D01*
X84877Y56281D01*
X84840Y56095D01*
X84848Y56054D01*
X84618Y55930D01*
X84456Y56092D01*
X84365Y56153D01*
X84257Y56174D01*
X82264D01*
X81146Y57292D01*
X81160Y57365D01*
X81123Y57551D01*
X81018Y57708D01*
X80861Y57813D01*
X80675Y57850D01*
X79675D01*
X79489Y57813D01*
X79332Y57708D01*
X79227Y57551D01*
X79190Y57365D01*
X79227Y57179D01*
X79332Y57022D01*
X79489Y56917D01*
X79675Y56880D01*
X80597D01*
X80637Y56830D01*
X80521Y56588D01*
X80509Y56580D01*
X79675D01*
X79489Y56543D01*
X79332Y56438D01*
X79227Y56281D01*
X79190Y56095D01*
X79227Y55909D01*
X79332Y55752D01*
X79489Y55647D01*
X79675Y55610D01*
X79743D01*
Y54801D01*
X79449D01*
Y53199D01*
X79743D01*
Y52909D01*
X78271D01*
Y57586D01*
X78247Y57704D01*
X78181Y57803D01*
X77451Y58533D01*
Y59301D01*
X75649D01*
Y58151D01*
X75649Y58099D01*
X75649D01*
Y57901D01*
X75649D01*
Y57011D01*
X74989Y56351D01*
X70726D01*
X70668Y56438D01*
X70511Y56543D01*
X70325Y56580D01*
X69325D01*
X69139Y56543D01*
X68982Y56438D01*
X68877Y56281D01*
X68840Y56095D01*
X68848Y56054D01*
X68618Y55930D01*
X68456Y56092D01*
X68365Y56153D01*
X68257Y56174D01*
X66264D01*
X65146Y57292D01*
X65160Y57365D01*
X65123Y57551D01*
X65018Y57708D01*
X64861Y57813D01*
X64675Y57850D01*
X63675D01*
X63489Y57813D01*
X63332Y57708D01*
X63227Y57551D01*
X63190Y57365D01*
X63227Y57179D01*
X63332Y57022D01*
X63489Y56917D01*
X63675Y56880D01*
X64597D01*
X64637Y56830D01*
X64521Y56588D01*
X64509Y56580D01*
X63675D01*
X63489Y56543D01*
X63332Y56438D01*
X63227Y56281D01*
X63190Y56095D01*
X63227Y55909D01*
X63332Y55752D01*
X63489Y55647D01*
X63675Y55610D01*
X63743D01*
Y54801D01*
X63449D01*
Y53199D01*
X63743D01*
Y52909D01*
X62307D01*
Y57550D01*
X62284Y57667D01*
X62217Y57767D01*
X61451Y58533D01*
Y59301D01*
X59649D01*
Y58151D01*
X59649Y58099D01*
X59649D01*
Y57901D01*
X59649D01*
Y57011D01*
X58989Y56351D01*
X54726D01*
X54668Y56438D01*
X54511Y56543D01*
X54325Y56580D01*
X53325D01*
X53139Y56543D01*
X52982Y56438D01*
X52877Y56281D01*
X52840Y56095D01*
X52848Y56054D01*
X52618Y55930D01*
X52456Y56092D01*
X52365Y56153D01*
X52257Y56174D01*
X50264D01*
X49146Y57292D01*
X49160Y57365D01*
X49123Y57551D01*
X49018Y57708D01*
X48861Y57813D01*
X48675Y57850D01*
X47675D01*
X47489Y57813D01*
X47332Y57708D01*
X47227Y57551D01*
X47190Y57365D01*
X47227Y57179D01*
X47332Y57022D01*
X47489Y56917D01*
X47675Y56880D01*
X48597D01*
X48637Y56830D01*
X48521Y56588D01*
X48509Y56580D01*
X47675D01*
X47489Y56543D01*
X47332Y56438D01*
X47227Y56281D01*
X47190Y56095D01*
X47227Y55909D01*
X47332Y55752D01*
X47489Y55647D01*
X47675Y55610D01*
X47743D01*
Y54801D01*
X47449D01*
Y53199D01*
X48122D01*
X48133Y53183D01*
X49033Y52283D01*
X49133Y52216D01*
X49250Y52193D01*
X61738D01*
X61844Y52122D01*
X62000Y52091D01*
X68091D01*
Y48909D01*
X67051D01*
Y49666D01*
X62949D01*
Y47334D01*
X67051D01*
Y48091D01*
X68091D01*
Y45159D01*
X66551D01*
Y45551D01*
X65349D01*
Y43949D01*
X66551D01*
Y44341D01*
X68091D01*
Y38657D01*
X57228D01*
X57124Y38761D01*
X56907Y38886D01*
X56665Y38951D01*
X56415D01*
X56173Y38886D01*
X55956Y38761D01*
X55779Y38584D01*
X55654Y38367D01*
X55589Y38125D01*
Y37875D01*
X55654Y37633D01*
X55779Y37416D01*
X55956Y37239D01*
X56131Y37138D01*
Y36209D01*
X54331Y34409D01*
X43500D01*
X43344Y34378D01*
X43211Y34289D01*
X41331Y32409D01*
X37051D01*
Y32801D01*
X35849D01*
Y32591D01*
X35599Y32453D01*
X35591Y32456D01*
X35409D01*
X35401Y32453D01*
X35151Y32620D01*
Y32801D01*
X33949D01*
Y32256D01*
X25500D01*
X25500Y32256D01*
X25402Y32236D01*
X25319Y32181D01*
X21613Y28475D01*
X21444Y28573D01*
X21152Y28651D01*
X20848D01*
X20556Y28573D01*
X20293Y28421D01*
X20079Y28207D01*
X19927Y27944D01*
X19849Y27652D01*
Y27348D01*
X19927Y27056D01*
X20079Y26793D01*
X20293Y26579D01*
X20556Y26427D01*
X20744Y26377D01*
Y22015D01*
X20744Y22015D01*
X20764Y21917D01*
X20777Y21896D01*
X20684Y21646D01*
X20468D01*
Y20354D01*
X22237D01*
Y20200D01*
X22284Y20084D01*
X22400Y20036D01*
X23600D01*
X23716Y20084D01*
X23763Y20200D01*
Y20354D01*
X25532D01*
Y21646D01*
X25333D01*
X25301Y21686D01*
X25223Y21896D01*
X25236Y21917D01*
X25256Y22015D01*
X25256Y22015D01*
Y26377D01*
X25444Y26427D01*
X25707Y26579D01*
X25921Y26793D01*
X26073Y27056D01*
X26151Y27348D01*
Y27652D01*
X26073Y27944D01*
X25975Y28113D01*
X27606Y29744D01*
X29899D01*
Y29449D01*
X31101D01*
Y30551D01*
X29899D01*
Y30256D01*
X27500D01*
X27500Y30256D01*
X27402Y30236D01*
X27319Y30181D01*
X25613Y28475D01*
X25444Y28573D01*
X25152Y28651D01*
X24848D01*
X24556Y28573D01*
X24293Y28421D01*
X24079Y28207D01*
X23927Y27944D01*
X23849Y27652D01*
Y27348D01*
X23927Y27056D01*
X24079Y26793D01*
X24293Y26579D01*
X24556Y26427D01*
X24744Y26377D01*
Y22121D01*
X24400Y21776D01*
X24344Y21693D01*
X24335Y21646D01*
X23763D01*
Y21800D01*
X23716Y21916D01*
X23600Y21964D01*
X22400D01*
X22284Y21916D01*
X22237Y21800D01*
Y21646D01*
X21665D01*
X21656Y21693D01*
X21600Y21776D01*
X21600Y21776D01*
X21256Y22121D01*
Y26377D01*
X21444Y26427D01*
X21707Y26579D01*
X21921Y26793D01*
X22073Y27056D01*
X22151Y27348D01*
Y27652D01*
X22073Y27944D01*
X21975Y28113D01*
X25606Y31744D01*
X31715D01*
X31850Y31550D01*
Y31050D01*
X32500D01*
Y30950D01*
X32600D01*
Y30350D01*
X33150D01*
Y30350D01*
X33353Y30463D01*
X33400Y30486D01*
X33500Y30445D01*
X33500D01*
Y30950D01*
X33600D01*
Y31050D01*
X34105D01*
Y31050D01*
X34204Y31199D01*
X35151D01*
Y31380D01*
X35401Y31547D01*
X35409Y31544D01*
X35591D01*
X35599Y31547D01*
X35849Y31409D01*
Y31199D01*
X37051D01*
Y31591D01*
X41500D01*
X41656Y31622D01*
X41789Y31711D01*
X43669Y33591D01*
X54500D01*
X54656Y33622D01*
X54789Y33711D01*
X56829Y35751D01*
X56918Y35884D01*
X56949Y36040D01*
Y37138D01*
X57124Y37239D01*
X57228Y37343D01*
X62091D01*
Y32051D01*
X61699D01*
Y30849D01*
X63301D01*
Y31041D01*
X64199D01*
Y30849D01*
X65801D01*
Y32051D01*
X64199D01*
Y31859D01*
X63301D01*
Y32051D01*
X62909D01*
Y37343D01*
X70781D01*
Y34862D01*
X70606Y34761D01*
X70429Y34584D01*
X70304Y34367D01*
X70239Y34125D01*
Y33875D01*
X70304Y33633D01*
X70429Y33416D01*
X70606Y33239D01*
X70823Y33114D01*
X71065Y33049D01*
X71315D01*
X71557Y33114D01*
X71774Y33239D01*
X71951Y33416D01*
X72076Y33633D01*
X72141Y33875D01*
Y34125D01*
X72076Y34367D01*
X71951Y34584D01*
X71774Y34761D01*
X71599Y34862D01*
Y37343D01*
X83591D01*
Y31500D01*
Y26000D01*
Y24898D01*
X82919Y24226D01*
X79921Y21228D01*
X76818D01*
Y21420D01*
X75216D01*
Y21228D01*
X74307D01*
X74303Y21234D01*
X74210Y21296D01*
X74100Y21318D01*
X71660D01*
X71550Y21296D01*
X71457Y21234D01*
X71395Y21141D01*
X71373Y21032D01*
Y19992D01*
X71395Y19882D01*
X71457Y19789D01*
X71550Y19727D01*
X71660Y19705D01*
X74100D01*
X74210Y19727D01*
X74303Y19789D01*
X74365Y19882D01*
X74386Y19992D01*
Y20410D01*
X75216D01*
Y20218D01*
X75445D01*
X75510Y20205D01*
X75574Y20218D01*
X76818D01*
Y20410D01*
X80090D01*
X80247Y20441D01*
X80379Y20530D01*
X83280Y23431D01*
X86928Y19783D01*
X87028Y19716D01*
X87145Y19693D01*
X91949D01*
Y19199D01*
X92403D01*
X92517Y18951D01*
X92416Y18801D01*
X91849D01*
Y17199D01*
X92194D01*
Y16056D01*
X91289Y15151D01*
X85849D01*
Y12849D01*
X91651D01*
Y14789D01*
X92631Y15769D01*
X92631Y15769D01*
X92686Y15852D01*
X92706Y15950D01*
Y17199D01*
X93051D01*
Y18689D01*
X93270Y18908D01*
X93285Y18918D01*
X93333Y18966D01*
X93500Y19036D01*
X93667Y18966D01*
X93715Y18918D01*
X93715Y18918D01*
X93719Y18915D01*
X93949Y18686D01*
Y17199D01*
X94294D01*
Y15950D01*
X94294Y15950D01*
X94314Y15852D01*
X94369Y15769D01*
X95349Y14789D01*
Y12849D01*
X101151D01*
Y15151D01*
X95711D01*
X94806Y16056D01*
Y17199D01*
X95151D01*
Y18801D01*
X94661D01*
X94595Y18900D01*
X94729Y19150D01*
X95100D01*
Y19422D01*
X95108Y19433D01*
X95350Y19569D01*
X95409Y19544D01*
X95591D01*
X95758Y19613D01*
X95887Y19742D01*
X95888Y19744D01*
X101112D01*
X101113Y19742D01*
X101242Y19613D01*
X101409Y19544D01*
X101591D01*
X101758Y19613D01*
X101887Y19742D01*
X101956Y19909D01*
Y20091D01*
X101887Y20258D01*
X101758Y20387D01*
X101591Y20456D01*
X101409D01*
X101242Y20387D01*
X101113Y20258D01*
X101112Y20256D01*
X100528D01*
X100503Y20506D01*
X100560Y20517D01*
X100643Y20573D01*
X102114Y22044D01*
X106362D01*
X106363Y22042D01*
X106492Y21913D01*
X106659Y21844D01*
X106841D01*
X107008Y21913D01*
X107137Y22042D01*
X107206Y22209D01*
Y22391D01*
X107137Y22558D01*
X107008Y22687D01*
X106841Y22756D01*
X106659D01*
X106492Y22687D01*
X106363Y22558D01*
X106362Y22556D01*
X102008D01*
X102008Y22556D01*
X101910Y22536D01*
X101827Y22481D01*
X101827Y22481D01*
X100356Y21009D01*
X96971D01*
X96836Y21175D01*
X96932Y21399D01*
X98051D01*
Y23201D01*
X97006D01*
Y23605D01*
X97006Y23605D01*
X96986Y23703D01*
X96931Y23786D01*
X96931Y23786D01*
X96810Y23907D01*
X96811Y23909D01*
Y24091D01*
X96742Y24258D01*
X96613Y24387D01*
X96446Y24456D01*
X96264D01*
X96097Y24387D01*
X95968Y24258D01*
X95899Y24091D01*
Y23983D01*
X95679Y23862D01*
X95668Y23860D01*
X95596Y23932D01*
X95513Y23987D01*
X95415Y24007D01*
X95415Y24007D01*
X89201D01*
Y24994D01*
X96644D01*
X98319Y23319D01*
X98319Y23319D01*
X98402Y23264D01*
X98500Y23244D01*
X98500Y23244D01*
X106362D01*
X106363Y23242D01*
X106492Y23113D01*
X106659Y23044D01*
X106841D01*
X107008Y23113D01*
X107137Y23242D01*
X107206Y23409D01*
Y23591D01*
X107137Y23758D01*
X107008Y23887D01*
X106841Y23956D01*
X106702D01*
X106655Y23960D01*
X106471Y24149D01*
Y24157D01*
X106435Y24244D01*
X106540Y24455D01*
X106582Y24494D01*
X114779D01*
X114793Y24461D01*
X114921Y24333D01*
X115089Y24263D01*
X115270D01*
X115425Y24327D01*
X115427Y24327D01*
X115427Y24327D01*
X118412D01*
X118412Y24327D01*
X118509Y24347D01*
X118593Y24402D01*
X118654Y24463D01*
X124214D01*
X124214Y24463D01*
X124312Y24483D01*
X124395Y24538D01*
X133081Y33224D01*
X133081Y33224D01*
X133136Y33307D01*
X133156Y33405D01*
X133156Y33405D01*
Y33849D01*
X133501D01*
Y35651D01*
X132299D01*
Y33849D01*
X132644D01*
Y33511D01*
X131872Y32739D01*
X131650Y32871D01*
X131656Y32900D01*
Y33849D01*
X132001D01*
Y35651D01*
X130903D01*
Y36449D01*
X131801D01*
Y36794D01*
X132199D01*
Y36449D01*
X133439D01*
X133987Y35901D01*
X133884Y35651D01*
X133799D01*
Y33849D01*
X135001D01*
Y35439D01*
X135150Y35525D01*
X135299Y35439D01*
Y33849D01*
X136501D01*
Y35056D01*
X136751Y35190D01*
X136794Y35161D01*
Y35100D01*
X136794Y35100D01*
X136799Y35075D01*
Y33849D01*
X138001D01*
Y35651D01*
X137211D01*
X136681Y36181D01*
X136654Y36199D01*
X136713Y36449D01*
X137301D01*
Y36641D01*
X137699D01*
Y36449D01*
X138491D01*
Y35651D01*
X138299D01*
Y33849D01*
X139495D01*
X139745Y33835D01*
X139745Y18165D01*
X139501Y18151D01*
X139495Y18151D01*
X138299D01*
Y16349D01*
X138613D01*
X138637Y16099D01*
X138492Y16070D01*
X138481Y16065D01*
X138468Y16064D01*
X137905Y15893D01*
X137894Y15887D01*
X137881Y15885D01*
X137337Y15659D01*
X137327Y15652D01*
X137315Y15649D01*
X136795Y15371D01*
X136785Y15363D01*
X136774Y15358D01*
X136284Y15031D01*
X136275Y15022D01*
X136264Y15016D01*
X135809Y14643D01*
X135801Y14633D01*
X135790Y14626D01*
X135374Y14210D01*
X135367Y14199D01*
X135357Y14191D01*
X134984Y13736D01*
X134978Y13725D01*
X134969Y13716D01*
X134642Y13226D01*
X134637Y13215D01*
X134629Y13205D01*
X134351Y12685D01*
X134348Y12673D01*
X134341Y12663D01*
X134115Y12119D01*
X134113Y12106D01*
X134107Y12095D01*
X133936Y11532D01*
X133935Y11519D01*
X133930Y11508D01*
X133815Y10930D01*
Y10917D01*
X133811Y10905D01*
X133754Y10319D01*
X133755Y10310D01*
X133753Y10304D01*
X133743Y10298D01*
X133501Y10232D01*
X133300Y10532D01*
X132941Y10941D01*
X132532Y11300D01*
X132080Y11603D01*
X131592Y11843D01*
X131077Y12018D01*
X130543Y12124D01*
X130000Y12160D01*
X129457Y12124D01*
X128923Y12018D01*
X128408Y11843D01*
X127920Y11603D01*
X127468Y11300D01*
X127059Y10941D01*
X126700Y10532D01*
X126397Y10080D01*
X126157Y9592D01*
X125982Y9077D01*
X125876Y8543D01*
X125840Y8000D01*
X125876Y7457D01*
X125982Y6923D01*
X126157Y6408D01*
X126397Y5920D01*
X126700Y5468D01*
X127059Y5058D01*
X127468Y4700D01*
X127759Y4505D01*
X127683Y4255D01*
X74415D01*
X74380Y4300D01*
X74303Y4549D01*
X74365Y4642D01*
X74386Y4752D01*
Y5792D01*
X74365Y5901D01*
X74303Y5994D01*
X74210Y6056D01*
X74100Y6078D01*
X71660D01*
X71550Y6056D01*
X71457Y5994D01*
X71395Y5901D01*
X71386Y5857D01*
X71220Y5744D01*
X71123Y5714D01*
X71091Y5728D01*
X70909D01*
X70907Y5727D01*
X69756Y6878D01*
Y13563D01*
X69786Y13692D01*
X70048Y13758D01*
X70244Y13615D01*
Y8312D01*
X70244Y8312D01*
X70264Y8214D01*
X70319Y8131D01*
X70545Y7905D01*
X70544Y7903D01*
Y7721D01*
X70613Y7554D01*
X70742Y7425D01*
X70909Y7356D01*
X71091D01*
X71123Y7369D01*
X71220Y7339D01*
X71386Y7227D01*
X71395Y7182D01*
X71457Y7089D01*
X71550Y7027D01*
X71660Y7005D01*
X74100D01*
X74210Y7027D01*
X74303Y7089D01*
X74365Y7182D01*
X74386Y7292D01*
Y8332D01*
X74365Y8441D01*
X74303Y8534D01*
X74210Y8597D01*
X74100Y8618D01*
X71660D01*
X71550Y8597D01*
X71457Y8534D01*
X71395Y8441D01*
X71386Y8397D01*
X71220Y8284D01*
X71123Y8254D01*
X71091Y8268D01*
X70909D01*
X70756Y8442D01*
Y15804D01*
X71097Y16145D01*
X71099Y16144D01*
X71173D01*
X71348Y15976D01*
X71373Y15913D01*
Y14912D01*
X71395Y14802D01*
X71457Y14709D01*
X71550Y14647D01*
X71660Y14625D01*
X74100D01*
X74210Y14647D01*
X74303Y14709D01*
X74365Y14802D01*
X74386Y14912D01*
Y15176D01*
X76865D01*
X78392Y13649D01*
X78391Y13647D01*
Y13569D01*
X78233Y13404D01*
X78160Y13375D01*
X78025D01*
X77857Y13306D01*
X77729Y13177D01*
X77728Y13175D01*
X74386D01*
Y13412D01*
X74365Y13521D01*
X74303Y13614D01*
X74210Y13677D01*
X74100Y13698D01*
X71660D01*
X71550Y13677D01*
X71457Y13614D01*
X71395Y13521D01*
X71373Y13412D01*
Y12372D01*
X71395Y12262D01*
X71457Y12169D01*
X71550Y12107D01*
X71660Y12085D01*
X74100D01*
X74210Y12107D01*
X74303Y12169D01*
X74365Y12262D01*
X74386Y12372D01*
Y12663D01*
X77728D01*
X77729Y12661D01*
X77857Y12532D01*
X78025Y12463D01*
X78206D01*
X78208Y12464D01*
X78974Y11698D01*
Y7916D01*
X78863Y7886D01*
X78646Y7761D01*
X78469Y7584D01*
X78344Y7367D01*
X78279Y7125D01*
Y6875D01*
X78344Y6633D01*
X78469Y6416D01*
X78646Y6239D01*
X78863Y6114D01*
X79105Y6049D01*
X79355D01*
X79597Y6114D01*
X79814Y6239D01*
X79991Y6416D01*
X80116Y6633D01*
X80181Y6875D01*
Y7125D01*
X80116Y7367D01*
X79991Y7584D01*
X79814Y7761D01*
X79597Y7886D01*
X79486Y7916D01*
Y11804D01*
X79466Y11902D01*
X79411Y11985D01*
X79411Y11985D01*
X78570Y12826D01*
X78571Y12828D01*
Y12906D01*
X78711Y13052D01*
X78975Y13066D01*
X81514Y10527D01*
Y7916D01*
X81403Y7886D01*
X81186Y7761D01*
X81009Y7584D01*
X80884Y7367D01*
X80819Y7125D01*
Y6875D01*
X80884Y6633D01*
X81009Y6416D01*
X81186Y6239D01*
X81403Y6114D01*
X81645Y6049D01*
X81895D01*
X82137Y6114D01*
X82354Y6239D01*
X82531Y6416D01*
X82656Y6633D01*
X82721Y6875D01*
Y7125D01*
X82656Y7367D01*
X82531Y7584D01*
X82354Y7761D01*
X82137Y7886D01*
X82026Y7916D01*
Y10633D01*
X82026Y10633D01*
X82006Y10731D01*
X81951Y10814D01*
X81951Y10814D01*
X79601Y13164D01*
X79683Y13435D01*
X79725Y13444D01*
X84054Y9115D01*
Y7962D01*
X83910D01*
X83695Y7919D01*
X83513Y7797D01*
X83391Y7615D01*
X83348Y7400D01*
Y6600D01*
X83391Y6385D01*
X83513Y6203D01*
X83695Y6081D01*
X83910Y6038D01*
X84710D01*
X84925Y6081D01*
X85107Y6203D01*
X85229Y6385D01*
X85272Y6600D01*
Y7400D01*
X85229Y7615D01*
X85107Y7797D01*
X84925Y7919D01*
X84710Y7962D01*
X84566D01*
Y9221D01*
X84566Y9221D01*
X84546Y9319D01*
X84491Y9402D01*
X79931Y13962D01*
X79932Y13965D01*
Y14146D01*
X79862Y14314D01*
X79734Y14442D01*
X79566Y14511D01*
X79385D01*
X79383Y14510D01*
X75740Y18153D01*
X75657Y18208D01*
X75559Y18228D01*
X75559Y18228D01*
X74386D01*
Y18492D01*
X74365Y18601D01*
X74303Y18694D01*
X74210Y18757D01*
X74100Y18778D01*
X71660D01*
X71550Y18757D01*
X71457Y18694D01*
X71395Y18601D01*
X71373Y18492D01*
Y17452D01*
X71395Y17342D01*
X71457Y17249D01*
X71322Y17039D01*
X71281Y17056D01*
X71099D01*
X70932Y16987D01*
X70803Y16858D01*
X70734Y16691D01*
Y16509D01*
X70735Y16507D01*
X70319Y16091D01*
X70264Y16008D01*
X70244Y15910D01*
X70244Y15910D01*
Y14872D01*
X69994Y14705D01*
X69991Y14706D01*
X69809D01*
X69642Y14637D01*
X69513Y14508D01*
X69444Y14341D01*
Y14159D01*
X69445Y14157D01*
X69319Y14031D01*
X69264Y13948D01*
X69244Y13850D01*
X69244Y13850D01*
Y6772D01*
X69244Y6772D01*
X69264Y6674D01*
X69319Y6591D01*
X70545Y5365D01*
X70544Y5363D01*
Y5181D01*
X70613Y5014D01*
X70742Y4885D01*
X70909Y4816D01*
X71091D01*
X71123Y4829D01*
X71220Y4799D01*
X71386Y4687D01*
X71395Y4642D01*
X71457Y4549D01*
X71380Y4300D01*
X71345Y4255D01*
X48655D01*
X48620Y4300D01*
X48543Y4549D01*
X48605Y4642D01*
X48626Y4752D01*
Y5016D01*
X50772D01*
X50772Y5016D01*
X50870Y5036D01*
X50953Y5091D01*
X54407Y8545D01*
X54409Y8544D01*
X54591D01*
X54758Y8613D01*
X54887Y8742D01*
X54956Y8909D01*
Y9091D01*
X54887Y9258D01*
X54758Y9387D01*
X54591Y9456D01*
X54409D01*
X54242Y9387D01*
X54113Y9258D01*
X54044Y9091D01*
Y8909D01*
X54045Y8907D01*
X50666Y5528D01*
X48626D01*
Y5792D01*
X48605Y5901D01*
X48543Y5994D01*
X48450Y6056D01*
X48340Y6078D01*
X45900D01*
X45790Y6056D01*
X45697Y5994D01*
X45635Y5901D01*
X45624Y5847D01*
X45481Y5741D01*
X45363Y5697D01*
X45341Y5706D01*
X45159D01*
X44992Y5637D01*
X44863Y5508D01*
X44794Y5341D01*
Y5159D01*
X44863Y4992D01*
X44992Y4863D01*
X45159Y4794D01*
X45341D01*
X45363Y4803D01*
X45429Y4790D01*
X45617Y4669D01*
X45693Y4533D01*
X45620Y4300D01*
X45585Y4255D01*
X22317D01*
X22241Y4505D01*
X22532Y4700D01*
X22941Y5058D01*
X23300Y5468D01*
X23603Y5920D01*
X23843Y6408D01*
X24018Y6923D01*
X24124Y7457D01*
X24160Y8000D01*
X24124Y8543D01*
X24018Y9077D01*
X23843Y9592D01*
X23603Y10080D01*
X23300Y10532D01*
X22941Y10941D01*
X22532Y11300D01*
X22080Y11603D01*
X21592Y11843D01*
X21077Y12018D01*
X20543Y12124D01*
X20000Y12160D01*
X19457Y12124D01*
X18923Y12018D01*
X18408Y11843D01*
X17920Y11603D01*
X17468Y11300D01*
X17059Y10941D01*
X16700Y10532D01*
X16505Y10241D01*
X16255Y10317D01*
Y46050D01*
X43760D01*
Y47945D01*
X43859D01*
X44051Y47996D01*
X44224Y48096D01*
X44364Y48236D01*
X44464Y48409D01*
X44515Y48600D01*
X43760D01*
Y48800D01*
X44515D01*
X44464Y48991D01*
X44364Y49164D01*
X44224Y49304D01*
X44051Y49404D01*
X43859Y49455D01*
X43760D01*
Y52335D01*
X43991Y52430D01*
X49249Y47172D01*
Y45899D01*
X52822D01*
X53393Y45328D01*
Y41200D01*
Y41000D01*
Y38921D01*
X53385Y38919D01*
X53203Y38797D01*
X53081Y38615D01*
X53038Y38400D01*
Y37600D01*
X53081Y37385D01*
X53203Y37203D01*
X53385Y37081D01*
X53600Y37038D01*
X54400D01*
X54615Y37081D01*
X54797Y37203D01*
X54919Y37385D01*
X54962Y37600D01*
Y38400D01*
X54919Y38615D01*
X54797Y38797D01*
X54707Y38858D01*
Y41000D01*
Y41200D01*
Y45600D01*
X54684Y45770D01*
X54619Y45928D01*
X54514Y46064D01*
X53751Y46828D01*
Y48101D01*
X52243D01*
X52200Y48107D01*
X52157Y48101D01*
X50178D01*
X44407Y53872D01*
Y58568D01*
X44418Y58588D01*
X44466Y58767D01*
Y58953D01*
X44418Y59133D01*
X44325Y59293D01*
X44234Y59384D01*
X52350Y67500D01*
X52350D01*
X52350Y67500D01*
X52350Y67500D01*
X86249D01*
Y66933D01*
X85152Y65836D01*
X85085Y65736D01*
X85062Y65619D01*
Y64672D01*
X84265D01*
Y63328D01*
X85693D01*
Y62838D01*
X85613Y62758D01*
X85544Y62591D01*
Y62409D01*
X85613Y62242D01*
X85742Y62113D01*
X85909Y62044D01*
X86091D01*
X86258Y62113D01*
X86387Y62242D01*
X86456Y62409D01*
Y62591D01*
X86387Y62758D01*
X86480Y63016D01*
X86500Y63036D01*
X87500D01*
X87616Y63084D01*
X87663Y63200D01*
Y63328D01*
X89735D01*
Y63693D01*
X90662D01*
X90742Y63613D01*
X90909Y63544D01*
X91091D01*
X91258Y63613D01*
X91338Y63693D01*
X92265D01*
Y63328D01*
X94337D01*
Y63200D01*
X94384Y63084D01*
X94500Y63036D01*
X95500D01*
X95520Y63016D01*
X95613Y62758D01*
X95544Y62591D01*
Y62409D01*
X95613Y62242D01*
X95742Y62113D01*
X95909Y62044D01*
X96091D01*
X96258Y62113D01*
X96387Y62242D01*
X96456Y62409D01*
Y62591D01*
X96387Y62758D01*
X96307Y62838D01*
Y63328D01*
X97735D01*
Y64672D01*
X96938D01*
Y65619D01*
X96915Y65736D01*
X96848Y65836D01*
X95642Y67042D01*
X95683Y67114D01*
X95751Y67368D01*
Y67500D01*
X145745Y67500D01*
Y63163D01*
D02*
G37*
G36*
X123837Y59957D02*
X123651Y59801D01*
X123587Y59801D01*
X122449D01*
Y59307D01*
X122138D01*
X122058Y59387D01*
X121891Y59456D01*
X121709D01*
X121542Y59387D01*
X121413Y59258D01*
X121344Y59091D01*
Y58909D01*
X121413Y58742D01*
X121542Y58613D01*
X121709Y58544D01*
X121891D01*
X122058Y58613D01*
X122138Y58693D01*
X122449D01*
Y58199D01*
X123587D01*
X123650Y58199D01*
X123782Y58059D01*
X123634Y57850D01*
X123150D01*
Y57000D01*
Y56150D01*
X123587D01*
X123700Y56150D01*
X123837Y55957D01*
Y54032D01*
X121732D01*
X121551Y54199D01*
X121551Y54282D01*
Y54438D01*
X121709Y54544D01*
X121891D01*
X122058Y54613D01*
X122187Y54742D01*
X122256Y54909D01*
Y55091D01*
X122187Y55258D01*
X122058Y55387D01*
X121891Y55456D01*
X121709D01*
X121551Y55562D01*
Y55801D01*
X120349D01*
Y54282D01*
X120349Y54199D01*
X120168Y54032D01*
X119832D01*
X119651Y54199D01*
Y55801D01*
X118449D01*
Y54199D01*
X118298Y54011D01*
X118283Y54009D01*
X118184Y53942D01*
X117456Y53214D01*
X117206Y53318D01*
Y54199D01*
X117551D01*
Y55801D01*
X116349D01*
Y55673D01*
X116100Y55505D01*
X116100D01*
Y55000D01*
X115900D01*
Y55505D01*
X115900D01*
X115700Y55693D01*
Y55850D01*
X115150D01*
Y55000D01*
X114950D01*
Y55850D01*
X114815D01*
X114712Y56100D01*
X120856Y62244D01*
X123837D01*
Y59957D01*
D02*
G37*
G36*
X77657Y56592D02*
Y52909D01*
X68721D01*
X68700Y53150D01*
X68700Y53159D01*
Y53900D01*
X68050D01*
Y54000D01*
X67950D01*
Y54850D01*
X67400D01*
Y54641D01*
X67150Y54484D01*
X67100Y54505D01*
X67100D01*
Y54000D01*
X66900D01*
Y54505D01*
X66900D01*
X66850Y54484D01*
X66600Y54641D01*
Y54850D01*
X66050D01*
Y54000D01*
X65950D01*
Y53900D01*
X65300D01*
Y53159D01*
X65300Y53150D01*
X65279Y52909D01*
X64357D01*
Y53199D01*
X64651D01*
Y54801D01*
X64357D01*
Y55610D01*
X64675D01*
X64861Y55647D01*
X65018Y55752D01*
X65123Y55909D01*
X65160Y56095D01*
X65152Y56136D01*
X65382Y56260D01*
X65948Y55694D01*
X66040Y55633D01*
X66147Y55611D01*
X68141D01*
X68652Y55100D01*
X68548Y54850D01*
X68150D01*
Y54100D01*
X68700D01*
Y54698D01*
X68950Y54802D01*
X69349Y54403D01*
Y53199D01*
X70551D01*
Y54801D01*
X69747D01*
X69160Y55388D01*
X69284Y55618D01*
X69325Y55610D01*
X70325D01*
X70511Y55647D01*
X70668Y55752D01*
X70726Y55839D01*
X75095D01*
X75095Y55839D01*
X75193Y55859D01*
X75276Y55914D01*
X76061Y56699D01*
X77451D01*
X77657Y56592D01*
D02*
G37*
G36*
X61451Y56699D02*
X61693Y56680D01*
Y52807D01*
X49500D01*
X49433Y52900D01*
X49562Y53150D01*
X49850D01*
Y53900D01*
X49300D01*
Y53238D01*
X49061Y53123D01*
X48657Y53527D01*
Y53700D01*
X48651Y53730D01*
Y54801D01*
X48357D01*
Y55610D01*
X48675D01*
X48861Y55647D01*
X49018Y55752D01*
X49123Y55909D01*
X49160Y56095D01*
X49152Y56136D01*
X49382Y56260D01*
X49948Y55694D01*
X50040Y55633D01*
X50147Y55611D01*
X52141D01*
X52652Y55100D01*
X52548Y54850D01*
X52150D01*
Y54100D01*
X52700D01*
Y54698D01*
X52950Y54802D01*
X53349Y54403D01*
Y53199D01*
X54551D01*
Y54801D01*
X53747D01*
X53160Y55388D01*
X53284Y55618D01*
X53325Y55610D01*
X54325D01*
X54511Y55647D01*
X54668Y55752D01*
X54726Y55839D01*
X59095D01*
X59095Y55839D01*
X59193Y55859D01*
X59276Y55914D01*
X60061Y56699D01*
X61451D01*
Y56699D01*
D02*
G37*
G36*
X128429Y54433D02*
X128426Y54430D01*
X128313Y54235D01*
X128255Y54018D01*
Y53792D01*
X128313Y53575D01*
X128426Y53380D01*
X128511Y53295D01*
X128369Y53083D01*
X128232Y53140D01*
X128232D01*
Y52735D01*
X128637D01*
Y52735D01*
X128560Y52921D01*
X128499Y52982D01*
X128653Y53182D01*
X128780Y53108D01*
X128997Y53050D01*
X129223D01*
X129440Y53108D01*
X129635Y53221D01*
X129794Y53380D01*
X129907Y53575D01*
X129943Y53710D01*
X130149Y53792D01*
X130215Y53791D01*
X130223Y53783D01*
X130322Y53716D01*
X130440Y53693D01*
X131329D01*
X131362Y53443D01*
X131320Y53432D01*
X131125Y53319D01*
X130966Y53160D01*
X130899Y53044D01*
X130380D01*
X130224Y53013D01*
X130091Y52924D01*
X129352Y52185D01*
X129223Y52220D01*
X128997D01*
X128780Y52162D01*
X128653Y52088D01*
X128499Y52288D01*
X128560Y52349D01*
X128637Y52535D01*
Y52535D01*
X128232D01*
Y52130D01*
X128232D01*
X128369Y52187D01*
X128511Y51975D01*
X128426Y51890D01*
X128359Y51774D01*
X127824D01*
X127668Y51743D01*
X127535Y51654D01*
X126540Y50659D01*
X126200D01*
X126160Y50651D01*
X125199D01*
Y50409D01*
X124000D01*
Y51694D01*
X125199D01*
Y51349D01*
X126801D01*
Y52551D01*
X125199D01*
Y52206D01*
X124000D01*
Y52967D01*
X126125D01*
X126243Y52990D01*
X126342Y53057D01*
X127969Y54683D01*
X128325D01*
X128429Y54433D01*
D02*
G37*
G36*
X123837Y52326D02*
X123665Y52260D01*
X123587Y52253D01*
X123461Y52378D01*
X123275Y52455D01*
X123275D01*
Y51950D01*
Y51445D01*
X123275D01*
X123461Y51522D01*
X123587Y51647D01*
X123665Y51640D01*
X123837Y51574D01*
Y50409D01*
X122005D01*
X121891Y50456D01*
X121709D01*
X121551Y50661D01*
Y50801D01*
X120349D01*
Y49199D01*
X120168Y49032D01*
X119832D01*
X119651Y49199D01*
Y50801D01*
X118449D01*
Y49905D01*
X118199Y49772D01*
X118180Y49784D01*
Y49801D01*
X118157Y49918D01*
X118090Y50018D01*
X117277Y50830D01*
X117193Y50999D01*
X117277Y51168D01*
X118090Y51980D01*
X118156Y52080D01*
X118180Y52197D01*
Y52216D01*
X118199Y52229D01*
X118449Y52095D01*
Y51199D01*
X119651D01*
Y52801D01*
X119832Y52967D01*
X120168D01*
X120349Y52801D01*
X120349Y52717D01*
Y51199D01*
X121551D01*
Y51339D01*
X121709Y51544D01*
X121891D01*
X122058Y51613D01*
X122187Y51742D01*
X122256Y51909D01*
Y52091D01*
X122187Y52258D01*
X122058Y52387D01*
X121891Y52456D01*
X121709D01*
X121551Y52661D01*
X121551Y52801D01*
X121732Y52967D01*
X123837D01*
Y52326D01*
D02*
G37*
G36*
X145745Y63000D02*
Y42000D01*
Y41927D01*
X145716Y41783D01*
X145660Y41647D01*
X145579Y41525D01*
X145475Y41421D01*
X145353Y41340D01*
X145217Y41284D01*
X145073Y41255D01*
X141000D01*
X140994Y41254D01*
X140987Y41255D01*
X140889Y41250D01*
X140871Y41245D01*
X140852D01*
X140660Y41207D01*
X140637Y41197D01*
X140612Y41192D01*
X140431Y41117D01*
X140410Y41103D01*
X140387Y41094D01*
X140247Y41000D01*
X134157D01*
X134134Y41170D01*
X134069Y41328D01*
X133964Y41464D01*
X133828Y41569D01*
X133670Y41634D01*
X133500Y41657D01*
X124000D01*
Y47967D01*
X126818D01*
X126936Y47990D01*
X127035Y48057D01*
X128026Y49047D01*
X128109Y49034D01*
X128255Y48938D01*
Y48712D01*
X128313Y48495D01*
X128426Y48300D01*
X128585Y48141D01*
X128780Y48028D01*
X128997Y47970D01*
X129223D01*
X129440Y48028D01*
X129635Y48141D01*
X129794Y48300D01*
X129907Y48495D01*
X129942Y48626D01*
X130156Y48709D01*
X130213Y48708D01*
X130789Y48132D01*
Y48109D01*
X130795Y48079D01*
Y46700D01*
X132505D01*
Y48410D01*
X131357D01*
X131313Y48476D01*
X130531Y49258D01*
X130528Y49262D01*
X129743Y50047D01*
X129644Y50114D01*
X129526Y50137D01*
X127737D01*
X127619Y50114D01*
X127520Y50047D01*
X127164Y49692D01*
X127045Y49704D01*
X126906Y49787D01*
X126915Y49905D01*
X126998Y49961D01*
X127994Y50956D01*
X128359D01*
X128426Y50840D01*
X128585Y50681D01*
X128780Y50568D01*
X128997Y50510D01*
X129223D01*
X129440Y50568D01*
X129635Y50681D01*
X129794Y50840D01*
X129907Y51035D01*
X129965Y51252D01*
Y51478D01*
X129930Y51607D01*
X130549Y52226D01*
X130899D01*
X130966Y52110D01*
X131125Y51951D01*
X131320Y51838D01*
X131537Y51780D01*
X131763D01*
X131980Y51838D01*
X132175Y51951D01*
X132334Y52110D01*
X132343Y52125D01*
X132593Y52058D01*
Y51156D01*
X132196Y50758D01*
X132175Y50779D01*
X131980Y50892D01*
X131763Y50950D01*
X131537D01*
X131320Y50892D01*
X131125Y50779D01*
X130966Y50620D01*
X130853Y50425D01*
X130795Y50208D01*
Y49982D01*
X130853Y49765D01*
X130966Y49570D01*
X131125Y49411D01*
X131320Y49298D01*
X131537Y49240D01*
X131763D01*
X131980Y49298D01*
X132175Y49411D01*
X132334Y49570D01*
X132447Y49765D01*
X132505Y49982D01*
Y50208D01*
X132504Y50211D01*
X132541Y50236D01*
X133117Y50811D01*
X133184Y50911D01*
X133207Y51028D01*
Y52825D01*
X133184Y52942D01*
X133117Y53042D01*
X132027Y54132D01*
X132016Y54189D01*
X132049Y54394D01*
X132072Y54431D01*
X132175Y54491D01*
X132334Y54650D01*
X132447Y54845D01*
X132505Y55062D01*
Y55288D01*
X132447Y55505D01*
X132334Y55700D01*
X132175Y55859D01*
X131980Y55972D01*
X131763Y56030D01*
X131537D01*
X131320Y55972D01*
X131125Y55859D01*
X130966Y55700D01*
X130853Y55505D01*
X130795Y55288D01*
Y55062D01*
X130853Y54845D01*
X130966Y54650D01*
X131059Y54557D01*
X130966Y54307D01*
X130567D01*
X130305Y54569D01*
X130294Y54576D01*
X129496Y55375D01*
X129562Y55662D01*
X129665Y55722D01*
X129833Y55890D01*
X129952Y56096D01*
X130014Y56326D01*
Y56345D01*
X129110D01*
X128206D01*
Y56326D01*
X128268Y56096D01*
X128324Y55998D01*
X128192Y55748D01*
X127655D01*
X127537Y55725D01*
X127438Y55658D01*
X125811Y54032D01*
X124000D01*
Y62244D01*
X139394D01*
X141804Y59834D01*
Y59498D01*
X141711Y59473D01*
X141504Y59354D01*
X141336Y59186D01*
X141217Y58979D01*
X141155Y58749D01*
Y58511D01*
X141217Y58281D01*
X141336Y58074D01*
X141504Y57906D01*
X141711Y57787D01*
X141941Y57725D01*
X142179D01*
X142409Y57787D01*
X142616Y57906D01*
X142784Y58074D01*
X142903Y58281D01*
X142965Y58511D01*
Y58605D01*
X143215Y58749D01*
X143244Y58733D01*
Y46916D01*
X142493Y46165D01*
X142409Y46213D01*
X142179Y46275D01*
X141941D01*
X141711Y46213D01*
X141504Y46094D01*
X141336Y45926D01*
X141217Y45719D01*
X141155Y45489D01*
Y45251D01*
X141217Y45021D01*
X141336Y44814D01*
X141504Y44646D01*
X141711Y44527D01*
X141941Y44465D01*
X142179D01*
X142409Y44527D01*
X142616Y44646D01*
X142784Y44814D01*
X142903Y45021D01*
X142965Y45251D01*
Y45489D01*
X142903Y45719D01*
X142855Y45803D01*
X143681Y46629D01*
X143681Y46629D01*
X143736Y46712D01*
X143756Y46810D01*
X143756Y46810D01*
Y59000D01*
X143756Y59000D01*
X143736Y59098D01*
X143681Y59181D01*
X143681Y59181D01*
X140093Y62769D01*
X140189Y63000D01*
X145745Y63000D01*
D02*
G37*
G36*
X134591Y39331D02*
Y37500D01*
X134622Y37344D01*
X134711Y37211D01*
X135161Y36761D01*
X135294Y36672D01*
X135450Y36641D01*
X135522D01*
X135597Y36567D01*
X135627Y36479D01*
X135469Y36256D01*
X134356D01*
X133801Y36811D01*
Y37651D01*
X132199D01*
Y37306D01*
X131801D01*
Y37651D01*
X130199D01*
Y37306D01*
X129801D01*
Y37651D01*
X128199D01*
Y36797D01*
X127976Y36701D01*
X127801Y36842D01*
Y37651D01*
X126199D01*
Y36449D01*
X127439D01*
X127987Y35901D01*
X127964Y35771D01*
X127895Y35651D01*
X127800D01*
X127799Y35651D01*
X127550Y35653D01*
Y35700D01*
X127000D01*
Y34750D01*
Y33800D01*
X127550D01*
Y33847D01*
X127799Y33849D01*
X127800Y33849D01*
X128144D01*
Y33506D01*
X126894Y32256D01*
X123651D01*
Y32901D01*
X121049D01*
Y31099D01*
X123651D01*
Y31744D01*
X127000D01*
X127000Y31744D01*
X127098Y31764D01*
X127181Y31819D01*
X128581Y33219D01*
X128581Y33219D01*
X128636Y33302D01*
X128656Y33400D01*
X128656Y33400D01*
Y33849D01*
X129001D01*
Y35012D01*
X129251Y35145D01*
X129299Y35113D01*
Y33849D01*
X130391D01*
Y33253D01*
X124093Y26955D01*
X124091Y26956D01*
X123909D01*
X123742Y26887D01*
X123613Y26758D01*
X123544Y26591D01*
Y26409D01*
X123545Y26407D01*
X123190Y26052D01*
X105809D01*
X105600Y26150D01*
X105600Y26302D01*
Y26900D01*
X104950D01*
X104300D01*
Y26302D01*
X104300Y26150D01*
X104091Y26052D01*
X103840D01*
X103651Y26199D01*
Y27801D01*
X103070D01*
X102964Y28051D01*
X103109Y28199D01*
X103651D01*
Y28380D01*
X103901Y28547D01*
X103909Y28544D01*
X104091D01*
X104300Y28360D01*
Y28150D01*
X104850D01*
Y29000D01*
Y29850D01*
X104300D01*
Y29640D01*
X104091Y29456D01*
X103909D01*
X103901Y29453D01*
X103651Y29620D01*
Y29801D01*
X102449D01*
Y28702D01*
X102444Y28675D01*
Y28531D01*
X100601D01*
Y28949D01*
Y29949D01*
Y30969D01*
X102133D01*
X102301Y30801D01*
X102392Y30740D01*
X102449Y30729D01*
Y30199D01*
X103651D01*
Y31801D01*
X102833D01*
X102737Y32024D01*
X102878Y32199D01*
X103651D01*
Y32380D01*
X103901Y32547D01*
X103909Y32544D01*
X104091D01*
X104300Y32360D01*
Y32150D01*
X104850D01*
Y33000D01*
Y33850D01*
X104300D01*
Y33640D01*
X104091Y33456D01*
X103909D01*
X103901Y33453D01*
X103651Y33620D01*
Y33801D01*
X102449D01*
Y32597D01*
X101883Y32031D01*
X100601D01*
Y32051D01*
X98804D01*
X98765Y32059D01*
X98573Y32108D01*
Y32284D01*
X98503Y32451D01*
X98375Y32580D01*
X98234Y32638D01*
X98051Y32799D01*
Y33419D01*
X101200D01*
X101308Y33440D01*
X101399Y33501D01*
X102218Y34320D01*
X102449Y34224D01*
Y34199D01*
X103651D01*
Y35801D01*
X102449D01*
Y35271D01*
X102392Y35260D01*
X102301Y35199D01*
X101083Y33981D01*
X98051D01*
Y34601D01*
X97863D01*
X97767Y34832D01*
X99613Y36678D01*
X101872D01*
X101950Y36693D01*
X102449D01*
Y36199D01*
X103651D01*
Y37801D01*
X102812D01*
X102716Y38032D01*
X102883Y38199D01*
X103651D01*
Y39801D01*
X102449D01*
Y38633D01*
X101558Y37742D01*
X99299D01*
X99182Y37719D01*
X99082Y37653D01*
X96557Y35128D01*
X96491Y35028D01*
X96468Y34911D01*
Y34601D01*
X94954D01*
X94769Y34792D01*
X94777Y35025D01*
X94922Y35150D01*
X95100D01*
Y35900D01*
X94450D01*
X93800D01*
Y35150D01*
X93800Y35150D01*
X93800D01*
X93806Y35012D01*
X93719Y34870D01*
X93701Y34855D01*
X93562Y34792D01*
X93514Y34803D01*
X93467Y34874D01*
X93465Y34876D01*
Y35092D01*
X93442Y35209D01*
X93375Y35309D01*
X93157Y35527D01*
Y35700D01*
X93151Y35730D01*
Y36801D01*
X92857D01*
Y37343D01*
X97500D01*
X97670Y37366D01*
X97828Y37431D01*
X97964Y37536D01*
X100772Y40343D01*
X126591D01*
Y39551D01*
X126199D01*
Y38349D01*
X127801D01*
Y38541D01*
X128199D01*
Y38349D01*
X129801D01*
Y39551D01*
X128199D01*
Y39359D01*
X127801D01*
Y39551D01*
X127409D01*
Y40343D01*
X130325D01*
X130495Y40100D01*
Y40100D01*
X131505D01*
Y40100D01*
X131675Y40343D01*
X133500D01*
X133569Y40353D01*
X134591Y39331D01*
D02*
G37*
G36*
X139864Y40675D02*
X139897Y40590D01*
X139883Y40569D01*
X139808Y40388D01*
X139803Y40363D01*
X139793Y40340D01*
X139755Y40148D01*
Y40129D01*
X139750Y40111D01*
X139745Y40013D01*
X139746Y40006D01*
X139745Y40000D01*
Y35791D01*
X139495Y35692D01*
X139309Y35802D01*
Y36850D01*
X139301Y36889D01*
Y37651D01*
X137699D01*
Y37459D01*
X137301D01*
Y37651D01*
X135699D01*
Y37651D01*
X135649Y37647D01*
X135409Y37869D01*
Y38279D01*
X135650Y38300D01*
X135659Y38300D01*
X136400D01*
Y38950D01*
Y39600D01*
X135650D01*
Y39569D01*
X135400Y39545D01*
X135378Y39656D01*
X135289Y39789D01*
X134473Y40606D01*
X134568Y40837D01*
X139755D01*
X139864Y40675D01*
D02*
G37*
G36*
X92243Y36801D02*
X91949D01*
Y35199D01*
X92622D01*
X92633Y35183D01*
X92835Y34980D01*
X92820Y34728D01*
X92626Y34601D01*
X90996D01*
X90986Y34648D01*
X90931Y34731D01*
X90681Y34981D01*
X90598Y35036D01*
X90500Y35056D01*
X90500Y35056D01*
X88089D01*
X88008Y35137D01*
X87841Y35206D01*
X87659D01*
X87492Y35137D01*
X87363Y35008D01*
X87294Y34841D01*
Y34659D01*
X87363Y34492D01*
X87492Y34363D01*
X87659Y34294D01*
X87841D01*
X88008Y34363D01*
X88113Y34353D01*
X88344Y34291D01*
Y34109D01*
X88413Y33942D01*
X88542Y33813D01*
X88709Y33744D01*
X88891D01*
X89058Y33813D01*
X89187Y33942D01*
X89188Y33944D01*
X89949D01*
Y32799D01*
X90994D01*
Y32356D01*
X90786Y32148D01*
X90730Y32065D01*
X90711Y31967D01*
X90711Y31967D01*
Y30528D01*
X90711Y30528D01*
X90730Y30430D01*
X90786Y30347D01*
X93544Y27589D01*
Y27409D01*
X93613Y27242D01*
X93742Y27113D01*
X93909Y27044D01*
X94091D01*
X94258Y27113D01*
X94387Y27242D01*
X94456Y27409D01*
Y27591D01*
X94387Y27758D01*
X94258Y27887D01*
X94091Y27956D01*
X93909D01*
X93903Y27954D01*
X91223Y30634D01*
Y30966D01*
X91473Y31122D01*
X91504Y31109D01*
X91575D01*
X91713Y31058D01*
X91806Y30888D01*
Y30843D01*
X91876Y30675D01*
X92004Y30547D01*
X92172Y30478D01*
X92353D01*
X92521Y30547D01*
X92649Y30675D01*
X92718Y30843D01*
Y31024D01*
X92649Y31192D01*
X92666Y31254D01*
X92667Y31257D01*
X92959Y31383D01*
X92968Y31379D01*
X93149D01*
X93273Y31430D01*
X93431Y31328D01*
X93486Y31268D01*
Y31110D01*
X93555Y30942D01*
X93684Y30814D01*
X93851Y30745D01*
X94040Y30594D01*
X94044Y30514D01*
Y30409D01*
X94113Y30242D01*
X94242Y30113D01*
X94407Y30033D01*
X94371Y29850D01*
Y29668D01*
X94440Y29501D01*
X94569Y29372D01*
X94736Y29303D01*
X94918D01*
X95085Y29372D01*
X95214Y29501D01*
X95283Y29668D01*
Y29850D01*
X95262Y29900D01*
X96431Y31069D01*
X96431Y31069D01*
X96486Y31152D01*
X96506Y31250D01*
Y32799D01*
X97751D01*
X97803Y32693D01*
X97828Y32549D01*
X97730Y32451D01*
X97661Y32284D01*
Y32102D01*
X97730Y31935D01*
X97806Y31858D01*
Y31462D01*
X97828Y31354D01*
X97889Y31263D01*
X98143Y31009D01*
X98144Y30940D01*
X98070Y30729D01*
X97977Y30690D01*
X97849Y30562D01*
X97780Y30394D01*
Y30213D01*
X97566Y30077D01*
X97477Y30040D01*
X97349Y29912D01*
X97280Y29744D01*
Y29563D01*
X97349Y29395D01*
X97477Y29267D01*
X97645Y29198D01*
X97826D01*
X97994Y29267D01*
X98139Y29077D01*
X97842Y28780D01*
X96854D01*
X96853Y28782D01*
X96725Y28910D01*
X96558Y28980D01*
X96376D01*
X96209Y28910D01*
X96080Y28782D01*
X96011Y28614D01*
Y28433D01*
X96080Y28265D01*
X96001Y28021D01*
X95932Y27853D01*
Y27671D01*
X96001Y27504D01*
X96130Y27376D01*
X96297Y27306D01*
X96479D01*
X96646Y27376D01*
X96765Y27494D01*
X97670D01*
X97671Y27494D01*
X97768Y27514D01*
X97851Y27569D01*
X98549Y28267D01*
X98799Y28163D01*
Y26949D01*
Y26006D01*
X97888D01*
X97887Y26008D01*
X97758Y26137D01*
X97591Y26206D01*
X97409D01*
X97242Y26137D01*
X97113Y26008D01*
X97112Y26006D01*
X91356D01*
X89955Y27407D01*
X89956Y27409D01*
Y27591D01*
X89887Y27758D01*
X89758Y27887D01*
X89591Y27956D01*
X89409D01*
X89324Y28013D01*
X89250Y28090D01*
Y28100D01*
X89240D01*
X89201Y28140D01*
Y28860D01*
X89409Y29044D01*
X89591D01*
X89758Y29113D01*
X89887Y29242D01*
X89956Y29409D01*
Y29591D01*
X89887Y29758D01*
X89758Y29887D01*
X89591Y29956D01*
X89409D01*
X89250Y30130D01*
Y30150D01*
X88300D01*
X87350D01*
Y29900D01*
X87399D01*
Y28949D01*
Y28100D01*
X87350D01*
Y27850D01*
X88300D01*
Y27650D01*
X87350D01*
Y27547D01*
X87283Y27534D01*
X87183Y27467D01*
X87100Y27384D01*
X86850Y27488D01*
Y27850D01*
X86100D01*
Y27300D01*
X86662D01*
X86766Y27050D01*
X86367Y26651D01*
X85199D01*
Y26357D01*
X84409D01*
Y31143D01*
X85199D01*
Y30849D01*
X86270D01*
X86300Y30843D01*
X86473D01*
X86783Y30533D01*
X86883Y30466D01*
X87000Y30443D01*
X87350D01*
Y30350D01*
X88300D01*
X89250D01*
Y30600D01*
X89201D01*
Y30860D01*
X89409Y31044D01*
X89591D01*
X89758Y31113D01*
X89887Y31242D01*
X89956Y31409D01*
Y31591D01*
X89887Y31758D01*
X89758Y31887D01*
X89591Y31956D01*
X89409D01*
X89353Y31982D01*
X89346Y31986D01*
X89201Y32051D01*
X89201Y32051D01*
X87399D01*
Y31057D01*
X87127D01*
X86817Y31367D01*
X86801Y31378D01*
Y32051D01*
X85199D01*
Y31757D01*
X84409D01*
Y37343D01*
X92243D01*
Y36801D01*
D02*
G37*
G36*
X85199Y25449D02*
X85951D01*
X86007Y25383D01*
X86089Y25199D01*
X86044Y25091D01*
Y24909D01*
X86113Y24742D01*
X86211Y24644D01*
X86228Y24500D01*
X86211Y24356D01*
X86113Y24258D01*
X86044Y24091D01*
Y23909D01*
X86113Y23742D01*
X86242Y23613D01*
X86409Y23544D01*
X86591D01*
X86703Y23590D01*
X86844Y23379D01*
X86496Y23030D01*
X86441Y22947D01*
X86421Y22849D01*
X86421Y22849D01*
Y22824D01*
X86389Y22811D01*
X86260Y22682D01*
X86191Y22515D01*
Y22333D01*
X86260Y22166D01*
X86389Y22037D01*
X86556Y21968D01*
X86738D01*
X86905Y22037D01*
X87034Y22166D01*
X87103Y22333D01*
Y22515D01*
X87068Y22599D01*
X87281Y22738D01*
X87381Y22638D01*
X87548Y22569D01*
X87730D01*
X87897Y22638D01*
X88025Y22766D01*
X88095Y22934D01*
Y23115D01*
X88326Y23144D01*
X89949D01*
Y21399D01*
X90943D01*
Y20307D01*
X87272D01*
X83715Y23865D01*
X84227Y24377D01*
X84349Y24426D01*
X84550Y24379D01*
X84601Y24328D01*
X84787Y24251D01*
X84787D01*
Y24756D01*
Y25261D01*
X84787D01*
X84659Y25208D01*
X84477Y25288D01*
X84409Y25345D01*
Y25743D01*
X85199D01*
Y25449D01*
D02*
G37*
G36*
X94350Y21350D02*
X94600D01*
Y21399D01*
X95751D01*
X95994Y21359D01*
X96014Y21261D01*
X96069Y21178D01*
X96675Y20573D01*
X96758Y20517D01*
X96814Y20506D01*
X96789Y20256D01*
X95888D01*
X95887Y20258D01*
X95758Y20387D01*
X95591Y20456D01*
X95409D01*
X95350Y20431D01*
X95108Y20567D01*
X95100Y20578D01*
Y20850D01*
X94550D01*
Y20000D01*
X94350D01*
Y20850D01*
X94006D01*
Y21350D01*
X94150D01*
Y22300D01*
X94350D01*
Y21350D01*
D02*
G37*
%LPC*%
G36*
X92600Y65505D02*
X92600D01*
Y65100D01*
X93005D01*
Y65100D01*
X92928Y65286D01*
X92786Y65428D01*
X92600Y65505D01*
D02*
G37*
G36*
X92400D02*
X92400D01*
X92214Y65428D01*
X92072Y65286D01*
X91995Y65100D01*
Y65100D01*
X92400D01*
Y65505D01*
D02*
G37*
G36*
X89600D02*
X89600D01*
Y65100D01*
X90005D01*
Y65100D01*
X89928Y65286D01*
X89786Y65428D01*
X89600Y65505D01*
D02*
G37*
G36*
X89400D02*
X89400D01*
X89214Y65428D01*
X89072Y65286D01*
X88995Y65100D01*
Y65100D01*
X89400D01*
Y65505D01*
D02*
G37*
G36*
X69725Y60440D02*
X69325D01*
X69120Y60400D01*
X68947Y60284D01*
X68929Y60257D01*
X68867Y60240D01*
X68625Y60252D01*
X68543Y60333D01*
X68358Y60410D01*
X68357D01*
Y59905D01*
Y59400D01*
X68358D01*
X68543Y59477D01*
X68625Y59558D01*
X68867Y59570D01*
X68929Y59553D01*
X68947Y59527D01*
X69120Y59410D01*
X69325Y59370D01*
Y59120D01*
X69139Y59083D01*
X68982Y58978D01*
X68877Y58821D01*
X68840Y58635D01*
X68877Y58449D01*
X68982Y58292D01*
X69139Y58187D01*
X69325Y58150D01*
X70325D01*
X70511Y58187D01*
X70668Y58292D01*
X70770Y58444D01*
X72549D01*
Y58151D01*
X72549Y58099D01*
Y57901D01*
X72549Y57849D01*
Y57556D01*
X70770D01*
X70668Y57708D01*
X70511Y57813D01*
X70325Y57850D01*
X69325D01*
X69139Y57813D01*
X68982Y57708D01*
X68877Y57551D01*
X68840Y57365D01*
X68877Y57179D01*
X68982Y57022D01*
X69139Y56917D01*
X69325Y56880D01*
X70325D01*
X70511Y56917D01*
X70668Y57022D01*
X70683Y57044D01*
X72549D01*
Y56699D01*
X74351D01*
Y57849D01*
X74351Y57901D01*
Y58099D01*
X74351Y58151D01*
Y59301D01*
X72549D01*
Y58956D01*
X70683D01*
X70668Y58978D01*
X70511Y59083D01*
X70325Y59120D01*
Y59370D01*
X70530Y59410D01*
X70703Y59527D01*
X70820Y59700D01*
X70840Y59805D01*
X69825D01*
Y59905D01*
X69725D01*
Y60440D01*
D02*
G37*
G36*
X53725D02*
X53325D01*
X53120Y60400D01*
X52946Y60284D01*
X52929Y60257D01*
X52867Y60240D01*
X52625Y60252D01*
X52543Y60333D01*
X52358Y60410D01*
X52357D01*
Y59905D01*
Y59400D01*
X52358D01*
X52543Y59477D01*
X52625Y59558D01*
X52867Y59570D01*
X52929Y59553D01*
X52946Y59527D01*
X53120Y59410D01*
X53325Y59370D01*
Y59120D01*
X53139Y59083D01*
X52982Y58978D01*
X52877Y58821D01*
X52840Y58635D01*
X52877Y58449D01*
X52982Y58292D01*
X53139Y58187D01*
X53325Y58150D01*
X54325D01*
X54511Y58187D01*
X54668Y58292D01*
X54770Y58444D01*
X56549D01*
Y58151D01*
X56549Y58099D01*
Y57901D01*
X56549Y57849D01*
Y57556D01*
X54770D01*
X54668Y57708D01*
X54511Y57813D01*
X54325Y57850D01*
X53325D01*
X53139Y57813D01*
X52982Y57708D01*
X52877Y57551D01*
X52840Y57365D01*
X52877Y57179D01*
X52982Y57022D01*
X53139Y56917D01*
X53325Y56880D01*
X54325D01*
X54511Y56917D01*
X54668Y57022D01*
X54683Y57044D01*
X56549D01*
Y56699D01*
X58351D01*
Y57849D01*
X58351Y57901D01*
Y58099D01*
X58351Y58151D01*
Y59301D01*
X56549D01*
Y58956D01*
X54683D01*
X54668Y58978D01*
X54511Y59083D01*
X54325Y59120D01*
Y59370D01*
X54530Y59410D01*
X54704Y59527D01*
X54820Y59700D01*
X54840Y59805D01*
X53825D01*
Y59905D01*
X53725D01*
Y60440D01*
D02*
G37*
G36*
X84157Y60410D02*
X84157D01*
X83971Y60333D01*
X83829Y60191D01*
X83752Y60005D01*
Y60005D01*
X84157D01*
Y60410D01*
D02*
G37*
G36*
X68157Y60410D02*
X68157D01*
X67971Y60333D01*
X67829Y60191D01*
X67752Y60005D01*
Y60005D01*
X68157D01*
Y60410D01*
D02*
G37*
G36*
X52157D02*
X52157D01*
X51971Y60333D01*
X51829Y60191D01*
X51752Y60005D01*
Y60005D01*
X52157D01*
Y60410D01*
D02*
G37*
G36*
X54325Y60440D02*
X53925D01*
Y60005D01*
X54840D01*
X54820Y60110D01*
X54704Y60284D01*
X54530Y60400D01*
X54325Y60440D01*
D02*
G37*
G36*
X86325Y60440D02*
X85925D01*
Y60005D01*
X86840D01*
X86820Y60110D01*
X86703Y60284D01*
X86530Y60400D01*
X86325Y60440D01*
D02*
G37*
G36*
X70325Y60440D02*
X69925D01*
Y60005D01*
X70840D01*
X70820Y60110D01*
X70703Y60284D01*
X70530Y60400D01*
X70325Y60440D01*
D02*
G37*
G36*
X95000Y61256D02*
X95000Y61256D01*
X83000D01*
X82902Y61236D01*
X82819Y61181D01*
X82819Y61181D01*
X81383Y59745D01*
X81153Y59869D01*
X81160Y59905D01*
X81123Y60091D01*
X81018Y60248D01*
X80861Y60353D01*
X80675Y60390D01*
X79675D01*
X79505Y60357D01*
X78681Y61181D01*
X78598Y61236D01*
X78500Y61256D01*
X78500Y61256D01*
X67000D01*
X66902Y61236D01*
X66819Y61181D01*
X66819Y61181D01*
X65383Y59745D01*
X65153Y59869D01*
X65160Y59905D01*
X65123Y60091D01*
X65018Y60248D01*
X64861Y60353D01*
X64675Y60390D01*
X63675D01*
X63505Y60357D01*
X62681Y61181D01*
X62598Y61236D01*
X62500Y61256D01*
X62500Y61256D01*
X51000D01*
X50902Y61236D01*
X50819Y61181D01*
X50819Y61181D01*
X49383Y59745D01*
X49153Y59869D01*
X49160Y59905D01*
X49123Y60091D01*
X49018Y60248D01*
X48861Y60353D01*
X48675Y60390D01*
X47675D01*
X47489Y60353D01*
X47332Y60248D01*
X47227Y60091D01*
X47190Y59905D01*
X47227Y59719D01*
X47332Y59562D01*
X47489Y59457D01*
X47675Y59420D01*
X48503D01*
X48512Y59415D01*
X48631Y59170D01*
X48592Y59120D01*
X47675D01*
X47489Y59083D01*
X47332Y58978D01*
X47227Y58821D01*
X47190Y58635D01*
X47227Y58449D01*
X47332Y58292D01*
X47489Y58187D01*
X47675Y58150D01*
X48675D01*
X48861Y58187D01*
X49018Y58292D01*
X49123Y58449D01*
X49160Y58635D01*
X49133Y58771D01*
X51106Y60744D01*
X62394D01*
X63197Y59941D01*
X63190Y59905D01*
X63227Y59719D01*
X63332Y59562D01*
X63489Y59457D01*
X63675Y59420D01*
X64503D01*
X64512Y59415D01*
X64631Y59170D01*
X64592Y59120D01*
X63675D01*
X63489Y59083D01*
X63332Y58978D01*
X63227Y58821D01*
X63190Y58635D01*
X63227Y58449D01*
X63332Y58292D01*
X63489Y58187D01*
X63675Y58150D01*
X64675D01*
X64861Y58187D01*
X65018Y58292D01*
X65123Y58449D01*
X65160Y58635D01*
X65133Y58771D01*
X67106Y60744D01*
X78394D01*
X79197Y59941D01*
X79190Y59905D01*
X79227Y59719D01*
X79332Y59562D01*
X79489Y59457D01*
X79675Y59420D01*
X80503D01*
X80512Y59415D01*
X80631Y59170D01*
X80592Y59120D01*
X79675D01*
X79489Y59083D01*
X79332Y58978D01*
X79227Y58821D01*
X79190Y58635D01*
X79227Y58449D01*
X79332Y58292D01*
X79489Y58187D01*
X79675Y58150D01*
X80675D01*
X80861Y58187D01*
X81018Y58292D01*
X81123Y58449D01*
X81160Y58635D01*
X81133Y58771D01*
X83106Y60744D01*
X94894D01*
X96795Y58843D01*
X96794Y58841D01*
Y58659D01*
X96863Y58492D01*
X96992Y58363D01*
X97159Y58294D01*
X97341D01*
X97508Y58363D01*
X97637Y58492D01*
X97706Y58659D01*
Y58841D01*
X97637Y59008D01*
X97508Y59137D01*
X97341Y59206D01*
X97159D01*
X97157Y59205D01*
X95181Y61181D01*
X95098Y61236D01*
X95000Y61256D01*
D02*
G37*
G36*
X84157Y59805D02*
X83752D01*
Y59805D01*
X83829Y59619D01*
X83971Y59477D01*
X84157Y59400D01*
X84157D01*
Y59805D01*
D02*
G37*
G36*
X68157Y59805D02*
X67752D01*
Y59805D01*
X67829Y59619D01*
X67971Y59477D01*
X68157Y59400D01*
X68157D01*
Y59805D01*
D02*
G37*
G36*
X52157D02*
X51752D01*
Y59805D01*
X51829Y59619D01*
X51971Y59477D01*
X52157Y59400D01*
X52157D01*
Y59805D01*
D02*
G37*
G36*
X104801Y57051D02*
X103199D01*
Y56807D01*
X102588D01*
X102508Y56887D01*
X102341Y56956D01*
X102159D01*
X101992Y56887D01*
X101863Y56758D01*
X101794Y56591D01*
Y56409D01*
X101863Y56242D01*
X101992Y56113D01*
X102159Y56044D01*
X102341D01*
X102508Y56113D01*
X102588Y56193D01*
X103199D01*
Y55849D01*
X104801D01*
Y55993D01*
X105549D01*
Y55649D01*
X107251D01*
Y56951D01*
X105549D01*
Y56607D01*
X104801D01*
Y57051D01*
D02*
G37*
G36*
X104850Y55200D02*
X104100D01*
Y54650D01*
X104850D01*
Y55200D01*
D02*
G37*
G36*
X103900D02*
X103150D01*
Y54650D01*
X103900D01*
Y55200D01*
D02*
G37*
G36*
X109451Y56951D02*
X107749D01*
Y55649D01*
X107749D01*
X107747Y55400D01*
X107700D01*
Y54800D01*
X108600D01*
Y54700D01*
X108700D01*
Y54000D01*
X109500D01*
Y54502D01*
X109742Y54613D01*
X109909Y54544D01*
X110091D01*
X110199Y54589D01*
X110383Y54507D01*
X110449Y54451D01*
Y54199D01*
X111651D01*
Y55801D01*
X110449D01*
Y55549D01*
X110383Y55493D01*
X110199Y55411D01*
X110091Y55456D01*
X110042D01*
X109451Y56047D01*
Y56951D01*
D02*
G37*
G36*
X81850Y54850D02*
X81300D01*
Y54100D01*
X81850D01*
Y54850D01*
D02*
G37*
G36*
X107251Y55351D02*
X105549D01*
Y54049D01*
X107251D01*
Y55351D01*
D02*
G37*
G36*
X108500Y54600D02*
X107700D01*
Y54000D01*
X108500D01*
Y54600D01*
D02*
G37*
G36*
X104850Y54450D02*
X104100D01*
Y53900D01*
X104850D01*
Y54450D01*
D02*
G37*
G36*
X103900D02*
X103150D01*
Y53900D01*
X103900D01*
Y54450D01*
D02*
G37*
G36*
X103651Y52801D02*
X102449D01*
Y52528D01*
X102341Y52456D01*
X102159D01*
X101992Y52387D01*
X101863Y52258D01*
X101794Y52091D01*
Y51909D01*
X101863Y51742D01*
X101992Y51613D01*
X102159Y51544D01*
X102341D01*
X102449Y51472D01*
Y51199D01*
X103651D01*
Y52801D01*
D02*
G37*
G36*
X72100Y50505D02*
X72100D01*
Y50100D01*
X72505D01*
Y50100D01*
X72428Y50286D01*
X72286Y50428D01*
X72100Y50505D01*
D02*
G37*
G36*
X71900D02*
X71900D01*
X71714Y50428D01*
X71572Y50286D01*
X71495Y50100D01*
Y50100D01*
X71900D01*
Y50505D01*
D02*
G37*
G36*
X103651Y50801D02*
X102449D01*
Y50528D01*
X102341Y50456D01*
X102159D01*
X101992Y50387D01*
X101863Y50258D01*
X101794Y50091D01*
Y49909D01*
X101863Y49742D01*
X101992Y49613D01*
X102159Y49544D01*
X102341D01*
X102449Y49472D01*
Y49199D01*
X103651D01*
Y50801D01*
D02*
G37*
G36*
X72505Y49900D02*
X71495D01*
Y49900D01*
X71372Y49715D01*
X69900D01*
Y48600D01*
X72000D01*
X74100D01*
Y49715D01*
X72628D01*
X72505Y49900D01*
Y49900D01*
D02*
G37*
G36*
X95841Y50456D02*
X95659D01*
X95492Y50387D01*
X95363Y50258D01*
X95294Y50091D01*
Y49909D01*
X95318Y49851D01*
X95199Y49601D01*
X95199D01*
Y48399D01*
X96301D01*
Y49601D01*
X96301Y49601D01*
X96182Y49851D01*
X96206Y49909D01*
Y50091D01*
X96137Y50258D01*
X96008Y50387D01*
X95841Y50456D01*
D02*
G37*
G36*
X88341D02*
X88159D01*
X87992Y50387D01*
X87863Y50258D01*
X87794Y50091D01*
Y49909D01*
X87818Y49851D01*
X87699Y49601D01*
X87699D01*
Y48399D01*
X88801D01*
Y49601D01*
X88801Y49601D01*
X88682Y49851D01*
X88706Y49909D01*
Y50091D01*
X88637Y50258D01*
X88508Y50387D01*
X88341Y50456D01*
D02*
G37*
G36*
X107651Y47801D02*
X106449D01*
Y47549D01*
X106383Y47493D01*
X106199Y47411D01*
X106091Y47456D01*
X105909D01*
X105801Y47411D01*
X105617Y47493D01*
X105551Y47549D01*
Y47801D01*
X104349D01*
Y46199D01*
X105551D01*
Y46451D01*
X105617Y46507D01*
X105801Y46589D01*
X105909Y46544D01*
X106091D01*
X106199Y46589D01*
X106383Y46507D01*
X106449Y46451D01*
Y46199D01*
X107651D01*
Y47801D01*
D02*
G37*
G36*
X74100Y48400D02*
X72100D01*
Y47285D01*
X74100D01*
Y48400D01*
D02*
G37*
G36*
X71900D02*
X69900D01*
Y47285D01*
X71900D01*
Y48400D01*
D02*
G37*
G36*
X60800Y48150D02*
X58600D01*
Y47100D01*
X60800D01*
Y48150D01*
D02*
G37*
G36*
X58400D02*
X56200D01*
Y47100D01*
X58400D01*
Y48150D01*
D02*
G37*
G36*
X60800Y46900D02*
X58600D01*
Y45850D01*
X60800D01*
Y46900D01*
D02*
G37*
G36*
X58400D02*
X56200D01*
Y45850D01*
X58400D01*
Y46900D01*
D02*
G37*
G36*
X107651Y45801D02*
X106449D01*
Y45549D01*
X106383Y45493D01*
X106199Y45411D01*
X106091Y45456D01*
X105909D01*
X105801Y45411D01*
X105617Y45493D01*
X105551Y45549D01*
Y45801D01*
X104349D01*
Y44199D01*
X105551D01*
Y44451D01*
X105617Y44507D01*
X105801Y44589D01*
X105909Y44544D01*
X106091D01*
X106199Y44589D01*
X106383Y44507D01*
X106449Y44451D01*
Y44199D01*
X107651D01*
Y45801D01*
D02*
G37*
G36*
X85301Y47651D02*
X83699D01*
Y46449D01*
X84244D01*
Y45551D01*
X83699D01*
Y44349D01*
X85301D01*
Y44694D01*
X86199D01*
Y44349D01*
X87801D01*
Y45551D01*
X87556D01*
Y46399D01*
X87851D01*
Y47601D01*
X86749D01*
Y46399D01*
X87044D01*
Y45551D01*
X86199D01*
Y45206D01*
X85301D01*
Y45551D01*
X84756D01*
Y46449D01*
X85301D01*
Y47651D01*
D02*
G37*
G36*
X97251Y47601D02*
X96149D01*
Y46399D01*
X96444D01*
Y45551D01*
X96199D01*
Y44349D01*
X97801D01*
Y45551D01*
X96956D01*
Y46399D01*
X97251D01*
Y47601D01*
D02*
G37*
G36*
X92801Y47651D02*
X91199D01*
Y46449D01*
X91744D01*
Y45551D01*
X91199D01*
Y44349D01*
X92801D01*
Y44694D01*
X93699D01*
Y44349D01*
X95301D01*
Y45551D01*
X95056D01*
Y46399D01*
X95351D01*
Y47601D01*
X94249D01*
Y46399D01*
X94544D01*
Y45551D01*
X93699D01*
Y45206D01*
X92801D01*
Y45551D01*
X92256D01*
Y46449D01*
X92801D01*
Y47651D01*
D02*
G37*
G36*
X89751Y47601D02*
X88649D01*
Y46399D01*
X88944D01*
Y45551D01*
X88699D01*
Y44349D01*
X90301D01*
Y45551D01*
X89456D01*
Y46399D01*
X89751D01*
Y47601D01*
D02*
G37*
G36*
X121551Y45801D02*
X120349D01*
Y44199D01*
X121551D01*
Y44438D01*
X121709Y44544D01*
X121891D01*
X122058Y44613D01*
X122187Y44742D01*
X122256Y44909D01*
Y45091D01*
X122187Y45258D01*
X122058Y45387D01*
X121891Y45456D01*
X121709D01*
X121551Y45562D01*
Y45801D01*
D02*
G37*
G36*
X103651Y47801D02*
X102449D01*
Y47028D01*
X102341Y46956D01*
X102159D01*
X101992Y46887D01*
X101863Y46758D01*
X101794Y46591D01*
Y46409D01*
X101863Y46242D01*
X101961Y46144D01*
X101978Y46000D01*
X101961Y45856D01*
X101863Y45758D01*
X101794Y45591D01*
Y45409D01*
X101863Y45242D01*
X101992Y45113D01*
X102159Y45044D01*
X102341D01*
X102449Y44972D01*
Y44199D01*
X103651D01*
Y45801D01*
X102780D01*
X102750Y45807D01*
X102678D01*
X102547Y46000D01*
X102678Y46193D01*
X102750D01*
X102780Y46199D01*
X103651D01*
Y47801D01*
D02*
G37*
G36*
X81051Y49666D02*
X76949D01*
Y47334D01*
X77794D01*
Y45551D01*
X77449D01*
Y45278D01*
X77341Y45206D01*
X77159D01*
X76992Y45137D01*
X76863Y45008D01*
X76794Y44841D01*
Y44659D01*
X76863Y44492D01*
X76992Y44363D01*
X77159Y44294D01*
X77341D01*
X77449Y44222D01*
Y43949D01*
X78651D01*
Y45551D01*
X78306D01*
Y47334D01*
X81051D01*
Y49666D01*
D02*
G37*
G36*
X107651Y43801D02*
X106449D01*
Y43549D01*
X106383Y43493D01*
X106199Y43411D01*
X106091Y43456D01*
X105909D01*
X105742Y43387D01*
X105613Y43258D01*
X105544Y43091D01*
Y42909D01*
X105613Y42742D01*
X105742Y42613D01*
X105909Y42544D01*
X106091D01*
X106199Y42589D01*
X106383Y42507D01*
X106449Y42451D01*
Y42199D01*
X107651D01*
Y43801D01*
D02*
G37*
G36*
X92850Y43700D02*
X92100D01*
Y43150D01*
X92850D01*
Y43700D01*
D02*
G37*
G36*
X91900D02*
X91150D01*
Y43150D01*
X91900D01*
Y43700D01*
D02*
G37*
G36*
X90350D02*
X89600D01*
Y43150D01*
X90350D01*
Y43700D01*
D02*
G37*
G36*
X85350D02*
X84600D01*
Y43150D01*
X85350D01*
Y43700D01*
D02*
G37*
G36*
X89400D02*
X88650D01*
Y43150D01*
X89400D01*
Y43700D01*
D02*
G37*
G36*
X84400D02*
X83650D01*
Y43150D01*
X84400D01*
Y43700D01*
D02*
G37*
G36*
X97850D02*
X97100D01*
Y43150D01*
X97850D01*
Y43700D01*
D02*
G37*
G36*
X96900D02*
X96150D01*
Y43150D01*
X96900D01*
Y43700D01*
D02*
G37*
G36*
X122950Y43850D02*
X122400D01*
Y43100D01*
X122950D01*
Y43850D01*
D02*
G37*
G36*
X97850Y42950D02*
X97100D01*
Y42400D01*
X97850D01*
Y42950D01*
D02*
G37*
G36*
X96900D02*
X96150D01*
Y42400D01*
X96900D01*
Y42950D01*
D02*
G37*
G36*
X92850Y42950D02*
X92100D01*
Y42400D01*
X92850D01*
Y42950D01*
D02*
G37*
G36*
X91900D02*
X91150D01*
Y42400D01*
X91900D01*
Y42950D01*
D02*
G37*
G36*
X90350Y42950D02*
X89600D01*
Y42400D01*
X90350D01*
Y42950D01*
D02*
G37*
G36*
X89400D02*
X88650D01*
Y42400D01*
X89400D01*
Y42950D01*
D02*
G37*
G36*
X85350D02*
X84600D01*
Y42400D01*
X85350D01*
Y42950D01*
D02*
G37*
G36*
X84400D02*
X83650D01*
Y42400D01*
X84400D01*
Y42950D01*
D02*
G37*
G36*
X95301Y43651D02*
X93699D01*
Y42449D01*
X93951D01*
X94007Y42383D01*
X94089Y42199D01*
X94044Y42091D01*
Y41909D01*
X94113Y41742D01*
X94242Y41613D01*
X94409Y41544D01*
X94591D01*
X94758Y41613D01*
X94887Y41742D01*
X94956Y41909D01*
Y42091D01*
X94911Y42199D01*
X94993Y42383D01*
X95049Y42449D01*
X95301D01*
Y43651D01*
D02*
G37*
G36*
X78700Y42100D02*
X78050D01*
Y41350D01*
X78700D01*
Y42100D01*
D02*
G37*
G36*
X77850D02*
X77200D01*
Y41350D01*
X77850D01*
Y42100D01*
D02*
G37*
G36*
X66800D02*
X66150D01*
Y41350D01*
X66800D01*
Y42100D01*
D02*
G37*
G36*
X65950D02*
X65300D01*
Y41350D01*
X65950D01*
Y42100D01*
D02*
G37*
G36*
X56600Y41850D02*
X56050D01*
Y41100D01*
X56600D01*
Y41850D01*
D02*
G37*
G36*
X55850D02*
X55300D01*
Y41100D01*
X55850D01*
Y41850D01*
D02*
G37*
G36*
X80551Y45551D02*
X79349D01*
Y43949D01*
X79494D01*
Y42051D01*
X79349D01*
Y40449D01*
X80751D01*
Y42051D01*
X80006D01*
Y43949D01*
X80551D01*
Y45551D01*
D02*
G37*
G36*
X64651D02*
X63449D01*
Y43949D01*
X63994D01*
Y42051D01*
X63249D01*
Y40449D01*
X64651D01*
Y42051D01*
X64506D01*
Y43949D01*
X64651D01*
Y45551D01*
D02*
G37*
G36*
X78700Y41150D02*
X78050D01*
Y40400D01*
X78700D01*
Y41150D01*
D02*
G37*
G36*
X77850D02*
X77200D01*
Y40400D01*
X77850D01*
Y41150D01*
D02*
G37*
G36*
X66800Y41150D02*
X66150D01*
Y40400D01*
X66800D01*
Y41150D01*
D02*
G37*
G36*
X65950D02*
X65300D01*
Y40400D01*
X65950D01*
Y41150D01*
D02*
G37*
G36*
X56600Y40900D02*
X56050D01*
Y40150D01*
X56600D01*
Y40900D01*
D02*
G37*
G36*
X55850D02*
X55300D01*
Y40150D01*
X55850D01*
Y40900D01*
D02*
G37*
G36*
X87801Y43651D02*
X86199D01*
Y42449D01*
X86744D01*
Y41250D01*
X86744Y41250D01*
X86764Y41152D01*
X86819Y41069D01*
X87569Y40319D01*
X87569Y40319D01*
X87652Y40264D01*
X87750Y40244D01*
X87750Y40244D01*
X89362D01*
X89363Y40242D01*
X89492Y40113D01*
X89659Y40044D01*
X89841D01*
X90008Y40113D01*
X90137Y40242D01*
X90206Y40409D01*
Y40591D01*
X90137Y40758D01*
X90008Y40887D01*
X89841Y40956D01*
X89659D01*
X89492Y40887D01*
X89363Y40758D01*
X89362Y40756D01*
X87856D01*
X87256Y41356D01*
Y42449D01*
X87801D01*
Y43651D01*
D02*
G37*
G36*
X43853Y37976D02*
X43667D01*
X43487Y37928D01*
X43326Y37835D01*
X43195Y37703D01*
X43102Y37543D01*
X43054Y37363D01*
Y37177D01*
X43102Y36998D01*
X43195Y36837D01*
X43326Y36705D01*
X43487Y36612D01*
X43667Y36564D01*
X43853D01*
X44033Y36612D01*
X44193Y36705D01*
X44325Y36837D01*
X44418Y36998D01*
X44466Y37177D01*
Y37363D01*
X44418Y37543D01*
X44325Y37703D01*
X44193Y37835D01*
X44033Y37928D01*
X43853Y37976D01*
D02*
G37*
G36*
X73862Y35000D02*
X73830D01*
Y34100D01*
X74730D01*
Y34132D01*
X74662Y34386D01*
X74530Y34614D01*
X74344Y34800D01*
X74116Y34932D01*
X73862Y35000D01*
D02*
G37*
G36*
X73630D02*
X73598D01*
X73344Y34932D01*
X73116Y34800D01*
X72930Y34614D01*
X72798Y34386D01*
X72730Y34132D01*
Y34100D01*
X73630D01*
Y35000D01*
D02*
G37*
G36*
X81475Y34951D02*
X81225D01*
X80983Y34886D01*
X80766Y34761D01*
X80589Y34584D01*
X80464Y34367D01*
X80399Y34125D01*
Y33875D01*
X80464Y33633D01*
X80589Y33416D01*
X80766Y33239D01*
X80983Y33114D01*
X81225Y33049D01*
X81475D01*
X81717Y33114D01*
X81934Y33239D01*
X82111Y33416D01*
X82236Y33633D01*
X82301Y33875D01*
Y34125D01*
X82236Y34367D01*
X82111Y34584D01*
X81934Y34761D01*
X81717Y34886D01*
X81475Y34951D01*
D02*
G37*
G36*
X78935D02*
X78685D01*
X78443Y34886D01*
X78226Y34761D01*
X78049Y34584D01*
X77924Y34367D01*
X77859Y34125D01*
Y33875D01*
X77924Y33633D01*
X78049Y33416D01*
X78226Y33239D01*
X78443Y33114D01*
X78685Y33049D01*
X78935D01*
X79177Y33114D01*
X79394Y33239D01*
X79571Y33416D01*
X79696Y33633D01*
X79761Y33875D01*
Y34125D01*
X79696Y34367D01*
X79571Y34584D01*
X79394Y34761D01*
X79177Y34886D01*
X78935Y34951D01*
D02*
G37*
G36*
X76395D02*
X76145D01*
X75903Y34886D01*
X75686Y34761D01*
X75509Y34584D01*
X75384Y34367D01*
X75319Y34125D01*
Y33875D01*
X75384Y33633D01*
X75509Y33416D01*
X75686Y33239D01*
X75903Y33114D01*
X76145Y33049D01*
X76395D01*
X76637Y33114D01*
X76854Y33239D01*
X77031Y33416D01*
X77156Y33633D01*
X77221Y33875D01*
Y34125D01*
X77156Y34367D01*
X77031Y34584D01*
X76854Y34761D01*
X76637Y34886D01*
X76395Y34951D01*
D02*
G37*
G36*
X69050Y34962D02*
X68250D01*
X68035Y34919D01*
X67853Y34797D01*
X67731Y34615D01*
X67688Y34400D01*
Y33600D01*
X67731Y33385D01*
X67853Y33203D01*
X68035Y33081D01*
X68250Y33038D01*
X69050D01*
X69265Y33081D01*
X69447Y33203D01*
X69569Y33385D01*
X69612Y33600D01*
Y34400D01*
X69569Y34615D01*
X69447Y34797D01*
X69265Y34919D01*
X69050Y34962D01*
D02*
G37*
G36*
X74730Y33900D02*
X73830D01*
Y33000D01*
X73862D01*
X74116Y33068D01*
X74344Y33200D01*
X74530Y33386D01*
X74662Y33614D01*
X74730Y33868D01*
Y33900D01*
D02*
G37*
G36*
X73630D02*
X72730D01*
Y33868D01*
X72798Y33614D01*
X72930Y33386D01*
X73116Y33200D01*
X73344Y33068D01*
X73598Y33000D01*
X73630D01*
Y33900D01*
D02*
G37*
G36*
X32400Y30850D02*
X31850D01*
Y30350D01*
X32400D01*
Y30850D01*
D02*
G37*
G36*
X37051Y30801D02*
X35849D01*
Y29199D01*
X37051D01*
Y29451D01*
X37117Y29507D01*
X37301Y29589D01*
X37409Y29544D01*
X37591D01*
X37758Y29613D01*
X37887Y29742D01*
X37956Y29909D01*
Y30091D01*
X37887Y30258D01*
X37758Y30387D01*
X37591Y30456D01*
X37409D01*
X37301Y30411D01*
X37117Y30493D01*
X37051Y30549D01*
Y30801D01*
D02*
G37*
G36*
X34105Y30850D02*
X33700D01*
Y30445D01*
X33700D01*
X33949Y30277D01*
Y29199D01*
X34294D01*
Y28801D01*
X33949D01*
Y28273D01*
X33699Y28263D01*
X33101Y28861D01*
Y29601D01*
X31899D01*
Y28499D01*
X32739D01*
X33419Y27819D01*
X33419Y27819D01*
X33502Y27764D01*
X33600Y27744D01*
X33949D01*
Y27199D01*
X35151D01*
Y28801D01*
X34806D01*
Y29199D01*
X35151D01*
Y30801D01*
X34137D01*
X34105Y30850D01*
Y30850D01*
D02*
G37*
G36*
X37100Y28850D02*
X36550D01*
Y28100D01*
X37100D01*
Y28850D01*
D02*
G37*
G36*
X36350D02*
X35800D01*
Y28100D01*
X36350D01*
Y28850D01*
D02*
G37*
G36*
X37100Y27900D02*
X36550D01*
Y27150D01*
X37100D01*
Y27900D01*
D02*
G37*
G36*
X36350D02*
X35800D01*
Y27150D01*
X36350D01*
Y27900D01*
D02*
G37*
G36*
X133250Y26690D02*
X133000Y26690D01*
X132800D01*
Y26140D01*
X132600D01*
Y26690D01*
X132150Y26690D01*
X131900Y26690D01*
X131700D01*
Y26140D01*
X131600D01*
Y26040D01*
X131050D01*
Y25840D01*
X131050Y25590D01*
X131050Y25340D01*
Y25140D01*
X131600D01*
Y24940D01*
X131050D01*
X131050Y24490D01*
X131050Y24240D01*
Y24040D01*
X131600D01*
Y23940D01*
X131700D01*
Y23390D01*
X131900D01*
X132150Y23390D01*
X132400Y23390D01*
X132600D01*
Y23940D01*
X132800D01*
Y23390D01*
X133250Y23390D01*
X133500Y23390D01*
X133700D01*
Y23940D01*
X133800D01*
Y24040D01*
X134350D01*
Y24240D01*
X134350Y24490D01*
X134350Y24740D01*
Y24940D01*
X133800D01*
Y25140D01*
X134350D01*
X134350Y25590D01*
X134350Y25840D01*
Y26040D01*
X133800D01*
Y26140D01*
X133700D01*
Y26690D01*
X133250D01*
D02*
G37*
G36*
X36350Y26850D02*
X35800D01*
Y26640D01*
X35591Y26456D01*
X35409D01*
X35401Y26453D01*
X35151Y26591D01*
Y26801D01*
X33949D01*
Y25777D01*
X31711Y23539D01*
X31622Y23406D01*
X31600Y23295D01*
X31489Y23273D01*
X31332Y23168D01*
X31227Y23011D01*
X31190Y22825D01*
Y22175D01*
X31227Y21989D01*
X31332Y21832D01*
X31489Y21727D01*
X31675Y21690D01*
X32325D01*
X32511Y21727D01*
X32668Y21832D01*
X32773Y21989D01*
X32810Y22175D01*
Y22825D01*
X32773Y23011D01*
X32668Y23168D01*
X32653Y23325D01*
X34527Y25199D01*
X35151D01*
Y25409D01*
X35401Y25547D01*
X35409Y25544D01*
X35591D01*
X35800Y25360D01*
Y25150D01*
X36350D01*
Y26000D01*
Y26850D01*
D02*
G37*
G36*
X133900Y26690D02*
Y26240D01*
X134350D01*
Y26690D01*
X133900D01*
D02*
G37*
G36*
X131500D02*
X131050D01*
Y26240D01*
X131500D01*
Y26690D01*
D02*
G37*
G36*
X50645Y32951D02*
X50395D01*
X50153Y32886D01*
X49936Y32761D01*
X49759Y32584D01*
X49634Y32367D01*
X49569Y32125D01*
Y31875D01*
X49634Y31633D01*
X49759Y31416D01*
X49936Y31239D01*
X50153Y31114D01*
X50235Y31092D01*
Y27007D01*
X50232Y27006D01*
X50104Y26877D01*
X50035Y26710D01*
Y26528D01*
X50104Y26361D01*
X50232Y26232D01*
X50400Y26163D01*
X50581D01*
X50749Y26232D01*
X50877Y26361D01*
X50947Y26528D01*
Y26710D01*
X50877Y26877D01*
X50749Y27006D01*
X50747Y27007D01*
Y31076D01*
X50887Y31114D01*
X51104Y31239D01*
X51281Y31416D01*
X51406Y31633D01*
X51471Y31875D01*
Y32125D01*
X51406Y32367D01*
X51281Y32584D01*
X51104Y32761D01*
X50887Y32886D01*
X50645Y32951D01*
D02*
G37*
G36*
X37100Y26850D02*
X36550D01*
Y26100D01*
X37100D01*
Y26850D01*
D02*
G37*
G36*
X48380Y32962D02*
X47580D01*
X47365Y32919D01*
X47183Y32797D01*
X47061Y32615D01*
X47018Y32400D01*
Y31600D01*
X47061Y31385D01*
X47183Y31203D01*
X47365Y31081D01*
X47580Y31038D01*
X47744D01*
Y26388D01*
X47742Y26387D01*
X47613Y26258D01*
X47544Y26091D01*
Y25909D01*
X47613Y25742D01*
X47742Y25613D01*
X47909Y25544D01*
X48091D01*
X48258Y25613D01*
X48387Y25742D01*
X48456Y25909D01*
Y26091D01*
X48387Y26258D01*
X48258Y26387D01*
X48256Y26388D01*
Y31038D01*
X48380D01*
X48595Y31081D01*
X48777Y31203D01*
X48899Y31385D01*
X48942Y31600D01*
Y32400D01*
X48899Y32615D01*
X48777Y32797D01*
X48595Y32919D01*
X48380Y32962D01*
D02*
G37*
G36*
X37100Y25900D02*
X36550D01*
Y25150D01*
X37100D01*
Y25900D01*
D02*
G37*
G36*
X134350Y23840D02*
X133900D01*
Y23390D01*
X134350D01*
Y23840D01*
D02*
G37*
G36*
X131500Y23840D02*
X131050D01*
Y23390D01*
X131500D01*
Y23840D01*
D02*
G37*
G36*
X49100Y23557D02*
Y23152D01*
X49505D01*
Y23152D01*
X49428Y23338D01*
X49286Y23480D01*
X49100Y23557D01*
X49100D01*
D02*
G37*
G36*
X47020Y23908D02*
X45900D01*
X45771Y23883D01*
X45662Y23810D01*
X45589Y23701D01*
X45564Y23572D01*
Y23152D01*
X47020D01*
Y23908D01*
D02*
G37*
G36*
X70900Y23510D02*
X70900D01*
X70714Y23433D01*
X70572Y23291D01*
X70495Y23105D01*
Y23105D01*
X70900D01*
Y23510D01*
D02*
G37*
G36*
X76867Y23369D02*
X76117D01*
Y22819D01*
X76867D01*
Y23369D01*
D02*
G37*
G36*
X75917D02*
X75167D01*
Y22819D01*
X75917D01*
Y23369D01*
D02*
G37*
G36*
X38112Y23350D02*
X38100D01*
Y22600D01*
X38850D01*
Y22612D01*
X38792Y22828D01*
X38680Y23022D01*
X38522Y23180D01*
X38328Y23292D01*
X38112Y23350D01*
D02*
G37*
G36*
X37900D02*
X37888D01*
X37672Y23292D01*
X37478Y23180D01*
X37320Y23022D01*
X37208Y22828D01*
X37150Y22612D01*
Y22600D01*
X37900D01*
Y23350D01*
D02*
G37*
G36*
X49505Y22952D02*
X49100D01*
Y22547D01*
X49100D01*
X49286Y22624D01*
X49428Y22766D01*
X49505Y22952D01*
Y22952D01*
D02*
G37*
G36*
X70900Y22905D02*
X70495D01*
Y22905D01*
X70572Y22719D01*
X70714Y22577D01*
X70900Y22500D01*
X70900D01*
Y22905D01*
D02*
G37*
G36*
X74436Y22952D02*
X72980D01*
Y22195D01*
X74100D01*
X74229Y22221D01*
X74338Y22294D01*
X74411Y22403D01*
X74436Y22532D01*
Y22952D01*
D02*
G37*
G36*
X72206Y25554D02*
X71982D01*
X71766Y25496D01*
X71572Y25384D01*
X71413Y25225D01*
X71301Y25031D01*
X71243Y24815D01*
Y24591D01*
X71301Y24374D01*
X71413Y24180D01*
X71473Y24121D01*
X71481Y24085D01*
X71446Y23833D01*
X71436Y23819D01*
X71422Y23810D01*
X71349Y23701D01*
X71345Y23679D01*
X71100Y23510D01*
X71100D01*
Y23005D01*
Y22500D01*
X71100D01*
X71349Y22403D01*
X71422Y22294D01*
X71531Y22221D01*
X71660Y22195D01*
X72780D01*
Y23052D01*
X72880D01*
Y23152D01*
X74436D01*
Y23572D01*
X74411Y23701D01*
X74338Y23810D01*
X74229Y23883D01*
X74100Y23908D01*
X72857D01*
X72753Y24158D01*
X72775Y24180D01*
X72887Y24374D01*
X72945Y24591D01*
Y24815D01*
X72887Y25031D01*
X72775Y25225D01*
X72617Y25384D01*
X72423Y25496D01*
X72206Y25554D01*
D02*
G37*
G36*
X49006D02*
X48782D01*
X48566Y25496D01*
X48372Y25384D01*
X48213Y25225D01*
X48101Y25031D01*
X48043Y24815D01*
Y24591D01*
X48101Y24374D01*
X48213Y24180D01*
X48235Y24158D01*
X48132Y23908D01*
X47220D01*
Y23052D01*
Y22195D01*
X48340D01*
X48469Y22221D01*
X48578Y22294D01*
X48651Y22403D01*
X48900Y22547D01*
X48900D01*
Y23052D01*
Y23564D01*
X48893Y23571D01*
X48877Y23607D01*
X48960Y23793D01*
X49006Y23852D01*
X49223Y23910D01*
X49417Y24022D01*
X49575Y24180D01*
X49687Y24374D01*
X49745Y24591D01*
Y24815D01*
X49687Y25031D01*
X49575Y25225D01*
X49417Y25384D01*
X49223Y25496D01*
X49006Y25554D01*
D02*
G37*
G36*
X47020Y22952D02*
X45564D01*
Y22532D01*
X45589Y22403D01*
X45662Y22294D01*
X45771Y22221D01*
X45900Y22195D01*
X47020D01*
Y22952D01*
D02*
G37*
G36*
X76867Y22619D02*
X76117D01*
Y22069D01*
X76867D01*
Y22619D01*
D02*
G37*
G36*
X75917D02*
X75167D01*
Y22069D01*
X75917D01*
Y22619D01*
D02*
G37*
G36*
X36105Y23301D02*
X35895D01*
X35691Y23246D01*
X35508Y23141D01*
X35359Y22992D01*
X35254Y22809D01*
X35199Y22605D01*
Y22395D01*
X35254Y22191D01*
X35359Y22008D01*
X35508Y21859D01*
X35691Y21754D01*
X35895Y21699D01*
X36105D01*
X36309Y21754D01*
X36492Y21859D01*
X36641Y22008D01*
X36746Y22191D01*
X36801Y22395D01*
Y22605D01*
X36746Y22809D01*
X36641Y22992D01*
X36492Y23141D01*
X36309Y23246D01*
X36105Y23301D01*
D02*
G37*
G36*
X34105D02*
X33895D01*
X33691Y23246D01*
X33508Y23141D01*
X33359Y22992D01*
X33254Y22809D01*
X33199Y22605D01*
Y22395D01*
X33254Y22191D01*
X33359Y22008D01*
X33508Y21859D01*
X33691Y21754D01*
X33895Y21699D01*
X34105D01*
X34309Y21754D01*
X34492Y21859D01*
X34641Y22008D01*
X34746Y22191D01*
X34801Y22395D01*
Y22605D01*
X34746Y22809D01*
X34641Y22992D01*
X34492Y23141D01*
X34309Y23246D01*
X34105Y23301D01*
D02*
G37*
G36*
X38850Y22400D02*
X38100D01*
Y21650D01*
X38112D01*
X38328Y21708D01*
X38522Y21820D01*
X38680Y21978D01*
X38792Y22172D01*
X38850Y22388D01*
Y22400D01*
D02*
G37*
G36*
X37900D02*
X37150D01*
Y22388D01*
X37208Y22172D01*
X37320Y21978D01*
X37478Y21820D01*
X37672Y21708D01*
X37888Y21650D01*
X37900D01*
Y22400D01*
D02*
G37*
G36*
X63301Y30151D02*
X61699D01*
Y28949D01*
X62176D01*
Y22388D01*
X62174Y22387D01*
X62045Y22258D01*
X61976Y22091D01*
Y21909D01*
X62045Y21742D01*
X62174Y21613D01*
X62341Y21544D01*
X62523D01*
X62690Y21613D01*
X62819Y21742D01*
X62888Y21909D01*
Y22091D01*
X62819Y22258D01*
X62690Y22387D01*
X62688Y22388D01*
Y28949D01*
X63301D01*
Y30151D01*
D02*
G37*
G36*
X65801Y30151D02*
X64199D01*
Y28949D01*
X64744D01*
Y21638D01*
X64742Y21637D01*
X64613Y21508D01*
X64544Y21341D01*
Y21159D01*
X64613Y20992D01*
X64742Y20863D01*
X64909Y20794D01*
X65091D01*
X65258Y20863D01*
X65387Y20992D01*
X65456Y21159D01*
Y21341D01*
X65387Y21508D01*
X65258Y21637D01*
X65256Y21638D01*
Y28949D01*
X65801D01*
Y30151D01*
D02*
G37*
G36*
X117000Y20950D02*
X115750D01*
Y20100D01*
X117000D01*
Y20950D01*
D02*
G37*
G36*
X115550D02*
X114300D01*
Y20100D01*
X115550D01*
Y20950D01*
D02*
G37*
G36*
X105000D02*
X103750D01*
Y20100D01*
X105000D01*
Y20950D01*
D02*
G37*
G36*
X103550D02*
X102300D01*
Y20100D01*
X103550D01*
Y20950D01*
D02*
G37*
G36*
X48340Y21318D02*
X45900D01*
X45790Y21296D01*
X45697Y21234D01*
X45635Y21141D01*
X45613Y21032D01*
Y19992D01*
X45635Y19882D01*
X45697Y19789D01*
X45790Y19727D01*
X45900Y19705D01*
X48340D01*
X48450Y19727D01*
X48543Y19789D01*
X48605Y19882D01*
X48626Y19992D01*
Y21032D01*
X48605Y21141D01*
X48543Y21234D01*
X48450Y21296D01*
X48340Y21318D01*
D02*
G37*
G36*
X123651Y20901D02*
X121049D01*
Y19099D01*
X123651D01*
Y19684D01*
X123901Y19704D01*
X123992Y19613D01*
X124159Y19544D01*
X124341D01*
X124508Y19613D01*
X124637Y19742D01*
X124706Y19909D01*
Y20091D01*
X124637Y20258D01*
X124508Y20387D01*
X124341Y20456D01*
X124159D01*
X123992Y20387D01*
X123901Y20296D01*
X123651Y20316D01*
Y20901D01*
D02*
G37*
G36*
X111651D02*
X109049D01*
Y19099D01*
X110094D01*
Y15956D01*
X108819Y14681D01*
X108764Y14598D01*
X108754Y14551D01*
X108199D01*
Y14206D01*
X107801D01*
Y14551D01*
X106199D01*
Y14206D01*
X105801D01*
Y14551D01*
X104199D01*
Y13349D01*
X105801D01*
Y13694D01*
X106199D01*
Y13349D01*
X107801D01*
Y13694D01*
X108199D01*
Y13349D01*
X109801D01*
Y14551D01*
X109740D01*
X109644Y14782D01*
X110531Y15669D01*
X110531Y15669D01*
X110586Y15752D01*
X110606Y15850D01*
X110606Y15850D01*
Y19099D01*
X111651D01*
Y19627D01*
X111723Y19666D01*
X111901Y19704D01*
X111992Y19613D01*
X112159Y19544D01*
X112341D01*
X112508Y19613D01*
X112637Y19742D01*
X112706Y19909D01*
Y20091D01*
X112637Y20258D01*
X112508Y20387D01*
X112341Y20456D01*
X112159D01*
X111992Y20387D01*
X111901Y20296D01*
X111723Y20334D01*
X111651Y20373D01*
Y20901D01*
D02*
G37*
G36*
X117000Y19900D02*
X115750D01*
Y19050D01*
X117000D01*
Y19900D01*
D02*
G37*
G36*
X115550D02*
X114300D01*
Y19050D01*
X115550D01*
Y19900D01*
D02*
G37*
G36*
X105000D02*
X103750D01*
Y19050D01*
X105000D01*
Y19900D01*
D02*
G37*
G36*
X103550D02*
X102300D01*
Y19050D01*
X103550D01*
Y19900D01*
D02*
G37*
G36*
X97100Y18850D02*
X96550D01*
Y18100D01*
X97100D01*
Y18850D01*
D02*
G37*
G36*
X96350D02*
X95800D01*
Y18100D01*
X96350D01*
Y18850D01*
D02*
G37*
G36*
X91200D02*
X90650D01*
Y18100D01*
X91200D01*
Y18850D01*
D02*
G37*
G36*
X90450D02*
X89900D01*
Y18100D01*
X90450D01*
Y18850D01*
D02*
G37*
G36*
X48340Y18778D02*
X45900D01*
X45790Y18757D01*
X45697Y18694D01*
X45635Y18601D01*
X45613Y18492D01*
Y17527D01*
X42621Y14534D01*
X42584Y14571D01*
X42367Y14696D01*
X42125Y14761D01*
X41875D01*
X41633Y14696D01*
X41416Y14571D01*
X41239Y14394D01*
X41114Y14177D01*
X41049Y13935D01*
Y13685D01*
X41114Y13443D01*
X41239Y13226D01*
X41416Y13049D01*
X41633Y12924D01*
X41875Y12859D01*
X42125D01*
X42367Y12924D01*
X42584Y13049D01*
X42761Y13226D01*
X42886Y13443D01*
X42951Y13685D01*
Y13935D01*
X42908Y14097D01*
X45975Y17165D01*
X48340D01*
X48450Y17187D01*
X48543Y17249D01*
X48605Y17342D01*
X48614Y17387D01*
X48779Y17499D01*
X48876Y17530D01*
X48909Y17516D01*
X49091D01*
X49258Y17585D01*
X49387Y17714D01*
X49456Y17881D01*
Y18063D01*
X49387Y18230D01*
X49258Y18359D01*
X49091Y18428D01*
X48909D01*
X48876Y18414D01*
X48780Y18444D01*
X48614Y18557D01*
X48605Y18601D01*
X48543Y18694D01*
X48450Y18757D01*
X48340Y18778D01*
D02*
G37*
G36*
X97100Y17900D02*
X96550D01*
Y17150D01*
X97100D01*
Y17900D01*
D02*
G37*
G36*
X96350D02*
X95800D01*
Y17150D01*
X96350D01*
Y17900D01*
D02*
G37*
G36*
X91200D02*
X90650D01*
Y17150D01*
X91200D01*
Y17900D01*
D02*
G37*
G36*
X90450D02*
X89900D01*
Y17150D01*
X90450D01*
Y17900D01*
D02*
G37*
G36*
X136501Y18151D02*
X135299D01*
Y16959D01*
X135251Y16927D01*
X135001Y17060D01*
Y18151D01*
X133799D01*
Y16349D01*
X134538D01*
X134634Y16118D01*
X133323Y14807D01*
X133051D01*
Y15301D01*
X131849D01*
Y13699D01*
X133051D01*
Y14193D01*
X133450D01*
X133567Y14216D01*
X133667Y14283D01*
X135733Y16349D01*
X136501D01*
Y18151D01*
D02*
G37*
G36*
X25100Y17715D02*
X23100D01*
Y16600D01*
X25100D01*
Y17715D01*
D02*
G37*
G36*
X22900D02*
X20900D01*
Y16600D01*
X22900D01*
Y17715D01*
D02*
G37*
G36*
X138001Y18151D02*
X136799D01*
Y16349D01*
X138001D01*
Y18151D01*
D02*
G37*
G36*
X133501D02*
X132299D01*
Y16349D01*
X133501D01*
Y18151D01*
D02*
G37*
G36*
X132001D02*
X130799D01*
Y16349D01*
X132001D01*
Y18151D01*
D02*
G37*
G36*
X127501D02*
X126299D01*
Y16349D01*
X127501D01*
Y18151D01*
D02*
G37*
G36*
X130501D02*
X129299D01*
Y16349D01*
X129331D01*
X129435Y16099D01*
X128941Y15605D01*
X128744Y15692D01*
X128707Y15724D01*
Y16349D01*
X129001D01*
Y18151D01*
X127799D01*
Y16349D01*
X128093D01*
Y15835D01*
X124465Y12207D01*
X123846D01*
X123761Y12354D01*
X123584Y12531D01*
X123367Y12656D01*
X123125Y12721D01*
X122875D01*
X122633Y12656D01*
X122416Y12531D01*
X122239Y12354D01*
X122114Y12137D01*
X122049Y11895D01*
Y11645D01*
X122114Y11403D01*
X122239Y11186D01*
X122416Y11009D01*
X122633Y10884D01*
X122875Y10819D01*
X123125D01*
X123367Y10884D01*
X123584Y11009D01*
X123761Y11186D01*
X123886Y11403D01*
X123937Y11593D01*
X124576D01*
X124608Y11556D01*
X124695Y11359D01*
X123421Y10085D01*
X123367Y10116D01*
X123125Y10181D01*
X122875D01*
X122633Y10116D01*
X122416Y9991D01*
X122239Y9814D01*
X122114Y9597D01*
X122049Y9355D01*
Y9105D01*
X122114Y8863D01*
X122239Y8646D01*
X122416Y8469D01*
X122633Y8344D01*
X122875Y8279D01*
X123125D01*
X123367Y8344D01*
X123584Y8469D01*
X123753Y8638D01*
X123790Y8637D01*
X124003Y8565D01*
Y8127D01*
X123507Y7631D01*
X123400Y7652D01*
X122600D01*
X122385Y7609D01*
X122203Y7487D01*
X122081Y7305D01*
X122065Y7223D01*
X121793Y7141D01*
X120807Y8127D01*
Y8949D01*
X121301D01*
Y10151D01*
X119699D01*
Y10049D01*
X119633Y9993D01*
X119449Y9911D01*
X119341Y9956D01*
X119159D01*
X118992Y9887D01*
X118863Y9758D01*
X118794Y9591D01*
Y9409D01*
X118863Y9242D01*
X118992Y9113D01*
X119159Y9044D01*
X119341D01*
X119449Y9089D01*
X119633Y9007D01*
X119699Y8951D01*
Y8949D01*
X120193D01*
Y8000D01*
X120216Y7883D01*
X120283Y7783D01*
X121593Y6473D01*
X121693Y6406D01*
X121810Y6383D01*
X122038D01*
Y6290D01*
X122081Y6075D01*
X122203Y5893D01*
X122385Y5771D01*
X122600Y5728D01*
X123400D01*
X123615Y5771D01*
X123797Y5893D01*
X123919Y6075D01*
X123962Y6290D01*
Y7090D01*
X123941Y7197D01*
X124527Y7783D01*
X124594Y7883D01*
X124617Y8000D01*
Y9433D01*
X129377Y14193D01*
X129949D01*
Y13699D01*
X131151D01*
Y15301D01*
X129949D01*
Y14807D01*
X129364D01*
X129261Y15057D01*
X130117Y15913D01*
X130184Y16013D01*
X130207Y16130D01*
Y16349D01*
X130501D01*
Y18151D01*
D02*
G37*
G36*
X25100Y16400D02*
X23100D01*
Y15285D01*
X25100D01*
Y16400D01*
D02*
G37*
G36*
X22900D02*
X20900D01*
Y15285D01*
X22900D01*
Y16400D01*
D02*
G37*
G36*
X123132Y15310D02*
X123100D01*
Y14410D01*
X124000D01*
Y14442D01*
X123932Y14696D01*
X123800Y14924D01*
X123614Y15110D01*
X123386Y15242D01*
X123132Y15310D01*
D02*
G37*
G36*
X122900D02*
X122868D01*
X122614Y15242D01*
X122386Y15110D01*
X122200Y14924D01*
X122068Y14696D01*
X122000Y14442D01*
Y14410D01*
X122900D01*
Y15310D01*
D02*
G37*
G36*
X124000Y14210D02*
X123100D01*
Y13310D01*
X123132D01*
X123386Y13378D01*
X123614Y13510D01*
X123800Y13696D01*
X123932Y13924D01*
X124000Y14178D01*
Y14210D01*
D02*
G37*
G36*
X122900D02*
X122000D01*
Y14178D01*
X122068Y13924D01*
X122200Y13696D01*
X122386Y13510D01*
X122614Y13378D01*
X122868Y13310D01*
X122900D01*
Y14210D01*
D02*
G37*
G36*
X115355Y14951D02*
X115105D01*
X114863Y14886D01*
X114646Y14761D01*
X114469Y14584D01*
X114344Y14367D01*
X114279Y14125D01*
Y13875D01*
X114344Y13633D01*
X114469Y13416D01*
X114646Y13239D01*
X114863Y13114D01*
X115105Y13049D01*
X115355D01*
X115597Y13114D01*
X115814Y13239D01*
X115991Y13416D01*
X116116Y13633D01*
X116181Y13875D01*
Y14125D01*
X116116Y14367D01*
X115991Y14584D01*
X115814Y14761D01*
X115597Y14886D01*
X115355Y14951D01*
D02*
G37*
G36*
X118170Y14962D02*
X117370D01*
X117155Y14919D01*
X116973Y14797D01*
X116851Y14615D01*
X116808Y14400D01*
Y13600D01*
X116851Y13385D01*
X116973Y13203D01*
X117155Y13081D01*
X117370Y13038D01*
X118170D01*
X118385Y13081D01*
X118567Y13203D01*
X118689Y13385D01*
X118732Y13600D01*
Y14400D01*
X118689Y14615D01*
X118567Y14797D01*
X118385Y14919D01*
X118170Y14962D01*
D02*
G37*
G36*
X29125Y14761D02*
X28875D01*
X28633Y14696D01*
X28416Y14571D01*
X28239Y14394D01*
X28114Y14177D01*
X28049Y13935D01*
Y13685D01*
X28114Y13443D01*
X28239Y13226D01*
X28416Y13049D01*
X28633Y12924D01*
X28875Y12859D01*
X29125D01*
X29367Y12924D01*
X29584Y13049D01*
X29761Y13226D01*
X29886Y13443D01*
X29951Y13685D01*
Y13935D01*
X29886Y14177D01*
X29761Y14394D01*
X29584Y14571D01*
X29367Y14696D01*
X29125Y14761D01*
D02*
G37*
G36*
X48340Y13698D02*
X45900D01*
X45790Y13677D01*
X45697Y13614D01*
X45635Y13521D01*
X45613Y13412D01*
Y12447D01*
X42621Y9454D01*
X42584Y9491D01*
X42367Y9616D01*
X42125Y9681D01*
X41875D01*
X41633Y9616D01*
X41416Y9491D01*
X41239Y9314D01*
X41114Y9097D01*
X41049Y8855D01*
Y8605D01*
X41114Y8363D01*
X41239Y8146D01*
X41416Y7969D01*
X41633Y7844D01*
X41875Y7779D01*
X42125D01*
X42367Y7844D01*
X42584Y7969D01*
X42761Y8146D01*
X42886Y8363D01*
X42951Y8605D01*
Y8855D01*
X42908Y9017D01*
X45975Y12085D01*
X48340D01*
X48450Y12107D01*
X48543Y12169D01*
X48605Y12262D01*
X48614Y12307D01*
X48779Y12419D01*
X48876Y12450D01*
X48909Y12436D01*
X49091D01*
X49258Y12505D01*
X49387Y12634D01*
X49456Y12801D01*
Y12983D01*
X49387Y13150D01*
X49258Y13279D01*
X49091Y13348D01*
X48909D01*
X48876Y13334D01*
X48780Y13364D01*
X48614Y13477D01*
X48605Y13521D01*
X48543Y13614D01*
X48450Y13677D01*
X48340Y13698D01*
D02*
G37*
G36*
X105801Y12651D02*
X104199D01*
Y12499D01*
X103949Y12396D01*
X103908Y12437D01*
X103741Y12506D01*
X103559D01*
X103392Y12437D01*
X103263Y12308D01*
X103194Y12141D01*
Y11959D01*
X103263Y11792D01*
X103392Y11663D01*
X103559Y11594D01*
X103741D01*
X103908Y11663D01*
X103949Y11704D01*
X104199Y11601D01*
Y11449D01*
X105801D01*
Y12651D01*
D02*
G37*
G36*
X107850Y12700D02*
X107100D01*
Y12150D01*
X107850D01*
Y12700D01*
D02*
G37*
G36*
X106900D02*
X106150D01*
Y12150D01*
X106900D01*
Y12700D01*
D02*
G37*
G36*
X121350Y12100D02*
X120600D01*
Y11550D01*
X121350D01*
Y12100D01*
D02*
G37*
G36*
X120400D02*
X119650D01*
Y11550D01*
X120400D01*
Y12100D01*
D02*
G37*
G36*
X107850Y11950D02*
X107100D01*
Y11400D01*
X107850D01*
Y11950D01*
D02*
G37*
G36*
X106900D02*
X106150D01*
Y11400D01*
X106900D01*
Y11950D01*
D02*
G37*
G36*
X48340Y16238D02*
X45900D01*
X45790Y16216D01*
X45697Y16154D01*
X45635Y16061D01*
X45613Y15952D01*
Y14987D01*
X42621Y11994D01*
X42584Y12031D01*
X42367Y12156D01*
X42125Y12221D01*
X41875D01*
X41633Y12156D01*
X41416Y12031D01*
X41239Y11854D01*
X41114Y11637D01*
X41049Y11395D01*
Y11145D01*
X41114Y10903D01*
X41239Y10686D01*
X41416Y10509D01*
X41633Y10384D01*
X41875Y10319D01*
X42125D01*
X42367Y10384D01*
X42584Y10509D01*
X42761Y10686D01*
X42886Y10903D01*
X42951Y11145D01*
Y11395D01*
X42908Y11557D01*
X45975Y14625D01*
X48340D01*
X48450Y14647D01*
X48543Y14709D01*
X48605Y14802D01*
X48614Y14847D01*
X48779Y14959D01*
X48876Y14990D01*
X48909Y14976D01*
X49091D01*
X49258Y15045D01*
X49322Y15109D01*
X49351Y15138D01*
X49561Y14998D01*
X49556Y14981D01*
X49556Y14981D01*
X49556Y14969D01*
Y14799D01*
X49626Y14632D01*
X49754Y14503D01*
X49756Y14502D01*
Y11470D01*
X49093Y10807D01*
X49091Y10808D01*
X48909D01*
X48876Y10794D01*
X48780Y10824D01*
X48614Y10937D01*
X48605Y10981D01*
X48543Y11074D01*
X48450Y11137D01*
X48340Y11158D01*
X45900D01*
X45790Y11137D01*
X45697Y11074D01*
X45635Y10981D01*
X45613Y10872D01*
Y9907D01*
X42735Y7029D01*
X42615Y7109D01*
X42400Y7152D01*
X41600D01*
X41385Y7109D01*
X41203Y6987D01*
X41081Y6805D01*
X41038Y6590D01*
Y5790D01*
X41081Y5575D01*
X41203Y5393D01*
X41385Y5271D01*
X41600Y5228D01*
X42400D01*
X42615Y5271D01*
X42797Y5393D01*
X42919Y5575D01*
X42962Y5790D01*
Y6532D01*
X44673Y8243D01*
X44852Y8072D01*
X44829Y8015D01*
X44783Y7904D01*
Y7723D01*
X44852Y7555D01*
X44981Y7427D01*
X45148Y7357D01*
X45330D01*
X45363Y7371D01*
X45464Y7340D01*
X45626Y7229D01*
X45635Y7182D01*
X45697Y7089D01*
X45790Y7027D01*
X45900Y7005D01*
X48340D01*
X48450Y7027D01*
X48543Y7089D01*
X48605Y7182D01*
X48614Y7227D01*
X48779Y7339D01*
X48876Y7370D01*
X48909Y7356D01*
X49091D01*
X49258Y7425D01*
X49387Y7554D01*
X49456Y7721D01*
Y7903D01*
X49387Y8070D01*
X49258Y8199D01*
X49091Y8268D01*
X48909D01*
X48876Y8254D01*
X48780Y8284D01*
X48614Y8397D01*
X48605Y8441D01*
X48543Y8534D01*
X48450Y8597D01*
X48340Y8618D01*
X45900D01*
X45790Y8597D01*
X45697Y8534D01*
X45635Y8441D01*
X45627Y8397D01*
X45459Y8285D01*
X45363Y8255D01*
X45330Y8269D01*
X45148D01*
X45038Y8224D01*
X44981Y8200D01*
X44809Y8379D01*
X45975Y9545D01*
X48340D01*
X48450Y9567D01*
X48543Y9629D01*
X48605Y9722D01*
X48614Y9767D01*
X48780Y9879D01*
X48876Y9909D01*
X48909Y9896D01*
X49091D01*
X49258Y9965D01*
X49387Y10094D01*
X49456Y10261D01*
Y10443D01*
X49455Y10445D01*
X50193Y11183D01*
X50193Y11183D01*
X50249Y11266D01*
X50268Y11364D01*
X50268Y11364D01*
Y14502D01*
X50271Y14503D01*
X50399Y14632D01*
X50468Y14799D01*
Y14981D01*
X50399Y15148D01*
X50271Y15276D01*
X50103Y15346D01*
X49922D01*
X49754Y15276D01*
X49690Y15212D01*
X49661Y15184D01*
X49451Y15324D01*
X49456Y15341D01*
X49456Y15341D01*
X49456Y15353D01*
Y15523D01*
X49387Y15690D01*
X49258Y15819D01*
X49091Y15888D01*
X48909D01*
X48876Y15874D01*
X48780Y15904D01*
X48614Y16017D01*
X48605Y16061D01*
X48543Y16154D01*
X48450Y16216D01*
X48340Y16238D01*
D02*
G37*
G36*
X121350Y11350D02*
X120600D01*
Y10800D01*
X121350D01*
Y11350D01*
D02*
G37*
G36*
X120400D02*
X119650D01*
Y10800D01*
X120400D01*
Y11350D01*
D02*
G37*
G36*
X109801Y12651D02*
X108199D01*
Y11449D01*
X108451D01*
X108507Y11383D01*
X108589Y11199D01*
X108544Y11091D01*
Y10909D01*
X108613Y10742D01*
X108742Y10613D01*
X108909Y10544D01*
X109091D01*
X109258Y10613D01*
X109387Y10742D01*
X109456Y10909D01*
Y11091D01*
X109411Y11199D01*
X109493Y11383D01*
X109549Y11449D01*
X109801D01*
Y12651D01*
D02*
G37*
G36*
X29125Y12221D02*
X28875D01*
X28633Y12156D01*
X28416Y12031D01*
X28239Y11854D01*
X28114Y11637D01*
X28049Y11395D01*
Y11145D01*
X28114Y10903D01*
X28239Y10686D01*
X28416Y10509D01*
X28633Y10384D01*
X28875Y10319D01*
X29125D01*
X29367Y10384D01*
X29584Y10509D01*
X29761Y10686D01*
X29886Y10903D01*
X29951Y11145D01*
Y11395D01*
X29886Y11637D01*
X29761Y11854D01*
X29584Y12031D01*
X29367Y12156D01*
X29125Y12221D01*
D02*
G37*
G36*
Y9681D02*
X28875D01*
X28633Y9616D01*
X28416Y9491D01*
X28239Y9314D01*
X28114Y9097D01*
X28049Y8855D01*
Y8605D01*
X28114Y8363D01*
X28239Y8146D01*
X28416Y7969D01*
X28633Y7844D01*
X28875Y7779D01*
X29125D01*
X29367Y7844D01*
X29584Y7969D01*
X29761Y8146D01*
X29886Y8363D01*
X29951Y8605D01*
Y8855D01*
X29886Y9097D01*
X29761Y9314D01*
X29584Y9491D01*
X29367Y9616D01*
X29125Y9681D01*
D02*
G37*
G36*
X92355Y7951D02*
X92105D01*
X91863Y7886D01*
X91646Y7761D01*
X91469Y7584D01*
X91344Y7367D01*
X91279Y7125D01*
Y6875D01*
X91344Y6633D01*
X91469Y6416D01*
X91646Y6239D01*
X91863Y6114D01*
X92105Y6049D01*
X92355D01*
X92597Y6114D01*
X92814Y6239D01*
X92991Y6416D01*
X93116Y6633D01*
X93181Y6875D01*
Y7125D01*
X93116Y7367D01*
X92991Y7584D01*
X92814Y7761D01*
X92597Y7886D01*
X92355Y7951D01*
D02*
G37*
G36*
X74100Y11158D02*
X71660D01*
X71550Y11137D01*
X71457Y11074D01*
X71395Y10981D01*
X71373Y10872D01*
Y9832D01*
X71395Y9722D01*
X71457Y9629D01*
X71550Y9567D01*
X71660Y9545D01*
X74100D01*
X74210Y9567D01*
X74303Y9629D01*
X74365Y9722D01*
X74386Y9832D01*
Y10096D01*
X76302D01*
X76303Y10094D01*
X76432Y9965D01*
X76434Y9964D01*
Y7916D01*
X76323Y7886D01*
X76106Y7761D01*
X75929Y7584D01*
X75804Y7367D01*
X75739Y7125D01*
Y6875D01*
X75804Y6633D01*
X75929Y6416D01*
X76106Y6239D01*
X76323Y6114D01*
X76565Y6049D01*
X76815D01*
X77057Y6114D01*
X77274Y6239D01*
X77451Y6416D01*
X77576Y6633D01*
X77641Y6875D01*
Y7125D01*
X77576Y7367D01*
X77451Y7584D01*
X77274Y7761D01*
X77057Y7886D01*
X76946Y7916D01*
Y9964D01*
X76948Y9965D01*
X77077Y10094D01*
X77146Y10261D01*
Y10443D01*
X77077Y10610D01*
X76948Y10738D01*
X76781Y10808D01*
X76599D01*
X76432Y10738D01*
X76303Y10610D01*
X76302Y10608D01*
X74386D01*
Y10872D01*
X74365Y10981D01*
X74303Y11074D01*
X74210Y11137D01*
X74100Y11158D01*
D02*
G37*
G36*
X95170Y7962D02*
X94370D01*
X94155Y7919D01*
X93973Y7797D01*
X93851Y7615D01*
X93808Y7400D01*
Y6600D01*
X93851Y6385D01*
X93973Y6203D01*
X94155Y6081D01*
X94370Y6038D01*
X95170D01*
X95385Y6081D01*
X95567Y6203D01*
X95689Y6385D01*
X95732Y6600D01*
Y7400D01*
X95689Y7615D01*
X95567Y7797D01*
X95385Y7919D01*
X95170Y7962D01*
D02*
G37*
G36*
X29400Y7152D02*
X28600D01*
X28385Y7109D01*
X28203Y6987D01*
X28081Y6805D01*
X28038Y6590D01*
Y5790D01*
X28081Y5575D01*
X28203Y5393D01*
X28385Y5271D01*
X28600Y5228D01*
X29400D01*
X29615Y5271D01*
X29797Y5393D01*
X29919Y5575D01*
X29962Y5790D01*
Y6590D01*
X29919Y6805D01*
X29797Y6987D01*
X29615Y7109D01*
X29400Y7152D01*
D02*
G37*
G36*
X122950Y57850D02*
X122400D01*
Y57100D01*
X122950D01*
Y57850D01*
D02*
G37*
G36*
Y56900D02*
X122400D01*
Y56150D01*
X122950D01*
Y56900D01*
D02*
G37*
G36*
X65850Y54850D02*
X65300D01*
Y54100D01*
X65850D01*
Y54850D01*
D02*
G37*
G36*
X51950D02*
X51400D01*
Y54641D01*
X51150Y54484D01*
X51100Y54505D01*
X51100D01*
Y54000D01*
Y53495D01*
X51100D01*
X51150Y53516D01*
X51400Y53359D01*
Y53150D01*
X51950D01*
Y54000D01*
Y54850D01*
D02*
G37*
G36*
X49850D02*
X49300D01*
Y54100D01*
X49850D01*
Y54850D01*
D02*
G37*
G36*
X50600D02*
X50050D01*
Y54000D01*
Y53150D01*
X50600D01*
Y53359D01*
X50850Y53516D01*
X50900Y53495D01*
X50900D01*
Y54000D01*
Y54505D01*
X50900D01*
X50850Y54484D01*
X50600Y54641D01*
Y54850D01*
D02*
G37*
G36*
X52700Y53900D02*
X52150D01*
Y53150D01*
X52700D01*
Y53900D01*
D02*
G37*
G36*
X128032Y53140D02*
X128031D01*
X127846Y53063D01*
X127704Y52921D01*
X127627Y52735D01*
Y52735D01*
X128032D01*
Y53140D01*
D02*
G37*
G36*
Y52535D02*
X127627D01*
Y52535D01*
X127704Y52349D01*
X127846Y52207D01*
X128031Y52130D01*
X128032D01*
Y52535D01*
D02*
G37*
G36*
X123075Y52455D02*
X123075D01*
X122889Y52378D01*
X122747Y52236D01*
X122670Y52050D01*
Y52050D01*
X123075D01*
Y52455D01*
D02*
G37*
G36*
Y51850D02*
X122670D01*
Y51850D01*
X122747Y51664D01*
X122889Y51522D01*
X123075Y51445D01*
X123075D01*
Y51850D01*
D02*
G37*
G36*
X135134Y61215D02*
X135050D01*
Y59915D01*
X136350D01*
Y59999D01*
X136255Y60355D01*
X136070Y60675D01*
X135810Y60935D01*
X135490Y61120D01*
X135134Y61215D01*
D02*
G37*
G36*
X134850D02*
X134766D01*
X134410Y61120D01*
X134090Y60935D01*
X133830Y60675D01*
X133645Y60355D01*
X133550Y59999D01*
Y59915D01*
X134850D01*
Y61215D01*
D02*
G37*
G36*
X136350Y59715D02*
X135050D01*
Y58415D01*
X135134D01*
X135490Y58510D01*
X135810Y58695D01*
X136070Y58955D01*
X136255Y59275D01*
X136350Y59631D01*
Y59715D01*
D02*
G37*
G36*
X134850D02*
X133550D01*
Y59631D01*
X133645Y59275D01*
X133830Y58955D01*
X134090Y58695D01*
X134410Y58510D01*
X134766Y58415D01*
X134850D01*
Y59715D01*
D02*
G37*
G36*
X125600Y57850D02*
X125050D01*
Y57100D01*
X125600D01*
Y57850D01*
D02*
G37*
G36*
X124850D02*
X124300D01*
Y57100D01*
X124850D01*
Y57850D01*
D02*
G37*
G36*
X129229Y57349D02*
X129210D01*
Y56545D01*
X130014D01*
Y56564D01*
X129952Y56794D01*
X129833Y57000D01*
X129665Y57168D01*
X129459Y57287D01*
X129229Y57349D01*
D02*
G37*
G36*
X129010D02*
X128991D01*
X128761Y57287D01*
X128555Y57168D01*
X128387Y57000D01*
X128268Y56794D01*
X128206Y56564D01*
Y56545D01*
X129010D01*
Y57349D01*
D02*
G37*
G36*
X125600Y56900D02*
X125050D01*
Y56150D01*
X125600D01*
Y56900D01*
D02*
G37*
G36*
X124850D02*
X124300D01*
Y56150D01*
X124850D01*
Y56900D01*
D02*
G37*
G36*
X138175Y59491D02*
X137825D01*
X137482Y59423D01*
X137159Y59289D01*
X136868Y59095D01*
X136620Y58847D01*
X136426Y58556D01*
X136292Y58233D01*
X136224Y57890D01*
Y57540D01*
X136292Y57197D01*
X136426Y56874D01*
X136620Y56583D01*
X136868Y56335D01*
X137159Y56141D01*
X137482Y56007D01*
X137825Y55939D01*
X138175D01*
X138518Y56007D01*
X138841Y56141D01*
X139132Y56335D01*
X139380Y56583D01*
X139574Y56874D01*
X139708Y57197D01*
X139776Y57540D01*
Y57890D01*
X139708Y58233D01*
X139574Y58556D01*
X139380Y58847D01*
X139132Y59095D01*
X138841Y59289D01*
X138518Y59423D01*
X138175Y59491D01*
D02*
G37*
G36*
X125551Y59801D02*
X124349D01*
Y58199D01*
X125551D01*
Y58744D01*
X131894D01*
X135819Y54819D01*
X135819Y54819D01*
X135902Y54764D01*
X136000Y54744D01*
X136000Y54744D01*
X140970D01*
X140970Y54744D01*
X141068Y54764D01*
X141151Y54819D01*
X141627Y55295D01*
X141711Y55247D01*
X141941Y55185D01*
X142179D01*
X142409Y55247D01*
X142616Y55366D01*
X142784Y55534D01*
X142903Y55741D01*
X142965Y55971D01*
Y56209D01*
X142903Y56439D01*
X142784Y56646D01*
X142616Y56814D01*
X142409Y56933D01*
X142179Y56995D01*
X141941D01*
X141711Y56933D01*
X141504Y56814D01*
X141336Y56646D01*
X141217Y56439D01*
X141155Y56209D01*
Y55971D01*
X141217Y55741D01*
X141265Y55657D01*
X140864Y55256D01*
X136106D01*
X132181Y59181D01*
X132098Y59236D01*
X132000Y59256D01*
X132000Y59256D01*
X125551D01*
Y59801D01*
D02*
G37*
G36*
X140970Y49256D02*
X140970Y49256D01*
X136000D01*
X135902Y49236D01*
X135819Y49181D01*
X135819Y49181D01*
X129894Y43256D01*
X125551D01*
Y43801D01*
X124349D01*
Y42199D01*
X125551D01*
Y42744D01*
X130000D01*
X130000Y42744D01*
X130098Y42764D01*
X130181Y42819D01*
X136106Y48744D01*
X140864D01*
X141265Y48343D01*
X141217Y48259D01*
X141155Y48029D01*
Y47791D01*
X141217Y47561D01*
X141336Y47354D01*
X141504Y47186D01*
X141711Y47067D01*
X141941Y47005D01*
X142179D01*
X142409Y47067D01*
X142616Y47186D01*
X142784Y47354D01*
X142903Y47561D01*
X142965Y47791D01*
Y48029D01*
X142903Y48259D01*
X142784Y48466D01*
X142616Y48634D01*
X142409Y48753D01*
X142179Y48815D01*
X141941D01*
X141711Y48753D01*
X141627Y48705D01*
X141151Y49181D01*
X141068Y49236D01*
X140970Y49256D01*
D02*
G37*
G36*
X138175Y48061D02*
X137825D01*
X137482Y47993D01*
X137159Y47859D01*
X136868Y47665D01*
X136620Y47417D01*
X136426Y47126D01*
X136292Y46803D01*
X136224Y46460D01*
Y46110D01*
X136292Y45767D01*
X136426Y45444D01*
X136620Y45153D01*
X136868Y44905D01*
X137159Y44711D01*
X137482Y44577D01*
X137825Y44509D01*
X138175D01*
X138518Y44577D01*
X138841Y44711D01*
X139132Y44905D01*
X139380Y45153D01*
X139574Y45444D01*
X139708Y45767D01*
X139776Y46110D01*
Y46460D01*
X139708Y46803D01*
X139574Y47126D01*
X139380Y47417D01*
X139132Y47665D01*
X138841Y47859D01*
X138518Y47993D01*
X138175Y48061D01*
D02*
G37*
G36*
X135134Y45585D02*
X135050D01*
Y44285D01*
X136350D01*
Y44369D01*
X136255Y44725D01*
X136070Y45045D01*
X135810Y45305D01*
X135490Y45490D01*
X135134Y45585D01*
D02*
G37*
G36*
X134850D02*
X134766D01*
X134410Y45490D01*
X134090Y45305D01*
X133830Y45045D01*
X133645Y44725D01*
X133550Y44369D01*
Y44285D01*
X134850D01*
Y45585D01*
D02*
G37*
G36*
X136350Y44085D02*
X135050D01*
Y42785D01*
X135134D01*
X135490Y42880D01*
X135810Y43065D01*
X136070Y43325D01*
X136255Y43645D01*
X136350Y44001D01*
Y44085D01*
D02*
G37*
G36*
X134850D02*
X133550D01*
Y44001D01*
X133645Y43645D01*
X133830Y43325D01*
X134090Y43065D01*
X134410Y42880D01*
X134766Y42785D01*
X134850D01*
Y44085D01*
D02*
G37*
G36*
X131505Y39900D02*
X130495D01*
Y39900D01*
X130516Y39850D01*
X130359Y39600D01*
X130150D01*
Y39050D01*
X131000D01*
X131850D01*
Y39600D01*
X131641D01*
X131484Y39850D01*
X131505Y39900D01*
Y39900D01*
D02*
G37*
G36*
X133850Y39600D02*
X133100D01*
Y39050D01*
X133850D01*
Y39600D01*
D02*
G37*
G36*
X132900D02*
X132150D01*
Y39050D01*
X132900D01*
Y39600D01*
D02*
G37*
G36*
X131850Y38850D02*
X131100D01*
Y38300D01*
X131850D01*
Y38850D01*
D02*
G37*
G36*
X130900D02*
X130150D01*
Y38300D01*
X130900D01*
Y38850D01*
D02*
G37*
G36*
X133850Y38850D02*
X133100D01*
Y38300D01*
X133850D01*
Y38850D01*
D02*
G37*
G36*
X132900D02*
X132150D01*
Y38300D01*
X132900D01*
Y38850D01*
D02*
G37*
G36*
X105551Y39801D02*
X104349D01*
Y38199D01*
X104918D01*
X105025Y37967D01*
X104907Y37801D01*
X104349D01*
Y36199D01*
X105551D01*
Y37270D01*
X105557Y37300D01*
Y37549D01*
X115507D01*
X115544Y37512D01*
Y37409D01*
X115613Y37242D01*
X115742Y37113D01*
X115909Y37044D01*
X116091D01*
X116258Y37113D01*
X116387Y37242D01*
X116456Y37409D01*
Y37591D01*
X116387Y37758D01*
X116385Y37760D01*
X116282Y37923D01*
X116385Y38087D01*
X116387Y38088D01*
X116456Y38256D01*
Y38437D01*
X116387Y38605D01*
X116258Y38733D01*
X116091Y38803D01*
X115909D01*
X115742Y38733D01*
X115622Y38613D01*
X105571D01*
X105551Y38633D01*
Y39801D01*
D02*
G37*
G36*
X95100Y36850D02*
X94550D01*
Y36100D01*
X95100D01*
Y36850D01*
D02*
G37*
G36*
X94350D02*
X93800D01*
Y36100D01*
X94350D01*
Y36850D01*
D02*
G37*
G36*
X126800Y35700D02*
X126250D01*
Y34863D01*
X126005Y34850D01*
X125989Y34889D01*
X125928Y35036D01*
X125786Y35178D01*
X125600Y35255D01*
X125600D01*
Y34750D01*
Y34245D01*
X125600D01*
X125786Y34322D01*
X125928Y34464D01*
X125989Y34611D01*
X126005Y34650D01*
X126250Y34637D01*
Y33800D01*
X126800D01*
Y34750D01*
Y35700D01*
D02*
G37*
G36*
X125400Y35255D02*
X125400D01*
X125214Y35178D01*
X125072Y35036D01*
X124995Y34850D01*
Y34850D01*
X125400D01*
Y35255D01*
D02*
G37*
G36*
X105551Y35801D02*
X104349D01*
Y34199D01*
X105551D01*
Y34710D01*
X113993D01*
X113994Y34708D01*
X114122Y34579D01*
X114290Y34510D01*
X114471D01*
X114639Y34579D01*
X114767Y34708D01*
X114837Y34875D01*
Y35057D01*
X114767Y35224D01*
X114639Y35352D01*
X114471Y35422D01*
X114290D01*
X114122Y35352D01*
X113994Y35224D01*
X113993Y35222D01*
X105551D01*
Y35801D01*
D02*
G37*
G36*
X125400Y34650D02*
X124995D01*
Y34650D01*
X125072Y34464D01*
X125214Y34322D01*
X125400Y34245D01*
X125400D01*
Y34650D01*
D02*
G37*
G36*
X105600Y33850D02*
X105050D01*
Y33100D01*
X105600D01*
Y33850D01*
D02*
G37*
G36*
Y32900D02*
X105050D01*
Y32150D01*
X105600D01*
Y32900D01*
D02*
G37*
G36*
X117000Y32950D02*
X115750D01*
Y32100D01*
X117000D01*
Y32950D01*
D02*
G37*
G36*
X115550D02*
X114300D01*
Y32100D01*
X115550D01*
Y32950D01*
D02*
G37*
G36*
X117000Y31900D02*
X115750D01*
Y31050D01*
X117000D01*
Y31900D01*
D02*
G37*
G36*
X115550D02*
X114300D01*
Y31050D01*
X115550D01*
Y31900D01*
D02*
G37*
G36*
X105551Y31801D02*
X104349D01*
Y30199D01*
X105551D01*
Y30719D01*
X106887D01*
X106992Y30613D01*
X107159Y30544D01*
X107341D01*
X107508Y30613D01*
X107637Y30742D01*
X107706Y30909D01*
Y31091D01*
X107637Y31258D01*
X107508Y31387D01*
X107341Y31456D01*
X107159D01*
X106992Y31387D01*
X106887Y31281D01*
X105551D01*
Y31801D01*
D02*
G37*
G36*
X105600Y29850D02*
X105050D01*
Y29100D01*
X105600D01*
Y29850D01*
D02*
G37*
G36*
Y28900D02*
X105050D01*
Y28150D01*
X105600D01*
Y28900D01*
D02*
G37*
G36*
Y27850D02*
X105050D01*
Y27100D01*
X105600D01*
Y27850D01*
D02*
G37*
G36*
X104850D02*
X104300D01*
Y27100D01*
X104850D01*
Y27850D01*
D02*
G37*
G36*
X137600Y40505D02*
X137600D01*
Y40100D01*
X138005D01*
Y40100D01*
X137928Y40286D01*
X137786Y40428D01*
X137600Y40505D01*
D02*
G37*
G36*
X137400D02*
X137400D01*
X137214Y40428D01*
X137072Y40286D01*
X136995Y40100D01*
Y40100D01*
X137400D01*
Y40505D01*
D02*
G37*
G36*
Y39900D02*
X136995D01*
Y39900D01*
X137016Y39850D01*
X136859Y39600D01*
X136600D01*
Y39050D01*
X137350D01*
X137350Y39462D01*
X137400Y39495D01*
X137400D01*
Y39900D01*
D02*
G37*
G36*
X139350Y39600D02*
X138600D01*
Y39050D01*
X139350D01*
Y39600D01*
D02*
G37*
G36*
X138005Y39900D02*
X137600D01*
Y39495D01*
X137600D01*
X137650Y39462D01*
X137650Y39418D01*
Y39050D01*
X138400D01*
Y39600D01*
X138141D01*
X137984Y39850D01*
X138005Y39900D01*
Y39900D01*
D02*
G37*
G36*
X139350Y38850D02*
X138600D01*
Y38300D01*
X139350D01*
Y38850D01*
D02*
G37*
G36*
X138400D02*
X137650D01*
Y38300D01*
X138400D01*
Y38850D01*
D02*
G37*
G36*
X137350Y38850D02*
X136600D01*
Y38300D01*
X137350D01*
Y38850D01*
D02*
G37*
G36*
X86850Y30200D02*
X86100D01*
Y29650D01*
X86850D01*
Y30200D01*
D02*
G37*
G36*
X85900D02*
X85150D01*
Y29650D01*
X85900D01*
Y30200D01*
D02*
G37*
G36*
X86850Y29450D02*
X86000D01*
X85150D01*
Y28900D01*
X85462D01*
X85495Y28850D01*
Y28850D01*
X86505D01*
Y28850D01*
X86538Y28900D01*
X86850D01*
Y29450D01*
D02*
G37*
G36*
X86505Y28650D02*
X85495D01*
Y28650D01*
X85462Y28600D01*
X85150D01*
Y28050D01*
X86000D01*
X86850D01*
Y28600D01*
X86538D01*
X86505Y28650D01*
Y28650D01*
D02*
G37*
G36*
X85900Y27850D02*
X85150D01*
Y27300D01*
X85900D01*
Y27850D01*
D02*
G37*
G36*
X84988Y25261D02*
X84987D01*
Y24856D01*
X85392D01*
Y24856D01*
X85316Y25042D01*
X85174Y25184D01*
X84988Y25261D01*
D02*
G37*
G36*
X85392Y24656D02*
X84987D01*
Y24251D01*
X84988D01*
X85174Y24328D01*
X85316Y24470D01*
X85392Y24655D01*
Y24656D01*
D02*
G37*
%LPD*%
D10*
X116230Y85500D02*
G03*
X113230Y88500I-3000J0D01*
G01*
X32152Y85000D02*
X87250D01*
X22876Y75725D02*
X32152Y85000D01*
X29610Y74680D02*
X101230D01*
X28230Y73300D02*
X29610Y74680D01*
X116230D02*
Y85500D01*
X94750Y88500D02*
X113230D01*
X101230Y74680D02*
Y82300D01*
D11*
X25690Y57570D02*
G03*
X28230Y60110I0J2540D01*
G01*
X18000Y56210D02*
G03*
X20540Y53670I2540J0D01*
G01*
Y65680D02*
G03*
X18000Y63140I0J-2540D01*
G01*
X20540Y65680D02*
X23230D01*
Y73300D01*
X28230Y65680D02*
Y73300D01*
X23000Y57570D02*
X25690D01*
X28230Y60110D02*
Y65680D01*
X20540Y53670D02*
X23000D01*
X18000Y56210D02*
Y63140D01*
D12*
X99700Y24750D02*
D03*
Y25250D02*
D03*
Y26250D02*
D03*
Y31750D02*
D03*
Y31250D02*
D03*
Y30750D02*
D03*
Y30250D02*
D03*
Y29750D02*
D03*
Y29250D02*
D03*
Y28750D02*
D03*
Y28250D02*
D03*
Y27750D02*
D03*
Y27250D02*
D03*
Y26750D02*
D03*
Y25750D02*
D03*
Y24250D02*
D03*
X88300D02*
D03*
Y24750D02*
D03*
Y25250D02*
D03*
Y25750D02*
D03*
Y26250D02*
D03*
Y26750D02*
D03*
Y27250D02*
D03*
Y27750D02*
D03*
Y28250D02*
D03*
Y28750D02*
D03*
Y29250D02*
D03*
Y30250D02*
D03*
Y30750D02*
D03*
Y31250D02*
D03*
Y31750D02*
D03*
Y29750D02*
D03*
D13*
X97750Y22300D02*
D03*
X97250D02*
D03*
X96750D02*
D03*
X96250D02*
D03*
X95750D02*
D03*
X95250D02*
D03*
X94750D02*
D03*
X94250D02*
D03*
X93750D02*
D03*
X93250D02*
D03*
X92750D02*
D03*
X92250D02*
D03*
X91750D02*
D03*
X91250D02*
D03*
X90750D02*
D03*
X90250D02*
D03*
Y33700D02*
D03*
X90750D02*
D03*
X93250D02*
D03*
X93750D02*
D03*
X94750D02*
D03*
X96750D02*
D03*
X97250D02*
D03*
X97750D02*
D03*
X96250D02*
D03*
X92250D02*
D03*
X91750D02*
D03*
X91250D02*
D03*
X92750D02*
D03*
X94250D02*
D03*
X95250D02*
D03*
X95750D02*
D03*
D14*
X131600Y23940D02*
D03*
Y25040D02*
D03*
Y26140D02*
D03*
X132700D02*
D03*
X133800D02*
D03*
Y25040D02*
D03*
Y23940D02*
D03*
X132700D02*
D03*
Y25040D02*
D03*
D15*
X138900Y17250D02*
D03*
X137400D02*
D03*
X135900D02*
D03*
X134400D02*
D03*
X132900D02*
D03*
X131400D02*
D03*
X129900D02*
D03*
X128400D02*
D03*
X126900D02*
D03*
Y34750D02*
D03*
X128400D02*
D03*
X129900D02*
D03*
X131400D02*
D03*
X132900D02*
D03*
X134400D02*
D03*
X135900D02*
D03*
X137400D02*
D03*
X138900D02*
D03*
D16*
X138500Y37050D02*
D03*
Y38950D02*
D03*
X131000Y37050D02*
D03*
Y38950D02*
D03*
X136500D02*
D03*
Y37050D02*
D03*
X127000Y38950D02*
D03*
Y37050D02*
D03*
X109000Y12050D02*
D03*
Y13950D02*
D03*
X107000Y13950D02*
D03*
Y12050D02*
D03*
X105000Y13950D02*
D03*
Y12050D02*
D03*
X84500Y48950D02*
D03*
Y47050D02*
D03*
X92000D02*
D03*
Y48950D02*
D03*
X87000Y44950D02*
D03*
Y43050D02*
D03*
X94500Y44950D02*
D03*
Y43050D02*
D03*
X84500D02*
D03*
Y44950D02*
D03*
X89500D02*
D03*
Y43050D02*
D03*
X97000D02*
D03*
Y44950D02*
D03*
X92000D02*
D03*
Y43050D02*
D03*
X62500Y29550D02*
D03*
Y31450D02*
D03*
X65000Y29550D02*
D03*
Y31450D02*
D03*
X129000Y37050D02*
D03*
Y38950D02*
D03*
X86000Y31450D02*
D03*
Y29550D02*
D03*
X120500Y9550D02*
D03*
Y11450D02*
D03*
X133000Y38950D02*
D03*
Y37050D02*
D03*
X104000Y56450D02*
D03*
Y54550D02*
D03*
X126000Y50050D02*
D03*
Y51950D02*
D03*
X86000Y27950D02*
D03*
Y26050D02*
D03*
X76017Y22719D02*
D03*
Y20819D02*
D03*
D17*
X49950Y54000D02*
D03*
X48050D02*
D03*
X36450Y30000D02*
D03*
X34550D02*
D03*
Y28000D02*
D03*
X36450D02*
D03*
X79950Y44750D02*
D03*
X78050D02*
D03*
X65950D02*
D03*
X64050D02*
D03*
X54050Y41000D02*
D03*
X55950D02*
D03*
X124950Y43000D02*
D03*
X123050D02*
D03*
X103050Y47000D02*
D03*
X104950D02*
D03*
X120950Y55000D02*
D03*
X119050D02*
D03*
X119050Y52000D02*
D03*
X120950D02*
D03*
Y50000D02*
D03*
X119050D02*
D03*
X108950Y43000D02*
D03*
X107050D02*
D03*
X119050Y47000D02*
D03*
X120950D02*
D03*
X103050Y39000D02*
D03*
X104950D02*
D03*
X120950Y45000D02*
D03*
X119050D02*
D03*
X104950Y52000D02*
D03*
X103050D02*
D03*
X108950Y47000D02*
D03*
X107050D02*
D03*
Y45000D02*
D03*
X108950D02*
D03*
X103050Y37000D02*
D03*
X104950D02*
D03*
X103050Y45000D02*
D03*
X104950D02*
D03*
X103050Y50000D02*
D03*
X104950D02*
D03*
Y35000D02*
D03*
X103050D02*
D03*
X123050Y59000D02*
D03*
X124950D02*
D03*
X103050Y33000D02*
D03*
X104950D02*
D03*
X115050Y55000D02*
D03*
X116950D02*
D03*
X123050Y57000D02*
D03*
X124950D02*
D03*
X112950Y55000D02*
D03*
X111050D02*
D03*
X104950Y31000D02*
D03*
X103050D02*
D03*
X130550Y14500D02*
D03*
X132450D02*
D03*
X36450Y32000D02*
D03*
X34550D02*
D03*
X84050Y54000D02*
D03*
X85950D02*
D03*
X69950D02*
D03*
X68050D02*
D03*
X52050D02*
D03*
X53950D02*
D03*
X92550Y36000D02*
D03*
X94450D02*
D03*
X64050Y54000D02*
D03*
X65950D02*
D03*
X80050D02*
D03*
X81950D02*
D03*
X94550Y18000D02*
D03*
X96450D02*
D03*
X90550D02*
D03*
X92450D02*
D03*
X103050Y27000D02*
D03*
X104950D02*
D03*
X94450Y20000D02*
D03*
X92550D02*
D03*
X104950Y29000D02*
D03*
X103050D02*
D03*
X36450Y26000D02*
D03*
X34550D02*
D03*
D18*
X47120Y23052D02*
D03*
Y20512D02*
D03*
Y17972D02*
D03*
Y15432D02*
D03*
Y12892D02*
D03*
Y10352D02*
D03*
Y7812D02*
D03*
Y5272D02*
D03*
X72880Y23052D02*
D03*
Y7812D02*
D03*
Y12892D02*
D03*
Y17972D02*
D03*
Y5272D02*
D03*
Y15432D02*
D03*
Y10352D02*
D03*
Y20512D02*
D03*
D19*
X115650Y32000D02*
D03*
X122350D02*
D03*
Y20000D02*
D03*
X115650D02*
D03*
X103650D02*
D03*
X110350D02*
D03*
D20*
X88750Y14000D02*
D03*
X98250D02*
D03*
D21*
X32500Y29050D02*
D03*
Y30950D02*
D03*
X30500Y30000D02*
D03*
D22*
X79000Y48500D02*
D03*
X72000D02*
D03*
X65000D02*
D03*
X23000Y16500D02*
D03*
D23*
X80050Y41250D02*
D03*
X77950D02*
D03*
X63950D02*
D03*
X66050D02*
D03*
D24*
X51500Y47000D02*
D03*
X58500D02*
D03*
D25*
X95750Y49000D02*
D03*
X96700Y47000D02*
D03*
X94800D02*
D03*
X87300D02*
D03*
X89200D02*
D03*
X88250Y49000D02*
D03*
D26*
X92550Y58700D02*
D03*
Y57300D02*
D03*
X89450Y58700D02*
D03*
Y57300D02*
D03*
X57450D02*
D03*
Y58700D02*
D03*
X60550Y57300D02*
D03*
Y58700D02*
D03*
X76550D02*
D03*
Y57300D02*
D03*
X73450Y58700D02*
D03*
Y57300D02*
D03*
D27*
X53825Y56095D02*
D03*
Y57365D02*
D03*
Y58635D02*
D03*
Y59905D02*
D03*
X48175D02*
D03*
Y58635D02*
D03*
Y57365D02*
D03*
Y56095D02*
D03*
X69825D02*
D03*
Y57365D02*
D03*
Y58635D02*
D03*
Y59905D02*
D03*
X64175D02*
D03*
Y58635D02*
D03*
Y57365D02*
D03*
Y56095D02*
D03*
X85825Y56095D02*
D03*
Y57365D02*
D03*
Y58635D02*
D03*
Y59905D02*
D03*
X80175Y56095D02*
D03*
Y58635D02*
D03*
Y59905D02*
D03*
Y57365D02*
D03*
D28*
X114250Y53007D02*
D03*
X114750D02*
D03*
X113750D02*
D03*
X115250D02*
D03*
X113250D02*
D03*
X112750D02*
D03*
Y48993D02*
D03*
X113250D02*
D03*
X113750D02*
D03*
X114250D02*
D03*
X114750D02*
D03*
X115250D02*
D03*
D29*
X111993Y51250D02*
D03*
X116007Y49750D02*
D03*
Y50250D02*
D03*
Y50750D02*
D03*
Y51250D02*
D03*
Y52250D02*
D03*
Y51750D02*
D03*
X111993Y52250D02*
D03*
Y50750D02*
D03*
Y50250D02*
D03*
Y49750D02*
D03*
Y51750D02*
D03*
D30*
X114000Y51000D02*
D03*
D31*
X96631Y64000D02*
D03*
X93369D02*
D03*
X85369D02*
D03*
X88631D02*
D03*
D32*
X106400Y56300D02*
D03*
X108600D02*
D03*
Y54700D02*
D03*
X106400D02*
D03*
D33*
X21420Y21000D02*
D03*
X24580D02*
D03*
D34*
X120950Y45000D02*
X121750D01*
X92850Y35400D02*
X93158Y35092D01*
Y34748D02*
X93250Y34657D01*
X93158Y34748D02*
Y35092D01*
X93250Y33700D02*
Y34657D01*
X87145Y20000D02*
X91250D01*
X83208Y23937D02*
X87145Y20000D01*
X98295Y30244D02*
X99006D01*
X99012Y30250D02*
X99700D01*
X99006Y30244D02*
X99012Y30250D01*
X98236Y30304D02*
X98295Y30244D01*
X99100Y29750D02*
X99700D01*
X99076Y29774D02*
X99100Y29750D01*
X98544Y29654D02*
X98665Y29774D01*
X99076D01*
X97736Y29654D02*
X98544D01*
X96774Y34325D02*
Y34911D01*
X97250Y33700D02*
Y34300D01*
X97226Y34325D02*
X97250Y34300D01*
X96774Y34911D02*
X99299Y37436D01*
X97226Y34724D02*
X99486Y36985D01*
X97226Y34325D02*
Y34724D01*
X91250Y20000D02*
Y22300D01*
X87000Y30750D02*
X88300D01*
X87250Y27750D02*
X88300D01*
X92750Y20200D02*
Y22300D01*
X87400Y27250D02*
X88300D01*
X86200Y26050D02*
X87400Y27250D01*
X96750Y33700D02*
Y34300D01*
X96774Y34325D01*
X86000Y26050D02*
X86200D01*
X92850Y35400D02*
Y35700D01*
X92550Y36000D02*
X92850Y35700D01*
X92550Y20000D02*
X92650Y20100D01*
X87050Y27950D02*
X87250Y27750D01*
X86000Y27950D02*
X87050D01*
X86600Y31150D02*
X87000Y30750D01*
X86300Y31150D02*
X86600D01*
X86000Y31450D02*
X86300Y31150D01*
X101888Y37000D02*
X103050D01*
X101872Y36985D02*
X101888Y37000D01*
X99486Y36985D02*
X101872D01*
X103050Y38800D02*
Y39000D01*
X101686Y37436D02*
X103050Y38800D01*
X99299Y37436D02*
X101686D01*
X115999Y37596D02*
X116000Y37597D01*
X105426Y37856D02*
X115634D01*
X115894Y37596D02*
X115999D01*
X115634Y37856D02*
X115894Y37596D01*
X105443Y38307D02*
X115960D01*
X105250Y37680D02*
X105426Y37856D01*
X115960Y38307D02*
X116000Y38347D01*
X105250Y37300D02*
Y37680D01*
X104950Y38800D02*
X105443Y38307D01*
X104950Y37000D02*
X105250Y37300D01*
X114774Y48077D02*
X115214Y47637D01*
X115818D02*
X115994Y47461D01*
Y47006D02*
X116000Y47000D01*
X115401Y48088D02*
X116005D01*
X116445Y47648D01*
Y47489D02*
Y47648D01*
X116791Y47041D02*
Y47143D01*
X116445Y47489D02*
X116791Y47143D01*
X115994Y47006D02*
Y47461D01*
X115226Y48264D02*
X115401Y48088D01*
X115214Y47637D02*
X115818D01*
X109347Y52225D02*
X111791D01*
X108234Y52462D02*
X108318D01*
X109347Y52225D02*
X109347Y52225D01*
X108551Y51711D02*
X108615Y51775D01*
X109152D01*
X109152Y51775D02*
X111791D01*
X109152Y51775D02*
X109152Y51775D01*
X108318Y52462D02*
X108555Y52225D01*
X109347D01*
X108234Y51652D02*
X108294Y51711D01*
X108551D01*
X132324Y50453D02*
X132900Y51028D01*
X131725Y54000D02*
X132900Y52825D01*
Y51028D02*
Y52825D01*
X117873Y49440D02*
Y49801D01*
X116209Y50725D02*
X116948D01*
X117422Y49254D02*
Y49614D01*
X116948Y50725D02*
X117873Y49801D01*
X119050Y48274D02*
X126818D01*
X116209Y50275D02*
X116761D01*
X130311Y49044D02*
X131096Y48259D01*
X127923Y49379D02*
X128380D01*
X128934Y48825D01*
X127737Y49830D02*
X129526D01*
X117422Y49254D02*
X118402Y48274D01*
X130311Y49044D02*
Y49045D01*
X116207Y50727D02*
X116209Y50725D01*
X117873Y49440D02*
X118589Y48725D01*
X129526Y49830D02*
X130311Y49045D01*
X126632Y48725D02*
X127737Y49830D01*
X119050Y48725D02*
X126632D01*
X116207Y50273D02*
X116209Y50275D01*
X128934Y48825D02*
X129110D01*
X119050Y47000D02*
Y48274D01*
X116761Y50275D02*
X117422Y49614D01*
X118402Y48274D02*
X119050D01*
X126818D02*
X127923Y49379D01*
X119050Y48725D02*
Y50000D01*
X118589Y48725D02*
X119050D01*
X126125Y53274D02*
X127841Y54990D01*
X117873Y52559D02*
X118588Y53274D01*
X119050D02*
X126125D01*
X130088Y54352D02*
X130440Y54000D01*
X130085Y54352D02*
X130088D01*
X119050Y53725D02*
X125939D01*
X127655Y55441D02*
X128995D01*
X116207Y51727D02*
X116210Y51724D01*
X128995Y55441D02*
X130085Y54352D01*
X116007Y51750D02*
X116030Y51727D01*
X117873Y52197D02*
Y52559D01*
X116948Y51273D02*
X117873Y52197D01*
X116761Y51724D02*
X117422Y52384D01*
X116207Y51273D02*
X116948D01*
X116030Y51727D02*
X116207D01*
X128808Y54990D02*
X128986Y54813D01*
X116210Y51724D02*
X116761D01*
X117422Y52746D02*
X118401Y53725D01*
X116007Y51250D02*
X116030Y51273D01*
X127841Y54990D02*
X128808D01*
X128986Y54029D02*
X129110Y53905D01*
X118588Y53274D02*
X119050D01*
X128986Y54029D02*
Y54813D01*
X118401Y53725D02*
X119050D01*
X116207Y51273D02*
X116207Y51273D01*
X125939Y53725D02*
X127655Y55441D01*
X116030Y51273D02*
X116207D01*
X119050Y52000D02*
Y53274D01*
X117422Y52384D02*
Y52746D01*
X115227Y48539D02*
Y48970D01*
X115250Y48993D01*
X114750D02*
X114773Y48970D01*
X115226Y48537D02*
X115227Y48539D01*
X114773Y48793D02*
X114774Y48791D01*
Y48077D02*
Y48791D01*
X114773Y48793D02*
Y48970D01*
X115226Y48264D02*
Y48537D01*
X111791Y52225D02*
X111793Y52227D01*
X111970D02*
X111993Y52250D01*
X111793Y52227D02*
X111970D01*
X111791Y51775D02*
X111793Y51773D01*
X111970D01*
X111993Y51750D01*
X123025Y42975D02*
X123050Y43000D01*
X123025Y42000D02*
Y42975D01*
X130440Y54000D02*
X131725D01*
X131862Y50307D02*
X132162D01*
X132308Y50453D02*
X132324D01*
X132162Y50307D02*
X132308Y50453D01*
X131650Y50095D02*
X131862Y50307D01*
X125500Y34750D02*
X126900D01*
X124592Y11900D02*
X128400Y15708D01*
X123130Y11900D02*
X124592D01*
X128400Y15708D02*
Y17250D01*
X124310Y9560D02*
X129250Y14500D01*
X123000Y6690D02*
X124310Y8000D01*
Y9560D01*
X123000Y11770D02*
X123130Y11900D01*
X129900Y16130D02*
Y17250D01*
X123000Y9230D02*
X129900Y16130D01*
X132450Y14500D02*
X133450D01*
X135900Y16950D01*
Y17250D01*
X129250Y14500D02*
X130550D01*
X104000Y56450D02*
X104150Y56300D01*
X103950Y56500D02*
X104000Y56450D01*
X75510Y20512D02*
X75817Y20819D01*
X90000Y52500D02*
X92000Y50500D01*
Y48950D02*
Y50500D01*
X84500Y48950D02*
Y52500D01*
X88631Y64000D02*
X91000D01*
X93369D01*
X85369D02*
Y65619D01*
X87250Y67500D01*
X96631Y64000D02*
Y65619D01*
X94750Y67500D02*
X96631Y65619D01*
X95750Y49000D02*
Y50000D01*
X85629Y64000D02*
X86000Y63629D01*
Y62500D02*
Y63629D01*
X85369Y64000D02*
X85629D01*
X96371D02*
X96631D01*
X96000Y63629D02*
X96371Y64000D01*
X96000Y62500D02*
Y63629D01*
X88250Y49000D02*
Y50000D01*
X92550Y36000D02*
Y37800D01*
X80050Y55970D02*
X80175Y56095D01*
X48050Y55970D02*
X48175Y56095D01*
X71190Y37940D02*
X71250Y38000D01*
X104150Y56300D02*
X106400D01*
X120500Y8000D02*
X121810Y6690D01*
X123000D01*
X120500Y8000D02*
Y9550D01*
X120395Y9445D02*
X120500Y9550D01*
X119362Y9445D02*
X120395D01*
X119250Y9500D02*
X119307D01*
X119362Y9445D01*
X109000Y11000D02*
Y12050D01*
X49250Y52500D02*
X62000D01*
X48050Y54000D02*
X48350Y53700D01*
Y53400D02*
Y53700D01*
Y53400D02*
X49250Y52500D01*
X48050Y54000D02*
Y55970D01*
X62000Y52500D02*
Y57550D01*
X84000Y26000D02*
X84050Y26050D01*
X86000D01*
X84000Y31500D02*
X84050Y31450D01*
X86000D01*
X108950Y43000D02*
Y45000D01*
X119050Y55000D02*
X119050Y55000D01*
X119050Y53725D02*
Y55000D01*
X131096Y48109D02*
X131650Y47555D01*
X131096Y48109D02*
Y48259D01*
X116030Y50273D02*
X116207D01*
X116007Y50250D02*
X116030Y50273D01*
Y50727D02*
X116207D01*
X116007Y50750D02*
X116030Y50727D01*
X80050Y52581D02*
Y54000D01*
Y52581D02*
X80131Y52500D01*
X77964Y52668D02*
X78131Y52500D01*
X77964Y52668D02*
Y57586D01*
X76850Y58700D02*
X77964Y57586D01*
X76550Y58700D02*
X76850D01*
X64050Y52500D02*
Y54000D01*
X60850Y58700D02*
X62000Y57550D01*
X60550Y58700D02*
X60850D01*
X80050Y54000D02*
Y55970D01*
X83000Y54000D02*
X84050D01*
X84257Y59905D02*
X85825D01*
X81950Y54000D02*
X83000D01*
X64050Y54000D02*
Y55970D01*
X64175Y56095D01*
X67000Y54000D02*
X68050D01*
X68257Y59905D02*
X69825D01*
X65950Y54000D02*
X67000D01*
X49950D02*
X51000D01*
X52257Y59905D02*
X53825D01*
X51000Y54000D02*
X52050D01*
X121750Y59000D02*
X123050D01*
X108950Y41050D02*
Y43000D01*
X92550Y37800D02*
X92750Y38000D01*
X103050Y29000D02*
X104000D01*
X102250Y45500D02*
X102750D01*
X103050Y45200D01*
Y46800D02*
Y47000D01*
X102750Y46500D02*
X103050Y46800D01*
Y45000D02*
Y45200D01*
X102250Y46500D02*
X102750D01*
X108950Y41050D02*
X109000Y41000D01*
X102250Y56500D02*
X103950D01*
X104950Y38800D02*
Y39000D01*
X91250Y20000D02*
X92550D01*
X120950Y55000D02*
X121750D01*
X120950Y47000D02*
X121750D01*
X115477Y53007D02*
X115484Y53000D01*
X116000D01*
X115250Y53007D02*
X115477D01*
X116000Y49000D02*
X116007Y49007D01*
Y49750D01*
X104950Y45000D02*
X106000D01*
X107050D01*
X104950Y47000D02*
X106000D01*
X107050D01*
X108950Y45000D02*
Y47000D01*
D35*
X93711Y33739D02*
Y35302D01*
Y33739D02*
X93750Y33700D01*
X94100Y35459D02*
X94450Y35809D01*
Y36000D01*
X93867Y35459D02*
X94100D01*
X93711Y35302D02*
X93867Y35459D01*
X100550Y26250D02*
X101004Y25796D01*
X123296D01*
X124000Y26500D01*
X118412Y24583D02*
X118548Y24719D01*
X115427Y24583D02*
X118412D01*
X118548Y24719D02*
X124214D01*
X115290D02*
X115427Y24583D01*
X115179Y24719D02*
X115290D01*
X115149Y24750D02*
X115184Y24714D01*
X99725Y25275D02*
X117716D01*
X99700Y25250D02*
X99725Y25275D01*
X117716D02*
X117771Y25220D01*
X123720D01*
X124214Y24719D02*
X132900Y33405D01*
X99700Y24750D02*
X115149D01*
X94258Y33708D02*
Y34879D01*
X94250Y33700D02*
X94258Y33708D01*
Y34879D02*
X94267Y34887D01*
X72880Y12892D02*
X72907Y12919D01*
X78115D01*
X79230Y11804D01*
Y7000D02*
Y11804D01*
X76971Y15432D02*
X81770Y10633D01*
X72880Y15432D02*
X76971D01*
X81770Y7000D02*
Y10633D01*
X75559Y17972D02*
X84310Y9221D01*
Y7000D02*
Y9221D01*
X72880Y17972D02*
X75559D01*
X49000Y10352D02*
X50012Y11364D01*
Y14890D01*
X50491Y26619D02*
Y31971D01*
X50520Y32000D01*
X95415Y23751D02*
X95750Y23416D01*
X87579Y23751D02*
X95415D01*
X86677Y22849D02*
X87579Y23751D01*
X86647Y22424D02*
X86677Y22454D01*
Y22849D01*
X88014Y23400D02*
X95000D01*
X87639Y23025D02*
X88014Y23400D01*
X89416Y25854D02*
X89527D01*
X88300Y25750D02*
X88320Y25770D01*
X89332D02*
X89416Y25854D01*
X88320Y25770D02*
X89332D01*
X96388Y27762D02*
X96400Y27750D01*
X97671D01*
X97948Y28524D02*
X98674Y29250D01*
X97671Y27750D02*
X98671Y28750D01*
X96467Y28524D02*
X97948D01*
X98671Y28750D02*
X99700D01*
X98674Y29250D02*
X99700D01*
X88300Y29750D02*
X89248D01*
X94750Y32252D02*
Y33700D01*
X88300Y31750D02*
X89248D01*
X90750Y33700D02*
Y34550D01*
X99700Y26250D02*
X100550D01*
X95750Y31750D02*
Y33700D01*
X91250Y32250D02*
Y33700D01*
X93250Y20755D02*
Y22300D01*
X92750Y32255D02*
Y33700D01*
X95750Y22300D02*
Y23416D01*
X96250Y21359D02*
Y22300D01*
X91750Y31831D02*
Y33700D01*
X96750Y22300D02*
Y23605D01*
X90250Y33700D02*
Y34150D01*
X90200Y34200D02*
X90250Y34150D01*
X86752Y24750D02*
X88300D01*
X96250Y31250D02*
Y33700D01*
X86752Y24250D02*
X88300D01*
X93750Y20755D02*
Y22300D01*
X95250D02*
Y23150D01*
X97500Y25750D02*
X99700D01*
X88300Y25250D02*
X96750D01*
X98500Y23500D02*
X106750D01*
X96750Y25250D02*
X98500Y23500D01*
X95000Y23400D02*
X95250Y23150D01*
X93749Y20754D02*
X93750Y20755D01*
X93749Y19246D02*
Y20754D01*
Y19246D02*
X93896Y19099D01*
X93897D01*
X94211Y18785D01*
Y18339D02*
Y18785D01*
Y18339D02*
X94550Y18000D01*
X86502Y24000D02*
X86752Y24250D01*
X86500Y24000D02*
X86502D01*
X95250Y33700D02*
X95255Y33695D01*
Y31752D02*
Y33695D01*
X94704Y31201D02*
X95255Y31752D01*
X93942Y31201D02*
X94704D01*
X94827Y29827D02*
X96250Y31250D01*
X94827Y29759D02*
Y29827D01*
X86502Y25000D02*
X86752Y24750D01*
X86500Y25000D02*
X86502D01*
X88800Y34200D02*
X90200D01*
X96355Y24000D02*
X96750Y23605D01*
X91595Y31676D02*
X91750Y31831D01*
X91595Y31565D02*
Y31676D01*
X96250Y21359D02*
X96856Y20754D01*
X100462D01*
X102008Y22300D01*
X106750D01*
X92750Y32255D02*
X93059Y31946D01*
Y31835D02*
Y31946D01*
X93250Y20755D02*
X93251Y20754D01*
Y19246D02*
Y20754D01*
X93104Y19099D02*
X93251Y19246D01*
X93099Y19099D02*
X93104D01*
X92789Y18789D02*
X93099Y19099D01*
X92789Y18339D02*
Y18789D01*
X92450Y18000D02*
X92789Y18339D01*
X90967Y31967D02*
X91250Y32250D01*
X90967Y30528D02*
Y31967D01*
Y30528D02*
X93995Y27500D01*
X94000D01*
X94500Y30500D02*
X95750Y31750D01*
X94500Y30500D02*
X94500D01*
X90500Y34800D02*
X90750Y34550D01*
X87800Y34800D02*
X90500D01*
X87750Y34750D02*
X87800Y34800D01*
X89498Y31500D02*
X89500D01*
X89248Y31750D02*
X89498Y31500D01*
X94500Y32002D02*
X94750Y32252D01*
X94500Y32000D02*
Y32002D01*
X92256Y30940D02*
X92262Y30934D01*
X92256Y30940D02*
Y33694D01*
X92250Y33700D02*
X92256Y33694D01*
X89498Y29500D02*
X89500D01*
X89248Y29750D02*
X89498Y29500D01*
X113750Y45212D02*
X113776Y45186D01*
X113750Y45212D02*
Y48993D01*
X114366Y45843D02*
Y45954D01*
X114250Y46070D02*
X114366Y45954D01*
X114250Y46070D02*
Y48993D01*
X113034Y44444D02*
Y46717D01*
X113250Y46933D01*
X112320Y45770D02*
Y47119D01*
X113034Y44444D02*
X115492D01*
X116047Y45000D01*
X112320Y47119D02*
X112750Y47550D01*
Y48993D01*
X113250Y46933D02*
Y48993D01*
X104950Y35000D02*
X104984Y34966D01*
X114381D01*
X123720Y25220D02*
X131400Y32900D01*
X116047Y45000D02*
X119050D01*
X94567Y19050D02*
X94997D01*
X95500Y18117D02*
Y18547D01*
X94997Y19050D02*
X95500Y18547D01*
X94450Y19167D02*
Y20000D01*
Y19167D02*
X94567Y19050D01*
X95500Y18117D02*
X95617Y18000D01*
X96450D01*
X71000Y5272D02*
X72880D01*
X71000Y7812D02*
X72880D01*
X131600Y23940D02*
Y25040D01*
X132700Y23940D02*
Y25040D01*
Y26140D01*
X131600Y25040D02*
Y26140D01*
Y23940D02*
X132700D01*
X133800D01*
Y25040D01*
Y26140D01*
X102250Y50000D02*
X103050D01*
X123175Y51950D02*
X126000D01*
X114250Y56000D02*
X120750Y62500D01*
X139500D02*
X142060Y59940D01*
X120750Y62500D02*
X139500D01*
X113750Y56250D02*
X120500Y63000D01*
X139500D02*
X143500Y59000D01*
X120500Y63000D02*
X139500D01*
X142060Y58630D02*
Y59940D01*
X128200Y36050D02*
X128900D01*
X127200Y37050D02*
X128200Y36050D01*
X128900D02*
X129900Y35050D01*
Y34750D02*
Y35050D01*
X127000Y37050D02*
X127200D01*
X130600Y37050D02*
X131000D01*
X129000D02*
X130600D01*
X130997D02*
X131000D01*
X130647Y36700D02*
X130997Y37050D01*
X124000Y26500D02*
X130647Y33147D01*
Y36700D01*
X131000Y37050D02*
X131500D01*
X131500Y37050D02*
X133200D01*
X131500Y37050D02*
X131500Y37050D01*
X133550Y36700D02*
Y36700D01*
X134250Y36000D02*
X136500D01*
X133550Y36700D02*
X134250Y36000D01*
X136500D02*
X137050Y35450D01*
X133200Y37050D02*
X133550Y36700D01*
X137050Y35100D02*
X137400Y34750D01*
X137050Y35100D02*
Y35450D01*
X122507Y32000D02*
X127000D01*
X128400Y33400D02*
Y34750D01*
X127000Y32000D02*
X128400Y33400D01*
X131400Y32900D02*
Y34750D01*
X132900Y33405D02*
Y34750D01*
X69500Y13850D02*
X69900Y14250D01*
X69500Y6772D02*
Y13850D01*
X70500Y8312D02*
X71000Y7812D01*
X70500Y8312D02*
Y15910D01*
X71190Y16600D01*
X65000Y21250D02*
Y29550D01*
X62432Y22000D02*
Y29482D01*
X87000Y41250D02*
X87750Y40500D01*
X87000Y41250D02*
Y43050D01*
X45272Y5272D02*
X47120D01*
X45250Y5250D02*
X45272Y5272D01*
X49000Y5272D02*
X50772D01*
X48570D02*
X49000D01*
X47120Y5272D02*
X48570D01*
X45239Y7813D02*
X45668D01*
X45670Y7812D01*
X47120D01*
X48570D02*
X48570Y7812D01*
X49000D01*
X47120Y7812D02*
X48570D01*
X95500Y20000D02*
X101500D01*
X48000Y26000D02*
Y31980D01*
X47980Y32000D02*
X48000Y31980D01*
X42258Y13810D02*
X46420Y17972D01*
X47120D01*
X72880Y10352D02*
X76690D01*
X47120Y17972D02*
X48570D01*
X47120Y12892D02*
X48570D01*
X42773Y6705D02*
X46420Y10352D01*
X47120D01*
X49000D01*
X42258Y11270D02*
X46420Y15432D01*
X47120D01*
X42258Y8730D02*
X46420Y12892D01*
X47120D01*
Y15432D02*
X48570D01*
X48570Y15432D02*
X49000D01*
X48570Y15432D02*
X48570Y15432D01*
X42000Y8730D02*
X42258D01*
X42000Y11270D02*
X42258D01*
X48570Y5272D02*
X48570Y5272D01*
X42515Y6705D02*
X42773D01*
X42000Y6190D02*
X42515Y6705D01*
X48570Y12892D02*
X49000D01*
X48570Y12892D02*
X48570Y12892D01*
Y17972D02*
X49000D01*
X48570Y17972D02*
X48570Y17972D01*
X42000Y13810D02*
X42258D01*
X83000Y61000D02*
X95000D01*
X97250Y58750D01*
X94500Y42000D02*
Y43050D01*
X87750Y40500D02*
X89750D01*
X96700Y45250D02*
X97000Y44950D01*
X96700Y45250D02*
Y47000D01*
X94500Y44950D02*
X94800Y45250D01*
X92000Y44950D02*
X94500D01*
X94800Y45250D02*
Y47000D01*
X92000Y44950D02*
Y47050D01*
X89200Y45250D02*
X89500Y44950D01*
X89200Y45250D02*
Y47000D01*
X87300Y45250D02*
Y47000D01*
X87000Y44950D02*
X87300Y45250D01*
X84650Y44950D02*
X87000D01*
X84500Y44950D02*
Y47050D01*
Y44950D02*
X84650D01*
X109000Y14500D02*
X110350Y15850D01*
Y20000D01*
X109000Y13950D02*
Y14500D01*
X107000Y13950D02*
X108250D01*
X108250Y13950D01*
X109000D01*
X105000Y13950D02*
X107000D01*
X110350Y20000D02*
X112250D01*
X64250Y41550D02*
Y44550D01*
X63950Y41250D02*
X64250Y41550D01*
X64050Y44750D02*
X64250Y44550D01*
X79750Y44550D02*
X79950Y44750D01*
X79750Y41550D02*
X80050Y41250D01*
X79750Y41550D02*
Y44550D01*
X78050Y44750D02*
Y47585D01*
X78965Y48500D02*
X79000D01*
X78050Y47585D02*
X78965Y48500D01*
X77250Y44750D02*
X78050D01*
X72000Y48500D02*
Y50000D01*
X21000Y22015D02*
X21420Y21595D01*
X21000Y22015D02*
Y27500D01*
X21420Y21000D02*
Y21595D01*
X25000Y22015D02*
Y27500D01*
X24580Y21595D02*
X25000Y22015D01*
X24580Y21000D02*
Y21595D01*
X27500Y30000D02*
X30500D01*
X25000Y27500D02*
X27500Y30000D01*
X21000Y27500D02*
X25500Y32000D01*
X34550D01*
X33600Y28000D02*
X34550D01*
X32550Y29050D02*
X33600Y28000D01*
X32500Y29050D02*
X32550D01*
X34550Y28000D02*
Y30000D01*
X76690Y7000D02*
Y10352D01*
X49000Y10352D02*
X49000D01*
X62432Y29482D02*
X62500Y29550D01*
X96500Y14000D02*
X98250D01*
X94550Y15950D02*
X96500Y14000D01*
X90500D02*
X92450Y15950D01*
X88750Y14000D02*
X90500D01*
X92450Y15950D02*
Y18000D01*
X94550Y15950D02*
Y18000D01*
X69500Y6772D02*
X71000Y5272D01*
X89500Y27500D02*
X91250Y25750D01*
X97500D01*
X50772Y5272D02*
X54500Y9000D01*
X103650Y12050D02*
X105000D01*
X37000Y30000D02*
X37500D01*
X37000Y30000D02*
X37000Y30000D01*
X36450Y30000D02*
X37000D01*
X80635Y58635D02*
X83000Y61000D01*
X80175Y58635D02*
X80635D01*
X115050Y55000D02*
X116000D01*
X116950Y53016D02*
Y55000D01*
X116184Y52250D02*
X116950Y53016D01*
X116007Y52250D02*
X116184D01*
X91095Y56095D02*
X91900Y56900D01*
X85825Y56095D02*
X91095D01*
X91900Y56950D02*
X92250Y57300D01*
X91900Y56900D02*
Y56950D01*
X92250Y57300D02*
X92550D01*
X85890D02*
X89450D01*
X85825Y57365D02*
X85890Y57300D01*
X85890Y58700D02*
X89450D01*
X85825Y58635D02*
X85890Y58700D01*
X75095Y56095D02*
X75900Y56900D01*
Y56950D01*
X69825Y56095D02*
X75095D01*
X75900Y56950D02*
X76250Y57300D01*
X76550D01*
X69890D02*
X73450D01*
X69825Y57365D02*
X69890Y57300D01*
X69890Y58700D02*
X73450D01*
X69825Y58635D02*
X69890Y58700D01*
X79595Y59905D02*
X80175D01*
X64175Y58635D02*
X64635D01*
X67000Y61000D01*
X78500D01*
X79595Y59905D01*
X62500Y61000D02*
X63595Y59905D01*
X51000Y61000D02*
X62500D01*
X48635Y58635D02*
X51000Y61000D01*
X48175Y58635D02*
X48635D01*
X63595Y59905D02*
X64175D01*
X53825Y58635D02*
X53890Y58700D01*
X57450D01*
X53825Y57365D02*
X53890Y57300D01*
X57450D01*
X60250D02*
X60550D01*
X59900Y56950D02*
X60250Y57300D01*
X53825Y56095D02*
X59095D01*
X59900Y56900D02*
Y56950D01*
X59095Y56095D02*
X59900Y56900D01*
X143500Y46810D02*
Y59000D01*
X142060Y45370D02*
X143500Y46810D01*
X136000Y55000D02*
X140970D01*
X124950Y59000D02*
X132000D01*
X136000Y55000D01*
X140970D02*
X142060Y56090D01*
X136000Y49000D02*
X140970D01*
X130000Y43000D02*
X136000Y49000D01*
X124950Y43000D02*
X130000D01*
X140970Y49000D02*
X142060Y47910D01*
X113750Y54011D02*
Y56250D01*
X114250Y54011D02*
Y56000D01*
Y54011D02*
X114750Y53511D01*
Y53007D02*
Y53511D01*
X113750Y54011D02*
X114250Y53511D01*
Y53007D02*
Y53511D01*
X112000Y53000D02*
X112007Y53007D01*
X112750D01*
X113250D02*
Y53950D01*
X112950Y54250D02*
X113250Y53950D01*
X112950Y54250D02*
Y55000D01*
D36*
X105734Y24250D02*
X105918Y24067D01*
X106015D01*
X99700Y24250D02*
X105734D01*
X109897Y50416D02*
X111110D01*
X109313Y51000D02*
X109897Y50416D01*
X111443Y50750D02*
X111993D01*
X111110Y50416D02*
X111443Y50750D01*
X104950Y50000D02*
X111260D01*
X111510Y50250D02*
X111993D01*
X111260Y50000D02*
X111510Y50250D01*
X98775Y30775D02*
X99675D01*
X98088Y31462D02*
X98775Y30775D01*
X98088Y31462D02*
Y32164D01*
X99675Y30775D02*
X99700Y30750D01*
X98088Y32164D02*
X98117Y32193D01*
X99700Y27750D02*
X102579D01*
X99700Y31750D02*
X102000D01*
X99700Y28250D02*
X102579D01*
X99700Y31250D02*
X102250D01*
X102500Y35000D02*
X103050D01*
X101200Y33700D02*
X102500Y35000D01*
X97750Y33700D02*
X101200D01*
X102500Y31000D02*
X103050D01*
X102250Y31250D02*
X102500Y31000D01*
X102725Y28675D02*
X103050Y29000D01*
X102725Y28396D02*
Y28675D01*
X102579Y28250D02*
X102725Y28396D01*
X103050Y32800D02*
Y33000D01*
X102000Y31750D02*
X103050Y32800D01*
X102725Y27325D02*
X103050Y27000D01*
X102725Y27325D02*
Y27604D01*
X102579Y27750D02*
X102725Y27604D01*
X122350Y20000D02*
X124250D01*
X80175Y57365D02*
X80675D01*
X85950Y54000D02*
Y54200D01*
X84257Y55893D02*
X85950Y54200D01*
X80675Y57365D02*
X82147Y55893D01*
X84257D01*
X64175Y57365D02*
X64675D01*
X69950Y54000D02*
Y54200D01*
X68257Y55893D02*
X69950Y54200D01*
X64675Y57365D02*
X66147Y55893D01*
X68257D01*
X50147D02*
X52257D01*
X48675Y57365D02*
X50147Y55893D01*
X52257D02*
X53950Y54200D01*
Y54000D02*
Y54200D01*
X48175Y57365D02*
X48675D01*
X103050Y33000D02*
X104000D01*
X108800Y56300D02*
X109950Y55150D01*
Y55050D02*
Y55150D01*
Y55050D02*
X110000Y55000D01*
X108600Y56300D02*
X108800D01*
X104950Y31000D02*
X107250D01*
X110000Y55000D02*
X111050D01*
X106000Y43000D02*
X107050D01*
X108250Y49250D02*
X111089D01*
X111589Y49750D01*
X111993D01*
X106000Y51000D02*
X109313D01*
X104950Y50000D02*
Y52000D01*
X110869Y50997D02*
X111121Y51250D01*
X111993D01*
D37*
X80090Y20819D02*
X83208Y23937D01*
X76017Y20819D02*
X80090D01*
X83208Y23937D02*
X84000Y24728D01*
Y26000D01*
X68500Y44750D02*
Y48500D01*
Y38000D02*
Y44750D01*
X102250Y52000D02*
X103050D01*
X126200Y50250D02*
X126709D01*
X125950Y50000D02*
X126200Y50250D01*
X127824Y51365D02*
X129110D01*
X126709Y50250D02*
X127824Y51365D01*
X129110D02*
X130380Y52635D01*
X127000Y38950D02*
Y41000D01*
Y38950D02*
X127500D01*
X127500Y38950D02*
X129000D01*
X127500Y38950D02*
X127500Y38950D01*
X136500Y37050D02*
X138700D01*
X135000Y37500D02*
X135450Y37050D01*
X136500D01*
X135000Y37500D02*
Y39500D01*
X133500Y41000D02*
X135000Y39500D01*
X138700Y37050D02*
X138900Y36850D01*
Y34750D02*
Y36850D01*
X75817Y20819D02*
X76017D01*
X73187D02*
X75817D01*
X91000Y58750D02*
X92500D01*
X92550Y58700D01*
X72880Y20512D02*
X73187Y20819D01*
X84500Y52500D02*
X90000D01*
X80131D02*
X84500D01*
X71190Y34000D02*
Y37940D01*
X68500Y48500D02*
Y52500D01*
X65000Y48500D02*
X68500D01*
X65950Y44750D02*
X68250D01*
X68500Y52500D02*
X78131D01*
X64050D02*
X68500D01*
X62500Y31450D02*
Y38000D01*
X63250Y31450D02*
X63250Y31450D01*
X62500Y31450D02*
X63250D01*
X63250Y31450D02*
X65000D01*
X54500Y34000D02*
X56540Y36040D01*
X41500Y32000D02*
X43500Y34000D01*
X54500D01*
X56540Y36040D02*
Y38000D01*
X36450Y32000D02*
X41500D01*
X35500D02*
X36450D01*
X35500Y32000D02*
X35500Y32000D01*
X35500Y26000D02*
X35500Y26000D01*
X34550Y26000D02*
X35500D01*
X32000Y22500D02*
Y23250D01*
X34550Y25800D02*
Y26000D01*
X32000Y23250D02*
X34550Y25800D01*
X84000Y26000D02*
Y31500D01*
Y38000D01*
X130380Y52635D02*
X131650D01*
X78131Y52500D02*
X80131D01*
X62000D02*
X64050D01*
X121750Y50000D02*
X125950D01*
X120950Y52000D02*
X121750D01*
X120950Y50000D02*
X121750D01*
D38*
X23230Y73300D02*
Y75371D01*
X22876Y75725D02*
X23230Y75371D01*
X106230Y82300D02*
X111230D01*
X106230Y74680D02*
X111230Y79680D01*
Y82300D01*
X106230Y74680D02*
X111230D01*
D39*
X121750Y41000D02*
X127000D01*
X115000D02*
X121750D01*
X127000D02*
X133500D01*
X43750Y53600D02*
Y58860D01*
Y53600D02*
X50350Y47000D01*
X51500D01*
X71250Y38000D02*
X84000D01*
X68500D02*
X71250D01*
X62500D02*
X68500D01*
X56540D02*
X62500D01*
X54050Y41000D02*
Y41200D01*
Y38050D02*
Y41000D01*
X54000Y38000D02*
X54050Y38050D01*
X52200Y47450D02*
X54050Y45600D01*
Y41000D02*
Y45600D01*
X92750Y38000D02*
X97500D01*
X84000D02*
X92750D01*
X100500Y41000D02*
X103000D01*
X97500Y38000D02*
X100500Y41000D01*
X103000D02*
X109000D01*
X110000D01*
X115000D01*
D40*
X87250Y67500D02*
D03*
D41*
X91000D02*
D03*
X94750D02*
D03*
D42*
Y88500D02*
D03*
X87250Y85000D02*
D03*
D43*
X131650Y47555D02*
D03*
D44*
X129110Y48825D02*
D03*
X131650Y50095D02*
D03*
X129110Y51365D02*
D03*
X131650Y52635D02*
D03*
X129110Y53905D02*
D03*
X131650Y55175D02*
D03*
X129110Y56445D02*
D03*
D45*
X138000Y46285D02*
D03*
Y57715D02*
D03*
D46*
X134950Y59815D02*
D03*
Y44185D02*
D03*
D47*
X142060Y45370D02*
D03*
Y58630D02*
D03*
Y47910D02*
D03*
Y56090D02*
D03*
D48*
X72094Y24703D02*
D03*
X48894D02*
D03*
D49*
X123000Y9230D02*
D03*
Y11770D02*
D03*
Y14310D02*
D03*
X56540Y38000D02*
D03*
X50520Y32000D02*
D03*
X42000Y8730D02*
D03*
Y11270D02*
D03*
Y13810D02*
D03*
X115230Y14000D02*
D03*
X76270Y34000D02*
D03*
X71190D02*
D03*
X73730D02*
D03*
X78810D02*
D03*
X81350D02*
D03*
X29000Y8730D02*
D03*
Y11270D02*
D03*
Y13810D02*
D03*
X92230Y7000D02*
D03*
X81770D02*
D03*
X79230D02*
D03*
X76690D02*
D03*
D50*
X123000Y6690D02*
D03*
X42000Y6190D02*
D03*
X29000D02*
D03*
D51*
X54000Y38000D02*
D03*
X47980Y32000D02*
D03*
X117770Y14000D02*
D03*
X68650Y34000D02*
D03*
X94770Y7000D02*
D03*
X84310D02*
D03*
D52*
X25000Y27500D02*
D03*
X21000D02*
D03*
D53*
X106230Y74680D02*
D03*
X111230Y82300D02*
D03*
Y74680D02*
D03*
X106230Y82300D02*
D03*
X101230D02*
D03*
Y74680D02*
D03*
X23230Y73300D02*
D03*
Y65680D02*
D03*
D54*
X116230Y82300D02*
D03*
Y74680D02*
D03*
X28230Y73300D02*
D03*
Y65680D02*
D03*
D55*
X130000Y87000D02*
D03*
X20000D02*
D03*
X130000Y8000D02*
D03*
X20000D02*
D03*
D56*
X23000Y53670D02*
D03*
D57*
Y57570D02*
D03*
X43760Y58860D02*
D03*
Y48700D02*
D03*
Y37270D02*
D03*
D58*
X38000Y22500D02*
D03*
X36000D02*
D03*
X34000D02*
D03*
D59*
X32000D02*
D03*
D60*
X121800Y45000D02*
D03*
X98236Y30304D02*
D03*
X97736Y29654D02*
D03*
X106015Y24067D02*
D03*
X94267Y34887D02*
D03*
X78115Y12919D02*
D03*
X78847Y13556D02*
D03*
X79476Y14055D02*
D03*
X50012Y14890D02*
D03*
X50491Y26619D02*
D03*
X87639Y23025D02*
D03*
X86647Y22424D02*
D03*
X89527Y25854D02*
D03*
X89500Y27500D02*
D03*
X98117Y32193D02*
D03*
X96388Y27762D02*
D03*
X96467Y28524D02*
D03*
X91595Y31565D02*
D03*
X93059Y31835D02*
D03*
X93942Y31201D02*
D03*
X94827Y29759D02*
D03*
X113776Y45186D02*
D03*
X114366Y45843D02*
D03*
X113034Y44444D02*
D03*
X112320Y45770D02*
D03*
X108234Y52462D02*
D03*
Y51652D02*
D03*
X48000Y26000D02*
D03*
X117771Y25220D02*
D03*
X77250Y44750D02*
D03*
X94500Y32000D02*
D03*
Y30500D02*
D03*
X72000Y50000D02*
D03*
X33600Y30950D02*
D03*
X35500Y32000D02*
D03*
Y26000D02*
D03*
X106000Y47000D02*
D03*
Y45000D02*
D03*
X110869Y50997D02*
D03*
X106000Y51000D02*
D03*
X102250Y50000D02*
D03*
X102250Y52000D02*
D03*
X108250Y49250D02*
D03*
X106000Y43000D02*
D03*
X112000Y53000D02*
D03*
X116000Y49000D02*
D03*
Y53000D02*
D03*
X121800Y52000D02*
D03*
Y50000D02*
D03*
Y47000D02*
D03*
X121750Y41000D02*
D03*
X121800Y55000D02*
D03*
X115000Y41000D02*
D03*
X116000Y47000D02*
D03*
X116850D02*
D03*
X106750Y23500D02*
D03*
X110000Y55000D02*
D03*
X107250Y31000D02*
D03*
X103000Y41000D02*
D03*
X102250Y56500D02*
D03*
X110000Y41000D02*
D03*
X102250Y45500D02*
D03*
Y46500D02*
D03*
X104000Y29000D02*
D03*
Y33000D02*
D03*
X121800Y59000D02*
D03*
X51000Y54000D02*
D03*
X52257Y59905D02*
D03*
X68257D02*
D03*
X67000Y54000D02*
D03*
X84257Y59905D02*
D03*
X83000Y54000D02*
D03*
X106750Y22300D02*
D03*
X109000Y11000D02*
D03*
X116000Y55000D02*
D03*
X90000Y52500D02*
D03*
X88800Y34200D02*
D03*
X89500Y31500D02*
D03*
Y29500D02*
D03*
X49000Y17972D02*
D03*
Y15432D02*
D03*
Y12892D02*
D03*
Y7812D02*
D03*
X76690Y10352D02*
D03*
X49000Y23052D02*
D03*
X86000Y28750D02*
D03*
X124250Y20000D02*
D03*
X37500Y30000D02*
D03*
X113250Y50236D02*
D03*
X114000Y51000D02*
D03*
X91000Y58750D02*
D03*
X113250Y51750D02*
D03*
X114750Y51742D02*
D03*
Y50273D02*
D03*
X95500Y20000D02*
D03*
X123175Y51950D02*
D03*
X86500Y25000D02*
D03*
Y24000D02*
D03*
X101500Y20000D02*
D03*
X103650Y12050D02*
D03*
X97500Y25750D02*
D03*
X96355Y24000D02*
D03*
X54500Y9000D02*
D03*
X92262Y30934D02*
D03*
X94000Y27500D02*
D03*
X49000Y10352D02*
D03*
X71000Y7812D02*
D03*
Y5272D02*
D03*
Y23005D02*
D03*
X87750Y34750D02*
D03*
X119250Y9500D02*
D03*
X112250Y20000D02*
D03*
X89750Y40500D02*
D03*
X115179Y24719D02*
D03*
X114381Y34966D02*
D03*
X116000Y38347D02*
D03*
Y37500D02*
D03*
X65000Y21250D02*
D03*
X45239Y7813D02*
D03*
X94500Y42000D02*
D03*
X91000Y64000D02*
D03*
X124000Y26500D02*
D03*
X95750Y50000D02*
D03*
X137500Y40000D02*
D03*
X97250Y58750D02*
D03*
X131000Y40000D02*
D03*
X92500Y65000D02*
D03*
X96000Y62500D02*
D03*
X128132Y52635D02*
D03*
X89500Y65000D02*
D03*
X123025Y42000D02*
D03*
X45250Y5250D02*
D03*
X125500Y34750D02*
D03*
X84887Y24756D02*
D03*
X71190Y16600D02*
D03*
X69900Y14250D02*
D03*
X62432Y22000D02*
D03*
X86000Y62500D02*
D03*
X88250Y50000D02*
D03*
%TF.MD5,b1024e69c36a93841f890c66d17203da*%
M02*
