%TF.GenerationSoftware,Altium Limited,Altium Designer,22.7.1 (60)*%
G04 Layer_Physical_Order=2*
G04 Layer_Color=16711680*
%FSLAX43Y43*%
%MOMM*%
%TF.SameCoordinates,FE58890B-FB48-4B87-A9EE-914DEB8A6D29*%
%TF.FilePolarity,Positive*%
%TF.FileFunction,Copper,L2,Bot,Signal*%
%TF.Part,Single*%
G01*
G75*
%TA.AperFunction,SMDPad,CuDef*%
%ADD16R,1.300X0.900*%
%ADD17R,0.900X1.300*%
%TA.AperFunction,Conductor*%
%ADD34C,0.300*%
%ADD35C,0.200*%
%ADD36C,0.250*%
%ADD37C,0.500*%
%TA.AperFunction,ComponentPad*%
%ADD40R,1.700X1.700*%
%ADD41C,1.700*%
%ADD42C,1.500*%
%ADD43R,1.408X1.408*%
%ADD44C,1.408*%
%ADD45C,3.250*%
%ADD46C,2.400*%
%ADD47C,1.508*%
%ADD48C,1.400*%
%ADD49C,1.600*%
G04:AMPARAMS|DCode=50|XSize=1.6mm|YSize=1.6mm|CornerRadius=0.4mm|HoleSize=0mm|Usage=FLASHONLY|Rotation=90.000|XOffset=0mm|YOffset=0mm|HoleType=Round|Shape=RoundedRectangle|*
%AMROUNDEDRECTD50*
21,1,1.600,0.800,0,0,90.0*
21,1,0.800,1.600,0,0,90.0*
1,1,0.800,0.400,0.400*
1,1,0.800,0.400,-0.400*
1,1,0.800,-0.400,-0.400*
1,1,0.800,-0.400,0.400*
%
%ADD50ROUNDEDRECTD50*%
G04:AMPARAMS|DCode=51|XSize=1.6mm|YSize=1.6mm|CornerRadius=0.4mm|HoleSize=0mm|Usage=FLASHONLY|Rotation=0.000|XOffset=0mm|YOffset=0mm|HoleType=Round|Shape=RoundedRectangle|*
%AMROUNDEDRECTD51*
21,1,1.600,0.800,0,0,0.0*
21,1,0.800,1.600,0,0,0.0*
1,1,0.800,0.400,-0.400*
1,1,0.800,-0.400,-0.400*
1,1,0.800,-0.400,0.400*
1,1,0.800,0.400,0.400*
%
%ADD51ROUNDEDRECTD51*%
%ADD52C,2.000*%
%ADD53C,1.950*%
G04:AMPARAMS|DCode=54|XSize=1.95mm|YSize=1.95mm|CornerRadius=0.488mm|HoleSize=0mm|Usage=FLASHONLY|Rotation=180.000|XOffset=0mm|YOffset=0mm|HoleType=Round|Shape=RoundedRectangle|*
%AMROUNDEDRECTD54*
21,1,1.950,0.975,0,0,180.0*
21,1,0.975,1.950,0,0,180.0*
1,1,0.975,-0.488,0.488*
1,1,0.975,0.488,0.488*
1,1,0.975,0.488,-0.488*
1,1,0.975,-0.488,-0.488*
%
%ADD54ROUNDEDRECTD54*%
%TA.AperFunction,ViaPad*%
%ADD55C,3.200*%
%TA.AperFunction,ComponentPad*%
%ADD56R,1.110X1.110*%
%ADD57C,1.110*%
%ADD58C,1.300*%
G04:AMPARAMS|DCode=59|XSize=1.3mm|YSize=1.3mm|CornerRadius=0.325mm|HoleSize=0mm|Usage=FLASHONLY|Rotation=180.000|XOffset=0mm|YOffset=0mm|HoleType=Round|Shape=RoundedRectangle|*
%AMROUNDEDRECTD59*
21,1,1.300,0.650,0,0,180.0*
21,1,0.650,1.300,0,0,180.0*
1,1,0.650,-0.325,0.325*
1,1,0.650,0.325,0.325*
1,1,0.650,0.325,-0.325*
1,1,0.650,-0.325,-0.325*
%
%ADD59ROUNDEDRECTD59*%
%TA.AperFunction,ViaPad*%
%ADD60C,0.610*%
G36*
X145745Y63163D02*
X124019Y63163D01*
X124000Y63163D01*
X124000Y63163D01*
X123884Y63116D01*
X123837Y63000D01*
X123837Y63000D01*
X123837Y62981D01*
Y52326D01*
X123665Y52260D01*
X123587Y52253D01*
X123461Y52378D01*
X123275Y52455D01*
X123275D01*
Y51950D01*
Y51445D01*
X123275D01*
X123461Y51522D01*
X123587Y51647D01*
X123665Y51640D01*
X123837Y51574D01*
Y41000D01*
X123884Y40884D01*
X124000Y40837D01*
X139755D01*
X139864Y40675D01*
X139897Y40590D01*
X139883Y40569D01*
X139808Y40388D01*
X139803Y40363D01*
X139793Y40340D01*
X139755Y40148D01*
Y40129D01*
X139750Y40111D01*
X139745Y40013D01*
X139746Y40006D01*
X139745Y40000D01*
X139745Y16478D01*
X139681Y16246D01*
X139095Y16189D01*
X139083Y16185D01*
X139070D01*
X138492Y16070D01*
X138481Y16065D01*
X138468Y16064D01*
X137905Y15893D01*
X137894Y15887D01*
X137881Y15885D01*
X137337Y15659D01*
X137327Y15652D01*
X137315Y15649D01*
X136795Y15371D01*
X136785Y15363D01*
X136774Y15358D01*
X136284Y15031D01*
X136275Y15022D01*
X136264Y15016D01*
X135809Y14643D01*
X135801Y14633D01*
X135790Y14626D01*
X135374Y14210D01*
X135367Y14199D01*
X135357Y14191D01*
X134984Y13736D01*
X134978Y13725D01*
X134969Y13716D01*
X134642Y13226D01*
X134637Y13215D01*
X134629Y13205D01*
X134351Y12685D01*
X134348Y12673D01*
X134341Y12663D01*
X134115Y12119D01*
X134113Y12106D01*
X134107Y12095D01*
X133936Y11532D01*
X133935Y11519D01*
X133930Y11508D01*
X133815Y10930D01*
Y10917D01*
X133811Y10905D01*
X133754Y10319D01*
X133755Y10310D01*
X133752Y10301D01*
X133745Y10006D01*
X133746Y10003D01*
X133745Y10000D01*
X133745Y4927D01*
X133716Y4783D01*
X133660Y4647D01*
X133579Y4525D01*
X133475Y4421D01*
X133353Y4340D01*
X133217Y4284D01*
X133073Y4255D01*
X54766D01*
X54670Y4486D01*
X55200Y5016D01*
X70612D01*
X70613Y5014D01*
X70742Y4885D01*
X70909Y4816D01*
X71091D01*
X71258Y4885D01*
X71387Y5014D01*
X71456Y5181D01*
Y5363D01*
X71387Y5530D01*
X71258Y5658D01*
X71091Y5728D01*
X70909D01*
X70742Y5658D01*
X70613Y5530D01*
X70612Y5528D01*
X55094D01*
X55094Y5528D01*
X54996Y5508D01*
X54913Y5453D01*
X54913Y5453D01*
X54116Y4656D01*
X45627D01*
X45599Y4705D01*
X45551Y4906D01*
X45637Y4992D01*
X45706Y5159D01*
Y5341D01*
X45637Y5508D01*
X45508Y5637D01*
X45341Y5706D01*
X45159D01*
X44992Y5637D01*
X44863Y5508D01*
X44794Y5341D01*
Y5256D01*
X43006D01*
X42873Y5506D01*
X42919Y5575D01*
X42962Y5790D01*
Y6513D01*
X43023Y6632D01*
X43186Y6744D01*
X45334D01*
X45759Y6319D01*
X45759Y6319D01*
X45842Y6264D01*
X45940Y6244D01*
X69688D01*
X69688Y6244D01*
X69786Y6264D01*
X69869Y6319D01*
X70907Y7357D01*
X70909Y7356D01*
X71091D01*
X71258Y7425D01*
X71387Y7554D01*
X71456Y7721D01*
Y7903D01*
X71387Y8070D01*
X71258Y8198D01*
X71091Y8268D01*
X70909D01*
X70742Y8198D01*
X70613Y8070D01*
X70544Y7903D01*
Y7721D01*
X70545Y7719D01*
X69582Y6756D01*
X46046D01*
X45621Y7181D01*
X45595Y7198D01*
X45572Y7253D01*
X45551Y7402D01*
X45558Y7487D01*
X45625Y7555D01*
X45695Y7723D01*
Y7904D01*
X45625Y8072D01*
X45497Y8200D01*
X45330Y8269D01*
X45148D01*
X44981Y8200D01*
X44852Y8072D01*
X44783Y7904D01*
Y7768D01*
X44771Y7756D01*
X43183D01*
X43166Y7773D01*
X43083Y7828D01*
X42985Y7848D01*
X42985Y7848D01*
X42816D01*
X42713Y8098D01*
X42761Y8146D01*
X42886Y8363D01*
X42951Y8605D01*
Y8855D01*
X42886Y9097D01*
X42761Y9314D01*
X42584Y9491D01*
X42367Y9616D01*
X42125Y9681D01*
X41875D01*
X41633Y9616D01*
X41416Y9491D01*
X41239Y9314D01*
X41114Y9097D01*
X41049Y8855D01*
Y8605D01*
X41114Y8363D01*
X41239Y8146D01*
X41287Y8098D01*
X41184Y7848D01*
X35514D01*
X29893Y13469D01*
X29951Y13685D01*
Y13935D01*
X29886Y14177D01*
X29761Y14394D01*
X29584Y14571D01*
X29367Y14696D01*
X29125Y14761D01*
X28875D01*
X28633Y14696D01*
X28416Y14571D01*
X28239Y14394D01*
X28114Y14177D01*
X28049Y13935D01*
Y13685D01*
X28114Y13443D01*
X28239Y13226D01*
X28416Y13049D01*
X28633Y12924D01*
X28875Y12859D01*
X29125D01*
X29367Y12924D01*
X29584Y13049D01*
X29587Y13052D01*
X34910Y7728D01*
X34815Y7497D01*
X33135D01*
X29829Y10803D01*
X29886Y10903D01*
X29951Y11145D01*
Y11395D01*
X29886Y11637D01*
X29761Y11854D01*
X29584Y12031D01*
X29367Y12156D01*
X29125Y12221D01*
X28875D01*
X28633Y12156D01*
X28416Y12031D01*
X28239Y11854D01*
X28114Y11637D01*
X28049Y11395D01*
Y11145D01*
X28114Y10903D01*
X28239Y10686D01*
X28416Y10509D01*
X28633Y10384D01*
X28875Y10319D01*
X29125D01*
X29367Y10384D01*
X29467Y10441D01*
X32848Y7060D01*
X32848Y7060D01*
X32931Y7005D01*
X33029Y6985D01*
X33029Y6985D01*
X40924D01*
X41067Y6735D01*
X41038Y6590D01*
Y5790D01*
X41081Y5575D01*
X41127Y5506D01*
X40994Y5256D01*
X32836D01*
X29829Y8263D01*
X29886Y8363D01*
X29951Y8605D01*
Y8855D01*
X29886Y9097D01*
X29761Y9314D01*
X29584Y9491D01*
X29367Y9616D01*
X29125Y9681D01*
X28875D01*
X28633Y9616D01*
X28416Y9491D01*
X28239Y9314D01*
X28114Y9097D01*
X28049Y8855D01*
Y8605D01*
X28114Y8363D01*
X28239Y8146D01*
X28416Y7969D01*
X28633Y7844D01*
X28875Y7779D01*
X29125D01*
X29367Y7844D01*
X29467Y7901D01*
X32462Y4906D01*
X32359Y4656D01*
X30896D01*
X29929Y5623D01*
X29962Y5790D01*
Y6590D01*
X29919Y6805D01*
X29797Y6987D01*
X29615Y7109D01*
X29400Y7152D01*
X28600D01*
X28385Y7109D01*
X28203Y6987D01*
X28081Y6805D01*
X28038Y6590D01*
Y5790D01*
X28081Y5575D01*
X28203Y5393D01*
X28385Y5271D01*
X28600Y5228D01*
X29400D01*
X29567Y5261D01*
X30342Y4486D01*
X30247Y4255D01*
X23899D01*
X23786Y4505D01*
X24095Y4858D01*
X24470Y5419D01*
X24769Y6025D01*
X24986Y6664D01*
X25118Y7326D01*
X25162Y8000D01*
X25118Y8674D01*
X24986Y9336D01*
X24769Y9975D01*
X24470Y10581D01*
X24095Y11142D01*
X23650Y11650D01*
X23142Y12095D01*
X22581Y12470D01*
X21975Y12769D01*
X21336Y12986D01*
X20674Y13118D01*
X20000Y13162D01*
X19326Y13118D01*
X18664Y12986D01*
X18025Y12769D01*
X17419Y12470D01*
X16858Y12095D01*
X16505Y11786D01*
X16255Y11899D01*
Y46050D01*
X43760D01*
Y47945D01*
X43859D01*
X44051Y47996D01*
X44224Y48096D01*
X44364Y48236D01*
X44464Y48409D01*
X44515Y48600D01*
X43760D01*
Y48800D01*
X44515D01*
X44464Y48991D01*
X44364Y49164D01*
X44224Y49304D01*
X44051Y49404D01*
X43859Y49455D01*
X43760D01*
Y58154D01*
X43853D01*
X44033Y58202D01*
X44193Y58295D01*
X44325Y58427D01*
X44418Y58588D01*
X44466Y58767D01*
Y58953D01*
X44418Y59133D01*
X44325Y59293D01*
X44234Y59384D01*
X52350Y67500D01*
X52350D01*
X52350Y67500D01*
X52350Y67500D01*
X86249D01*
Y66499D01*
X88251D01*
Y67500D01*
X89098D01*
X89999D01*
Y67368D01*
X90067Y67114D01*
X90199Y66885D01*
X90385Y66699D01*
X90591Y66580D01*
Y64205D01*
X90544Y64091D01*
Y63909D01*
X90591Y63795D01*
Y58955D01*
X90544Y58841D01*
Y58659D01*
X90591Y58545D01*
Y53669D01*
X89856Y52934D01*
X89742Y52887D01*
X89613Y52758D01*
X89544Y52591D01*
Y52409D01*
X89613Y52242D01*
X89742Y52113D01*
X89909Y52044D01*
X90091D01*
X90258Y52113D01*
X90387Y52242D01*
X90434Y52356D01*
X91289Y53211D01*
X91378Y53344D01*
X91409Y53500D01*
Y58545D01*
X91456Y58659D01*
Y58841D01*
X91409Y58955D01*
Y63795D01*
X91456Y63909D01*
Y64091D01*
X91409Y64205D01*
Y66580D01*
X91615Y66699D01*
X91801Y66885D01*
X91933Y67114D01*
X92001Y67368D01*
Y67500D01*
X93749D01*
Y67368D01*
X93817Y67114D01*
X93949Y66885D01*
X94135Y66699D01*
X94364Y66567D01*
X94618Y66499D01*
X94882D01*
X95136Y66567D01*
X95365Y66699D01*
X95551Y66885D01*
X95683Y67114D01*
X95751Y67368D01*
Y67500D01*
X145745Y67500D01*
Y63163D01*
D02*
G37*
G36*
Y63000D02*
Y42000D01*
Y41927D01*
X145716Y41783D01*
X145660Y41647D01*
X145579Y41525D01*
X145475Y41421D01*
X145353Y41340D01*
X145217Y41284D01*
X145073Y41255D01*
X141000D01*
X140994Y41254D01*
X140987Y41255D01*
X140889Y41250D01*
X140871Y41245D01*
X140852D01*
X140660Y41207D01*
X140637Y41197D01*
X140612Y41192D01*
X140431Y41117D01*
X140410Y41103D01*
X140387Y41094D01*
X140247Y41000D01*
X124000D01*
Y63000D01*
X145745Y63000D01*
D02*
G37*
%LPC*%
G36*
X92600Y65505D02*
X92600D01*
Y65100D01*
X93005D01*
Y65100D01*
X92928Y65286D01*
X92786Y65428D01*
X92600Y65505D01*
D02*
G37*
G36*
X92400D02*
X92400D01*
X92214Y65428D01*
X92072Y65286D01*
X91995Y65100D01*
Y65100D01*
X92400D01*
Y65505D01*
D02*
G37*
G36*
X89600D02*
X89600D01*
Y65100D01*
X90005D01*
Y65100D01*
X89928Y65286D01*
X89786Y65428D01*
X89600Y65505D01*
D02*
G37*
G36*
X89400D02*
X89400D01*
X89214Y65428D01*
X89072Y65286D01*
X88995Y65100D01*
Y65100D01*
X89400D01*
Y65505D01*
D02*
G37*
G36*
X93005Y64900D02*
X92600D01*
Y64495D01*
X92600D01*
X92786Y64572D01*
X92928Y64714D01*
X93005Y64900D01*
Y64900D01*
D02*
G37*
G36*
X92400D02*
X91995D01*
Y64900D01*
X92072Y64714D01*
X92214Y64572D01*
X92400Y64495D01*
X92400D01*
Y64900D01*
D02*
G37*
G36*
X90005D02*
X89600D01*
Y64495D01*
X89600D01*
X89786Y64572D01*
X89928Y64714D01*
X90005Y64900D01*
Y64900D01*
D02*
G37*
G36*
X89400D02*
X88995D01*
Y64900D01*
X89072Y64714D01*
X89214Y64572D01*
X89400Y64495D01*
X89400D01*
Y64900D01*
D02*
G37*
G36*
X87500Y64964D02*
X86500D01*
X86384Y64916D01*
X86337Y64800D01*
Y63275D01*
X86337Y63200D01*
X86343Y63151D01*
X86342Y63116D01*
X86173Y62940D01*
X86109Y62948D01*
X86091Y62956D01*
X86091Y62956D01*
X86079Y62956D01*
X85909D01*
X85742Y62887D01*
X85613Y62758D01*
X85544Y62591D01*
Y62409D01*
X85613Y62242D01*
X85742Y62113D01*
X85909Y62044D01*
X86022D01*
X87943Y60123D01*
Y50338D01*
X87863Y50258D01*
X87794Y50091D01*
Y49909D01*
X87863Y49742D01*
X87992Y49613D01*
X88159Y49544D01*
X88341D01*
X88508Y49613D01*
X88637Y49742D01*
X88706Y49909D01*
Y50091D01*
X88637Y50258D01*
X88557Y50338D01*
Y60250D01*
X88534Y60367D01*
X88467Y60467D01*
X86456Y62478D01*
Y62591D01*
X86405Y62713D01*
X86387Y62758D01*
X86373Y62805D01*
X86370Y62853D01*
X86541Y63036D01*
X86589Y63036D01*
X87500D01*
X87616Y63084D01*
X87663Y63200D01*
Y64800D01*
X87616Y64916D01*
X87500Y64964D01*
D02*
G37*
G36*
X84358Y60410D02*
X84357D01*
Y60005D01*
X84762D01*
Y60005D01*
X84686Y60191D01*
X84543Y60333D01*
X84358Y60410D01*
D02*
G37*
G36*
X84157D02*
X84157D01*
X83971Y60333D01*
X83829Y60191D01*
X83752Y60005D01*
Y60005D01*
X84157D01*
Y60410D01*
D02*
G37*
G36*
X68358Y60410D02*
X68357D01*
Y60005D01*
X68762D01*
Y60005D01*
X68686Y60191D01*
X68543Y60333D01*
X68358Y60410D01*
D02*
G37*
G36*
X68157D02*
X68157D01*
X67971Y60333D01*
X67829Y60191D01*
X67752Y60005D01*
Y60005D01*
X68157D01*
Y60410D01*
D02*
G37*
G36*
X52358D02*
X52357D01*
Y60005D01*
X52762D01*
Y60005D01*
X52686Y60191D01*
X52543Y60333D01*
X52358Y60410D01*
D02*
G37*
G36*
X52157D02*
X52157D01*
X51971Y60333D01*
X51829Y60191D01*
X51752Y60005D01*
Y60005D01*
X52157D01*
Y60410D01*
D02*
G37*
G36*
X84762Y59805D02*
X84357D01*
Y59400D01*
X84358D01*
X84543Y59477D01*
X84686Y59619D01*
X84762Y59805D01*
Y59805D01*
D02*
G37*
G36*
X84157D02*
X83752D01*
Y59805D01*
X83829Y59619D01*
X83971Y59477D01*
X84157Y59400D01*
X84157D01*
Y59805D01*
D02*
G37*
G36*
X68762Y59805D02*
X68357D01*
Y59400D01*
X68358D01*
X68543Y59477D01*
X68686Y59619D01*
X68762Y59805D01*
Y59805D01*
D02*
G37*
G36*
X68157D02*
X67752D01*
Y59805D01*
X67829Y59619D01*
X67971Y59477D01*
X68157Y59400D01*
X68157D01*
Y59805D01*
D02*
G37*
G36*
X52762D02*
X52357D01*
Y59400D01*
X52358D01*
X52543Y59477D01*
X52686Y59619D01*
X52762Y59805D01*
Y59805D01*
D02*
G37*
G36*
X52157D02*
X51752D01*
Y59805D01*
X51829Y59619D01*
X51971Y59477D01*
X52157Y59400D01*
X52157D01*
Y59805D01*
D02*
G37*
G36*
X116100Y55505D02*
X116100D01*
Y55100D01*
X116505D01*
Y55100D01*
X116428Y55286D01*
X116286Y55428D01*
X116100Y55505D01*
D02*
G37*
G36*
X114857Y55850D02*
X114307D01*
Y55100D01*
X114857D01*
Y55850D01*
D02*
G37*
G36*
X116505Y54900D02*
X116100D01*
Y54495D01*
X116100D01*
X116286Y54572D01*
X116428Y54714D01*
X116505Y54900D01*
Y54900D01*
D02*
G37*
G36*
X121891Y59456D02*
X121709D01*
X121542Y59387D01*
X121413Y59258D01*
X121344Y59091D01*
Y58909D01*
X121391Y58795D01*
Y55205D01*
X121344Y55091D01*
Y54909D01*
X121391Y54795D01*
Y52307D01*
X118808D01*
Y52551D01*
X117206D01*
Y52551D01*
X117058D01*
Y52551D01*
X116563D01*
Y52743D01*
X116540Y52861D01*
X116474Y52960D01*
X116456Y52978D01*
Y53091D01*
X116387Y53258D01*
X116258Y53387D01*
X116091Y53456D01*
X115909D01*
X115857Y53434D01*
X115609Y53576D01*
X115607Y53581D01*
X115607Y54100D01*
X115607Y54353D01*
X115857Y54513D01*
X115900Y54495D01*
X115900D01*
Y55000D01*
Y55505D01*
X115900D01*
X115857Y55487D01*
X115607Y55647D01*
Y55850D01*
X115057D01*
Y55000D01*
X114957D01*
Y54900D01*
X114307D01*
Y54350D01*
X114307Y54150D01*
X114307Y53900D01*
Y53350D01*
X114957D01*
Y53150D01*
X114307D01*
Y52400D01*
X114367D01*
X114434Y52242D01*
X114444Y52150D01*
X114322Y52028D01*
X114245Y51842D01*
Y51842D01*
X114750D01*
Y51742D01*
X114850D01*
Y51237D01*
X114850D01*
X115036Y51314D01*
X115178Y51456D01*
X115206Y51522D01*
X115456Y51472D01*
Y51349D01*
X117058D01*
Y51349D01*
X117206D01*
Y51349D01*
X118808D01*
Y51653D01*
X118874Y51666D01*
X118914Y51693D01*
X121391D01*
Y50205D01*
X121344Y50091D01*
Y49909D01*
X121391Y49795D01*
Y47205D01*
X121344Y47091D01*
Y46909D01*
X121391Y46795D01*
Y45205D01*
X121344Y45091D01*
Y44909D01*
X121391Y44795D01*
Y41286D01*
X121363Y41258D01*
X121294Y41091D01*
Y40909D01*
X121363Y40742D01*
X121492Y40613D01*
X121659Y40544D01*
X121841D01*
X122008Y40613D01*
X122137Y40742D01*
X122206Y40909D01*
Y40986D01*
X122209Y41000D01*
Y44795D01*
X122256Y44909D01*
Y45091D01*
X122209Y45205D01*
Y46795D01*
X122256Y46909D01*
Y47091D01*
X122209Y47205D01*
Y49795D01*
X122256Y49909D01*
Y50091D01*
X122209Y50205D01*
Y51795D01*
X122256Y51909D01*
Y52091D01*
X122209Y52205D01*
Y54795D01*
X122256Y54909D01*
Y55091D01*
X122209Y55205D01*
Y58795D01*
X122256Y58909D01*
Y59091D01*
X122187Y59258D01*
X122058Y59387D01*
X121891Y59456D01*
D02*
G37*
G36*
X83100Y54505D02*
X83100D01*
Y54100D01*
X83505D01*
Y54100D01*
X83428Y54286D01*
X83286Y54428D01*
X83100Y54505D01*
D02*
G37*
G36*
X82900D02*
X82900D01*
X82714Y54428D01*
X82572Y54286D01*
X82495Y54100D01*
Y54100D01*
X82900D01*
Y54505D01*
D02*
G37*
G36*
X67100Y54505D02*
X67100D01*
Y54100D01*
X67505D01*
Y54100D01*
X67428Y54286D01*
X67286Y54428D01*
X67100Y54505D01*
D02*
G37*
G36*
X66900D02*
X66900D01*
X66714Y54428D01*
X66572Y54286D01*
X66495Y54100D01*
Y54100D01*
X66900D01*
Y54505D01*
D02*
G37*
G36*
X51100D02*
X51100D01*
Y54100D01*
X51505D01*
Y54100D01*
X51428Y54286D01*
X51286Y54428D01*
X51100Y54505D01*
D02*
G37*
G36*
X50900D02*
X50900D01*
X50714Y54428D01*
X50572Y54286D01*
X50495Y54100D01*
Y54100D01*
X50900D01*
Y54505D01*
D02*
G37*
G36*
X83505Y53900D02*
X83100D01*
Y53495D01*
X83100D01*
X83286Y53572D01*
X83428Y53714D01*
X83505Y53900D01*
Y53900D01*
D02*
G37*
G36*
X82900D02*
X82495D01*
Y53900D01*
X82572Y53714D01*
X82714Y53572D01*
X82900Y53495D01*
X82900D01*
Y53900D01*
D02*
G37*
G36*
X67505Y53900D02*
X67100D01*
Y53495D01*
X67100D01*
X67286Y53572D01*
X67428Y53714D01*
X67505Y53900D01*
Y53900D01*
D02*
G37*
G36*
X66900D02*
X66495D01*
Y53900D01*
X66572Y53714D01*
X66714Y53572D01*
X66900Y53495D01*
X66900D01*
Y53900D01*
D02*
G37*
G36*
X51505D02*
X51100D01*
Y53495D01*
X51100D01*
X51286Y53572D01*
X51428Y53714D01*
X51505Y53900D01*
Y53900D01*
D02*
G37*
G36*
X50900D02*
X50495D01*
Y53900D01*
X50572Y53714D01*
X50714Y53572D01*
X50900Y53495D01*
X50900D01*
Y53900D01*
D02*
G37*
G36*
X123075Y52455D02*
X123075D01*
X122889Y52378D01*
X122747Y52236D01*
X122670Y52050D01*
Y52050D01*
X123075D01*
Y52455D01*
D02*
G37*
G36*
Y51850D02*
X122670D01*
Y51850D01*
X122747Y51664D01*
X122889Y51522D01*
X123075Y51445D01*
X123075D01*
Y51850D01*
D02*
G37*
G36*
X118107Y50700D02*
Y50150D01*
X118857D01*
Y50700D01*
X118107D01*
D02*
G37*
G36*
X72100Y50505D02*
X72100D01*
Y50100D01*
X72505D01*
Y50100D01*
X72428Y50286D01*
X72286Y50428D01*
X72100Y50505D01*
D02*
G37*
G36*
X71900D02*
X71900D01*
X71714Y50428D01*
X71572Y50286D01*
X71495Y50100D01*
Y50100D01*
X71900D01*
Y50505D01*
D02*
G37*
G36*
X95500Y64964D02*
X94500D01*
X94384Y64916D01*
X94337Y64800D01*
Y63200D01*
X94384Y63084D01*
X94500Y63036D01*
X95392D01*
X95459Y63036D01*
X95630Y62853D01*
X95627Y62805D01*
X95613Y62758D01*
X95595Y62713D01*
X95544Y62591D01*
Y62476D01*
X95533Y62465D01*
X95466Y62365D01*
X95443Y62248D01*
Y50338D01*
X95363Y50258D01*
X95294Y50091D01*
Y49909D01*
X95363Y49742D01*
X95492Y49613D01*
X95659Y49544D01*
X95841D01*
X96008Y49613D01*
X96137Y49742D01*
X96206Y49909D01*
Y50091D01*
X96137Y50258D01*
X96057Y50338D01*
Y62044D01*
X96091D01*
X96258Y62113D01*
X96387Y62242D01*
X96456Y62409D01*
Y62591D01*
X96387Y62758D01*
X96258Y62887D01*
X96091Y62956D01*
X95921D01*
X95909Y62956D01*
X95909Y62956D01*
X95891Y62948D01*
X95827Y62940D01*
X95658Y63116D01*
X95657Y63151D01*
X95663Y63200D01*
X95663Y63275D01*
Y64800D01*
X95616Y64916D01*
X95500Y64964D01*
D02*
G37*
G36*
X72505Y49900D02*
X72100D01*
Y49495D01*
X72100D01*
X72286Y49572D01*
X72428Y49714D01*
X72505Y49900D01*
Y49900D01*
D02*
G37*
G36*
X71900D02*
X71495D01*
Y49900D01*
X71572Y49714D01*
X71714Y49572D01*
X71900Y49495D01*
X71900D01*
Y49900D01*
D02*
G37*
G36*
X118857Y49950D02*
X118107D01*
Y49400D01*
X118857D01*
Y49950D01*
D02*
G37*
G36*
X97341Y59206D02*
X97159D01*
X96992Y59137D01*
X96863Y59008D01*
X96794Y58841D01*
Y58659D01*
X96836Y58558D01*
X96823Y58495D01*
X96823Y58495D01*
Y40394D01*
X96573Y40290D01*
X95658Y41206D01*
X95654Y41208D01*
X94955Y41907D01*
X94956Y41909D01*
Y42091D01*
X94887Y42258D01*
X94758Y42387D01*
X94591Y42456D01*
X94409D01*
X94242Y42387D01*
X94113Y42258D01*
X94044Y42091D01*
Y41909D01*
X94113Y41742D01*
X94242Y41613D01*
X94409Y41544D01*
X94591D01*
X94593Y41545D01*
X95132Y41006D01*
X95029Y40756D01*
X90138D01*
X90137Y40758D01*
X90008Y40887D01*
X89841Y40956D01*
X89659D01*
X89492Y40887D01*
X89363Y40758D01*
X89294Y40591D01*
Y40409D01*
X89363Y40242D01*
X89492Y40113D01*
X89659Y40044D01*
X89841D01*
X90008Y40113D01*
X90137Y40242D01*
X90138Y40244D01*
X95399D01*
X95655Y39988D01*
Y31534D01*
X95424Y31438D01*
X94955Y31907D01*
X94956Y31909D01*
Y32091D01*
X94887Y32258D01*
X94758Y32387D01*
X94591Y32456D01*
X94409D01*
X94407Y32455D01*
X94176Y32686D01*
X94093Y32741D01*
X93995Y32761D01*
X93995Y32761D01*
X93220D01*
X93215Y32762D01*
X93215Y32762D01*
X92795D01*
X92795Y32762D01*
X92790Y32761D01*
X73935D01*
X73902Y33011D01*
X74116Y33068D01*
X74344Y33200D01*
X74530Y33386D01*
X74662Y33614D01*
X74730Y33868D01*
Y33900D01*
X72730D01*
Y33868D01*
X72798Y33614D01*
X72930Y33386D01*
X73116Y33200D01*
X73344Y33068D01*
X73558Y33011D01*
X73525Y32761D01*
X70251D01*
X69579Y33433D01*
X69612Y33600D01*
Y34400D01*
X69569Y34615D01*
X69447Y34797D01*
X69265Y34919D01*
X69050Y34962D01*
X68250D01*
X68035Y34919D01*
X67853Y34797D01*
X67731Y34615D01*
X67688Y34400D01*
Y33600D01*
X67731Y33385D01*
X67853Y33203D01*
X68035Y33081D01*
X68250Y33038D01*
X69050D01*
X69217Y33071D01*
X69964Y32324D01*
X70047Y32269D01*
X70145Y32249D01*
X70145Y32249D01*
X91402D01*
X91451Y31999D01*
X91337Y31952D01*
X91208Y31823D01*
X91139Y31656D01*
Y31501D01*
X90670Y31032D01*
X90615Y30949D01*
X90595Y30851D01*
X90595Y30851D01*
Y30208D01*
X90364Y30112D01*
X89756Y30720D01*
Y31112D01*
X89758Y31113D01*
X89887Y31242D01*
X89956Y31409D01*
Y31591D01*
X89887Y31758D01*
X89758Y31887D01*
X89591Y31956D01*
X89409D01*
X89242Y31887D01*
X89113Y31758D01*
X89044Y31591D01*
Y31409D01*
X89113Y31242D01*
X89242Y31113D01*
X89244Y31112D01*
Y30614D01*
X89244Y30614D01*
X89264Y30516D01*
X89319Y30433D01*
X89546Y30206D01*
X89443Y29956D01*
X89409D01*
X89242Y29887D01*
X89113Y29758D01*
X89044Y29591D01*
Y29409D01*
X89113Y29242D01*
X89242Y29113D01*
X89409Y29044D01*
X89591D01*
X89593Y29045D01*
X89830Y28809D01*
Y28128D01*
X89591Y27956D01*
X89409D01*
X89242Y27887D01*
X89113Y27758D01*
X89112Y27756D01*
X40106D01*
X37955Y29907D01*
X37956Y29909D01*
Y30091D01*
X37887Y30258D01*
X37758Y30387D01*
X37591Y30456D01*
X37409D01*
X37242Y30387D01*
X37113Y30258D01*
X37044Y30091D01*
Y29909D01*
X37113Y29742D01*
X37242Y29613D01*
X37409Y29544D01*
X37591D01*
X37593Y29545D01*
X39819Y27319D01*
X39819Y27319D01*
X39902Y27264D01*
X40000Y27244D01*
X40000Y27244D01*
X50034D01*
X50147Y26994D01*
X50139Y26981D01*
X50022Y26875D01*
X47833D01*
X47833Y26875D01*
X47735Y26855D01*
X47652Y26800D01*
X47652Y26800D01*
X47608Y26756D01*
X38000D01*
X38000Y26756D01*
X37902Y26736D01*
X37819Y26681D01*
X37819Y26681D01*
X34357Y23219D01*
X34309Y23246D01*
X34105Y23301D01*
X33895D01*
X33691Y23246D01*
X33508Y23141D01*
X33359Y22992D01*
X33254Y22809D01*
X33199Y22605D01*
Y22395D01*
X33254Y22191D01*
X33359Y22008D01*
X33508Y21859D01*
X33691Y21754D01*
X33895Y21699D01*
X34105D01*
X34309Y21754D01*
X34492Y21859D01*
X34641Y22008D01*
X34746Y22191D01*
X34801Y22395D01*
Y22605D01*
X34746Y22809D01*
X34719Y22857D01*
X38106Y26244D01*
X39029D01*
X39132Y25994D01*
X36357Y23219D01*
X36309Y23246D01*
X36105Y23301D01*
X35895D01*
X35691Y23246D01*
X35508Y23141D01*
X35359Y22992D01*
X35254Y22809D01*
X35199Y22605D01*
Y22395D01*
X35254Y22191D01*
X35359Y22008D01*
X35508Y21859D01*
X35691Y21754D01*
X35895Y21699D01*
X36105D01*
X36309Y21754D01*
X36492Y21859D01*
X36641Y22008D01*
X36746Y22191D01*
X36801Y22395D01*
Y22605D01*
X36746Y22809D01*
X36719Y22857D01*
X39606Y25744D01*
X47612D01*
X47613Y25742D01*
X47742Y25613D01*
X47909Y25544D01*
X48091D01*
X48258Y25613D01*
X48289Y25644D01*
X48311Y25637D01*
X48350Y25475D01*
X48350Y25362D01*
X48213Y25225D01*
X48101Y25031D01*
X48043Y24815D01*
Y24591D01*
X48101Y24374D01*
X48213Y24180D01*
X48372Y24022D01*
X48566Y23910D01*
X48782Y23852D01*
X49006D01*
X49223Y23910D01*
X49417Y24022D01*
X49575Y24180D01*
X49687Y24374D01*
X49745Y24591D01*
Y24815D01*
X49687Y25031D01*
X49575Y25225D01*
X49417Y25384D01*
X49223Y25496D01*
X49262Y25744D01*
X71727D01*
X71766Y25496D01*
X71572Y25384D01*
X71413Y25225D01*
X71301Y25031D01*
X71243Y24815D01*
Y24591D01*
X71301Y24374D01*
X71413Y24180D01*
X71572Y24022D01*
X71766Y23910D01*
X71982Y23852D01*
X72206D01*
X72423Y23910D01*
X72617Y24022D01*
X72775Y24180D01*
X72887Y24374D01*
X72945Y24591D01*
Y24815D01*
X72887Y25031D01*
X72775Y25225D01*
X72617Y25384D01*
X72423Y25496D01*
X72462Y25744D01*
X84394D01*
X84660Y25479D01*
X84601Y25184D01*
X84601Y25184D01*
X84459Y25042D01*
X84382Y24856D01*
Y24856D01*
X84887D01*
Y24756D01*
X84987D01*
Y24251D01*
X84988D01*
X85174Y24328D01*
X85316Y24470D01*
X85610Y24528D01*
X86045Y24093D01*
X86044Y24091D01*
Y23909D01*
X86113Y23742D01*
X86242Y23613D01*
X86409Y23544D01*
X86591D01*
X86758Y23613D01*
X86887Y23742D01*
X86956Y23909D01*
Y24091D01*
X86887Y24258D01*
X86789Y24356D01*
X86772Y24500D01*
X86789Y24644D01*
X86887Y24742D01*
X86956Y24909D01*
Y25091D01*
X86887Y25258D01*
X86758Y25387D01*
X86591Y25456D01*
X86409D01*
X86407Y25455D01*
X85062Y26800D01*
X84979Y26855D01*
X84881Y26875D01*
X84881Y26875D01*
X50959D01*
X50843Y26981D01*
X50834Y26994D01*
X50948Y27244D01*
X89112D01*
X89113Y27242D01*
X89242Y27113D01*
X89409Y27044D01*
X89591D01*
X89830Y26872D01*
Y26493D01*
X89618Y26310D01*
X89436D01*
X89269Y26241D01*
X89140Y26112D01*
X89071Y25945D01*
Y25763D01*
X89140Y25596D01*
X89269Y25467D01*
X89324Y25445D01*
Y23970D01*
X88345Y22991D01*
X88095Y23095D01*
Y23115D01*
X88025Y23283D01*
X87897Y23411D01*
X87730Y23481D01*
X87548D01*
X87381Y23411D01*
X87252Y23283D01*
X87251Y23281D01*
X83525D01*
X83525Y23281D01*
X83427Y23261D01*
X83344Y23206D01*
X83344Y23206D01*
X82394Y22256D01*
X71115D01*
X71100Y22500D01*
X71139Y22516D01*
X71286Y22577D01*
X71428Y22719D01*
X71505Y22905D01*
Y22905D01*
X70495D01*
Y22905D01*
X70572Y22719D01*
X70714Y22577D01*
X70861Y22516D01*
X70900Y22500D01*
X70885Y22256D01*
X62820D01*
X62819Y22258D01*
X62690Y22387D01*
X62523Y22456D01*
X62341D01*
X62174Y22387D01*
X62045Y22258D01*
X62044Y22256D01*
X53028D01*
X53028Y22256D01*
X52930Y22236D01*
X52847Y22181D01*
X52847Y22181D01*
X49093Y18427D01*
X49091Y18428D01*
X48909D01*
X48742Y18359D01*
X48613Y18230D01*
X48544Y18063D01*
Y17881D01*
X48613Y17714D01*
X48742Y17585D01*
X48909Y17516D01*
X49091D01*
X49258Y17585D01*
X49387Y17714D01*
X49456Y17881D01*
Y18063D01*
X49455Y18065D01*
X53134Y21744D01*
X54734D01*
X54758Y21494D01*
X54720Y21486D01*
X54637Y21431D01*
X54637Y21431D01*
X49093Y15887D01*
X49091Y15888D01*
X48909D01*
X48742Y15819D01*
X48613Y15690D01*
X48544Y15523D01*
Y15341D01*
X48613Y15174D01*
X48742Y15045D01*
X48909Y14976D01*
X49091D01*
X49258Y15045D01*
X49322Y15109D01*
X49351Y15138D01*
X49561Y14998D01*
X49556Y14981D01*
X49556Y14981D01*
X49556Y14969D01*
Y14799D01*
X49626Y14632D01*
X49754Y14503D01*
X49922Y14434D01*
X50103D01*
X50271Y14503D01*
X50399Y14632D01*
X50468Y14799D01*
Y14981D01*
X50467Y14983D01*
X54729Y19244D01*
X55029D01*
X55132Y18994D01*
X49337Y13199D01*
X49258Y13279D01*
X49091Y13348D01*
X48909D01*
X48742Y13279D01*
X48613Y13150D01*
X48544Y12983D01*
Y12801D01*
X48613Y12634D01*
X48742Y12505D01*
X48909Y12436D01*
X49091D01*
X49258Y12505D01*
X49387Y12634D01*
X49388Y12636D01*
X49392D01*
X49392Y12636D01*
X49490Y12656D01*
X49573Y12711D01*
X55606Y18744D01*
X84764D01*
X84860Y18513D01*
X83202Y16856D01*
X71578D01*
X71577Y16858D01*
X71448Y16987D01*
X71281Y17056D01*
X71099D01*
X70932Y16987D01*
X70803Y16858D01*
X70734Y16691D01*
Y16509D01*
X70803Y16342D01*
X70932Y16213D01*
X71099Y16144D01*
X71281D01*
X71448Y16213D01*
X71577Y16342D01*
X71578Y16344D01*
X78929D01*
X79025Y16113D01*
X77418Y14506D01*
X70288D01*
X70287Y14508D01*
X70158Y14637D01*
X69991Y14706D01*
X69809D01*
X69642Y14637D01*
X69513Y14508D01*
X69444Y14341D01*
Y14159D01*
X69513Y13992D01*
X69642Y13863D01*
X69809Y13794D01*
X69991D01*
X70158Y13863D01*
X70287Y13992D01*
X70288Y13994D01*
X77076D01*
X77171Y13763D01*
X75464Y12056D01*
X71500D01*
X71402Y12036D01*
X71319Y11981D01*
X71319Y11981D01*
X68594Y9256D01*
X54888D01*
X54887Y9258D01*
X54758Y9387D01*
X54591Y9456D01*
X54409D01*
X54242Y9387D01*
X54113Y9258D01*
X54044Y9091D01*
Y8909D01*
X54113Y8742D01*
X54187Y8668D01*
X54111Y8418D01*
X49350D01*
X49350Y8418D01*
X49252Y8398D01*
X49169Y8343D01*
X49169Y8343D01*
X49093Y8267D01*
X49091Y8268D01*
X48909D01*
X48742Y8199D01*
X48613Y8070D01*
X48544Y7903D01*
Y7721D01*
X48613Y7554D01*
X48742Y7425D01*
X48909Y7356D01*
X49091D01*
X49258Y7425D01*
X49387Y7554D01*
X49456Y7721D01*
Y7903D01*
X49687Y7906D01*
X68594D01*
X68594Y7906D01*
X68692Y7925D01*
X68775Y7981D01*
X71890Y11096D01*
X75618D01*
X75618Y11096D01*
X75716Y11115D01*
X75799Y11171D01*
X77423Y12795D01*
X77439Y12797D01*
X77704Y12722D01*
X77729Y12661D01*
X77857Y12532D01*
X78025Y12463D01*
X78206D01*
X78374Y12532D01*
X78502Y12661D01*
X78534Y12738D01*
X78810D01*
X78810Y12738D01*
X78840Y12744D01*
X82345D01*
X82440Y12513D01*
X80535Y10608D01*
X77078D01*
X77077Y10610D01*
X76948Y10738D01*
X76781Y10808D01*
X76599D01*
X76432Y10738D01*
X76303Y10610D01*
X76234Y10443D01*
Y10261D01*
X76303Y10094D01*
X76432Y9965D01*
X76599Y9896D01*
X76781D01*
X76948Y9965D01*
X77077Y10094D01*
X77078Y10096D01*
X80641D01*
X80641Y10096D01*
X80739Y10115D01*
X80822Y10171D01*
X94191Y23540D01*
X94191Y23540D01*
X94246Y23623D01*
X94266Y23721D01*
X94266Y23721D01*
Y26629D01*
X94266Y26629D01*
X94256Y26679D01*
Y27112D01*
X94258Y27113D01*
X94387Y27242D01*
X94456Y27409D01*
Y27591D01*
X94387Y27758D01*
X94258Y27887D01*
X94091Y27956D01*
X93909D01*
X93835Y27925D01*
X93603Y28028D01*
X93567Y28064D01*
X93549Y28187D01*
X94686Y29324D01*
X94736Y29303D01*
X94918D01*
X94999Y29337D01*
X95217Y29226D01*
X95249Y29190D01*
Y20390D01*
X95242Y20387D01*
X95113Y20258D01*
X95044Y20091D01*
Y19909D01*
X95113Y19742D01*
X95242Y19613D01*
X95409Y19544D01*
X95591D01*
X95758Y19613D01*
X95887Y19742D01*
X95956Y19909D01*
Y20091D01*
X95887Y20258D01*
X95761Y20384D01*
Y23432D01*
X96011Y23550D01*
X96099Y23478D01*
Y22566D01*
X96099Y22566D01*
X96119Y22468D01*
X96174Y22385D01*
X101494Y17065D01*
Y12106D01*
X98644Y9256D01*
X94000D01*
X94000Y9256D01*
X93902Y9236D01*
X93819Y9181D01*
X93819Y9181D01*
X92540Y7902D01*
X92355Y7951D01*
X92105D01*
X91863Y7886D01*
X91646Y7761D01*
X91469Y7584D01*
X91344Y7367D01*
X91279Y7125D01*
Y6875D01*
X91344Y6633D01*
X91469Y6416D01*
X91646Y6239D01*
X91863Y6114D01*
X92105Y6049D01*
X92355D01*
X92597Y6114D01*
X92814Y6239D01*
X92991Y6416D01*
X93116Y6633D01*
X93181Y6875D01*
Y7125D01*
X93116Y7367D01*
X92991Y7584D01*
X92968Y7607D01*
X94106Y8744D01*
X98529D01*
X98632Y8494D01*
X97044Y6906D01*
X95732D01*
Y7400D01*
X95689Y7615D01*
X95567Y7797D01*
X95385Y7919D01*
X95170Y7962D01*
X94370D01*
X94155Y7919D01*
X93973Y7797D01*
X93851Y7615D01*
X93808Y7400D01*
Y6600D01*
X93851Y6385D01*
X93973Y6203D01*
X94155Y6081D01*
X94370Y6038D01*
X95170D01*
X95385Y6081D01*
X95567Y6203D01*
X95689Y6385D01*
X95691Y6394D01*
X97150D01*
X97150Y6394D01*
X97248Y6414D01*
X97331Y6469D01*
X102431Y11569D01*
X102431Y11569D01*
X102486Y11652D01*
X102506Y11750D01*
Y12616D01*
X102756Y12640D01*
X102764Y12602D01*
X102819Y12519D01*
X103195Y12143D01*
X103194Y12141D01*
Y11959D01*
X103263Y11792D01*
X103392Y11663D01*
X103559Y11594D01*
X103741D01*
X103908Y11663D01*
X104037Y11792D01*
X104106Y11959D01*
Y12141D01*
X104037Y12308D01*
X103908Y12437D01*
X103741Y12506D01*
X103559D01*
X103557Y12505D01*
X103256Y12806D01*
Y18500D01*
X103236Y18598D01*
X103181Y18681D01*
X103181Y18681D01*
X101955Y19907D01*
X101956Y19909D01*
Y20091D01*
X101887Y20258D01*
X101758Y20387D01*
X101591Y20456D01*
X101409D01*
X101242Y20387D01*
X101113Y20258D01*
X101044Y20091D01*
Y19909D01*
X101113Y19742D01*
X101242Y19613D01*
X101409Y19544D01*
X101591D01*
X101593Y19545D01*
X102744Y18394D01*
Y17584D01*
X102494Y17560D01*
X102486Y17598D01*
X102431Y17681D01*
X102431Y17681D01*
X97756Y22356D01*
Y25362D01*
X97758Y25363D01*
X97887Y25492D01*
X97956Y25659D01*
Y25841D01*
X97887Y26008D01*
X97758Y26137D01*
X97591Y26206D01*
X97531D01*
X97524Y26209D01*
X97352Y26386D01*
X97335Y26437D01*
Y29076D01*
X97344Y29088D01*
X97585Y29222D01*
X97645Y29198D01*
X97826D01*
X97994Y29267D01*
X98122Y29395D01*
X98192Y29563D01*
Y29744D01*
X98406Y29881D01*
X98494Y29917D01*
X98622Y30045D01*
X98692Y30213D01*
Y30394D01*
X98675Y30434D01*
X98827Y30684D01*
X98843D01*
X98960Y30708D01*
X99060Y30774D01*
X102167Y33881D01*
X102234Y33981D01*
X102257Y34098D01*
Y44948D01*
X102489Y45055D01*
X102693Y44929D01*
Y41338D01*
X102613Y41258D01*
X102544Y41091D01*
Y40909D01*
X102613Y40742D01*
X102693Y40662D01*
Y30000D01*
X102716Y29883D01*
X102783Y29783D01*
X103544Y29022D01*
Y28909D01*
X103613Y28742D01*
X103693Y28662D01*
Y16000D01*
X103716Y15883D01*
X103783Y15783D01*
X108544Y11022D01*
Y10909D01*
X108613Y10742D01*
X108742Y10613D01*
X108909Y10544D01*
X109022D01*
X110283Y9283D01*
X110383Y9216D01*
X110500Y9193D01*
X118912D01*
X118992Y9113D01*
X119159Y9044D01*
X119341D01*
X119508Y9113D01*
X119637Y9242D01*
X119706Y9409D01*
Y9591D01*
X119637Y9758D01*
X119508Y9887D01*
X119341Y9956D01*
X119159D01*
X118992Y9887D01*
X118912Y9807D01*
X110627D01*
X109456Y10978D01*
Y11091D01*
X109387Y11258D01*
X109258Y11387D01*
X109091Y11456D01*
X108978D01*
X104307Y16127D01*
Y28662D01*
X104387Y28742D01*
X104456Y28909D01*
Y29091D01*
X104387Y29258D01*
X104258Y29387D01*
X104091Y29456D01*
X103978D01*
X103307Y30127D01*
Y32878D01*
X103544Y32909D01*
X103566Y32857D01*
X103613Y32742D01*
X103742Y32613D01*
X103909Y32544D01*
X104091D01*
X104258Y32613D01*
X104387Y32742D01*
X104456Y32909D01*
Y33091D01*
X104387Y33258D01*
X104258Y33387D01*
X104256Y33388D01*
Y45961D01*
X105294Y46999D01*
X105544Y46909D01*
X105613Y46742D01*
X105742Y46613D01*
X105823Y46580D01*
X105899Y46347D01*
X105896Y46299D01*
X105783Y46186D01*
X105716Y46087D01*
X105693Y45969D01*
Y45338D01*
X105613Y45258D01*
X105544Y45091D01*
Y44909D01*
X105613Y44742D01*
X105742Y44613D01*
X105909Y44544D01*
X106091D01*
X106258Y44613D01*
X106387Y44742D01*
X106456Y44909D01*
Y45091D01*
X106387Y45258D01*
X106307Y45338D01*
Y45842D01*
X107091Y46627D01*
X107341Y46523D01*
Y44703D01*
X106093Y43455D01*
X106091Y43456D01*
X105909D01*
X105742Y43387D01*
X105613Y43258D01*
X105544Y43091D01*
Y42909D01*
X105613Y42742D01*
X105742Y42613D01*
X105744Y42612D01*
Y24441D01*
X105629Y24325D01*
X105559Y24157D01*
Y23976D01*
X105629Y23808D01*
X105757Y23680D01*
X105924Y23611D01*
X106052D01*
X106111Y23606D01*
X106294Y23418D01*
Y23409D01*
X106363Y23242D01*
X106492Y23113D01*
X106659Y23044D01*
X106841D01*
X107008Y23113D01*
X107137Y23242D01*
X107206Y23409D01*
Y23591D01*
X107205Y23593D01*
X112743Y29131D01*
X112743Y29131D01*
X112744Y29133D01*
X112994Y29057D01*
Y27856D01*
X107694Y22556D01*
X107138D01*
X107137Y22558D01*
X107008Y22687D01*
X106841Y22756D01*
X106659D01*
X106492Y22687D01*
X106363Y22558D01*
X106294Y22391D01*
Y22209D01*
X106363Y22042D01*
X106492Y21913D01*
X106659Y21844D01*
X106841D01*
X107008Y21913D01*
X107137Y22042D01*
X107138Y22044D01*
X107800D01*
X107800Y22044D01*
X107898Y22064D01*
X107981Y22119D01*
X113249Y27387D01*
X113499Y27284D01*
Y21611D01*
X112343Y20455D01*
X112341Y20456D01*
X112159D01*
X111992Y20387D01*
X111863Y20258D01*
X111794Y20091D01*
Y19909D01*
X111863Y19742D01*
X111992Y19613D01*
X112159Y19544D01*
X112341D01*
X112508Y19613D01*
X112637Y19742D01*
X112706Y19909D01*
Y20091D01*
X112705Y20093D01*
X113936Y21324D01*
X113936Y21324D01*
X113991Y21407D01*
X114011Y21505D01*
X114011Y21505D01*
Y34364D01*
X114261Y34522D01*
X114290Y34510D01*
X114471D01*
X114639Y34579D01*
X114767Y34708D01*
X114837Y34875D01*
Y35057D01*
X114767Y35224D01*
X114639Y35352D01*
X114637Y35353D01*
Y37457D01*
X114868Y37553D01*
X114891Y37529D01*
X114991Y37463D01*
X115108Y37439D01*
X115476D01*
X115496Y37420D01*
X115556Y37379D01*
X115613Y37242D01*
X115742Y37113D01*
X115909Y37044D01*
X116091D01*
X116258Y37113D01*
X116387Y37242D01*
X116456Y37409D01*
Y37591D01*
X116387Y37758D01*
X116385Y37760D01*
X116282Y37923D01*
X116385Y38087D01*
X116387Y38088D01*
X116456Y38256D01*
Y38437D01*
X116387Y38605D01*
X116258Y38733D01*
X116091Y38803D01*
X116088D01*
X115985Y39053D01*
X116967Y40035D01*
X117034Y40135D01*
X117057Y40252D01*
Y46592D01*
X117108Y46613D01*
X117237Y46742D01*
X117306Y46909D01*
Y47091D01*
X117237Y47258D01*
X117108Y47387D01*
X116941Y47456D01*
X116759D01*
X116592Y47387D01*
X116588Y47383D01*
X116425Y47282D01*
X116262Y47383D01*
X116258Y47387D01*
X116091Y47456D01*
X115909D01*
X115801Y47411D01*
X115617Y47493D01*
X115551Y47549D01*
Y47801D01*
X115551D01*
X115558Y47949D01*
X115558D01*
X115558Y48048D01*
Y48443D01*
X115748D01*
X115865Y48466D01*
X115965Y48533D01*
X115976Y48544D01*
X116091D01*
X116258Y48613D01*
X116387Y48742D01*
X116456Y48909D01*
Y49091D01*
X116431Y49150D01*
X116567Y49392D01*
X116578Y49400D01*
X117107Y49400D01*
X117357Y49400D01*
X117907D01*
Y50050D01*
Y50700D01*
X117357D01*
X117157Y50700D01*
X116907Y50700D01*
X116357D01*
Y50050D01*
X116157D01*
Y50700D01*
X115407D01*
Y50657D01*
X115257Y50593D01*
X115157Y50581D01*
X115036Y50701D01*
X114850Y50778D01*
X114850D01*
Y50273D01*
X114750D01*
Y50173D01*
X114245D01*
Y50173D01*
X114322Y49987D01*
X114464Y49845D01*
X114570Y49801D01*
X114520Y49551D01*
X114356D01*
Y47949D01*
X114356D01*
X114349Y47801D01*
X114349D01*
X114349Y47702D01*
Y46299D01*
X114275D01*
X114108Y46230D01*
X113979Y46102D01*
X113910Y45934D01*
Y45873D01*
X113885Y45740D01*
X113685Y45642D01*
X113518Y45572D01*
X113390Y45444D01*
X113320Y45277D01*
Y45095D01*
X113323Y45089D01*
X113131Y44898D01*
X113125Y44900D01*
X112943D01*
X112825Y44852D01*
X112654Y44924D01*
X112575Y44984D01*
Y45382D01*
X112578Y45383D01*
X112706Y45512D01*
X112775Y45679D01*
Y45861D01*
X112759Y45900D01*
X112911Y46150D01*
X112950D01*
Y46900D01*
X112400D01*
X112400Y46226D01*
X112366Y46226D01*
X112229D01*
X112061Y46156D01*
X111933Y46028D01*
X111864Y45861D01*
Y45679D01*
X111933Y45512D01*
X112061Y45383D01*
X112064Y45382D01*
Y37606D01*
X112064Y37606D01*
X112083Y37508D01*
X112139Y37425D01*
X112306Y37258D01*
Y29418D01*
X106888Y24000D01*
X106613Y24003D01*
X106471Y24149D01*
Y24157D01*
X106402Y24325D01*
X106273Y24453D01*
X106256Y24461D01*
Y42612D01*
X106258Y42613D01*
X106387Y42742D01*
X106456Y42909D01*
Y43091D01*
X106455Y43093D01*
X107778Y44416D01*
X107778Y44416D01*
X107834Y44499D01*
X107853Y44597D01*
X107853Y44597D01*
Y48491D01*
X108157Y48795D01*
X108159Y48794D01*
X108341D01*
X108508Y48863D01*
X108744Y48746D01*
Y44356D01*
X108069Y43681D01*
X108014Y43598D01*
X107994Y43500D01*
X107994Y43500D01*
Y32106D01*
X107343Y31455D01*
X107341Y31456D01*
X107159D01*
X106992Y31387D01*
X106863Y31258D01*
X106794Y31091D01*
Y30909D01*
X106863Y30742D01*
X106992Y30613D01*
X107159Y30544D01*
X107341D01*
X107508Y30613D01*
X107637Y30742D01*
X107706Y30909D01*
Y31091D01*
X107705Y31093D01*
X108431Y31819D01*
X108431Y31819D01*
X108486Y31902D01*
X108506Y32000D01*
Y43394D01*
X109181Y44069D01*
X109181Y44069D01*
X109236Y44152D01*
X109256Y44250D01*
Y49449D01*
X109693D01*
Y41338D01*
X109613Y41258D01*
X109544Y41091D01*
Y40909D01*
X109613Y40742D01*
X109742Y40613D01*
X109909Y40544D01*
X110091D01*
X110258Y40613D01*
X110387Y40742D01*
X110456Y40909D01*
Y41091D01*
X110387Y41258D01*
X110307Y41338D01*
Y49449D01*
X110808D01*
Y49449D01*
X110956D01*
Y49449D01*
X112172D01*
X112407Y49214D01*
Y48850D01*
X113707D01*
Y49600D01*
X113654D01*
X113624Y49653D01*
X113578Y49850D01*
X113678Y49950D01*
X113755Y50136D01*
Y50136D01*
X113250D01*
Y50336D01*
X113820D01*
X113938Y50445D01*
X114169Y50395D01*
X114184Y50373D01*
X114650D01*
Y50820D01*
X114629Y50831D01*
X114576Y50990D01*
X114632Y51181D01*
X114650Y51193D01*
Y51642D01*
X114194D01*
X114154Y51584D01*
X114100Y51549D01*
Y51000D01*
X113900D01*
Y51550D01*
X113841Y51591D01*
X113800Y51650D01*
X113250D01*
Y51850D01*
X113755D01*
Y51850D01*
X113678Y52036D01*
X113536Y52178D01*
X113486Y52199D01*
X113535Y52449D01*
X113658D01*
Y54051D01*
X113658D01*
Y54199D01*
X113658D01*
Y55801D01*
X112456D01*
Y54199D01*
X112456D01*
Y54051D01*
X112456D01*
Y53648D01*
X112252Y53506D01*
X112154Y53486D01*
X112102Y53451D01*
X112091Y53456D01*
X111909D01*
X111742Y53387D01*
X111613Y53258D01*
X111544Y53091D01*
Y52909D01*
X111569Y52850D01*
X111433Y52608D01*
X111422Y52600D01*
X110907D01*
Y52600D01*
X110857D01*
Y52600D01*
X110107D01*
Y51950D01*
X109907D01*
Y52600D01*
X109256D01*
Y53894D01*
X109907Y54545D01*
X109909Y54544D01*
X110091D01*
X110258Y54613D01*
X110387Y54742D01*
X110456Y54909D01*
Y55091D01*
X110387Y55258D01*
X110258Y55387D01*
X110091Y55456D01*
X109909D01*
X109742Y55387D01*
X109613Y55258D01*
X109544Y55091D01*
Y54909D01*
X109545Y54907D01*
X108819Y54181D01*
X108764Y54098D01*
X108744Y54000D01*
X108744Y54000D01*
Y52951D01*
X108494Y52847D01*
X108493Y52849D01*
X108325Y52918D01*
X108144D01*
X107976Y52849D01*
X107848Y52720D01*
X107837Y52694D01*
X107800Y52686D01*
X107700Y52620D01*
X107670Y52590D01*
X107293D01*
X107175Y52566D01*
X107076Y52500D01*
X106389Y51813D01*
X106322Y51713D01*
X106307Y51637D01*
X106127Y51481D01*
X106091Y51456D01*
X105909D01*
X105742Y51387D01*
X105613Y51258D01*
X105544Y51091D01*
Y50909D01*
X105613Y50742D01*
X105742Y50613D01*
X105744Y50612D01*
Y48173D01*
X103819Y46248D01*
X103764Y46165D01*
X103744Y46067D01*
X103744Y46067D01*
Y33388D01*
X103742Y33387D01*
X103613Y33258D01*
X103566Y33143D01*
X103544Y33091D01*
X103307Y33122D01*
Y40662D01*
X103387Y40742D01*
X103456Y40909D01*
Y41091D01*
X103387Y41258D01*
X103307Y41338D01*
Y51250D01*
X103284Y51367D01*
X103217Y51467D01*
X102706Y51978D01*
Y52091D01*
X102637Y52258D01*
X102557Y52338D01*
Y56162D01*
X102637Y56242D01*
X102706Y56409D01*
Y56591D01*
X102637Y56758D01*
X102508Y56887D01*
X102341Y56956D01*
X102159D01*
X101992Y56887D01*
X101863Y56758D01*
X101794Y56591D01*
Y56409D01*
X101863Y56242D01*
X101943Y56162D01*
Y52338D01*
X101863Y52258D01*
X101794Y52091D01*
Y51909D01*
X101863Y51742D01*
X101992Y51613D01*
X102159Y51544D01*
X102272D01*
X102693Y51123D01*
Y50555D01*
X102634Y50501D01*
X102443Y50414D01*
X102341Y50456D01*
X102159D01*
X101992Y50387D01*
X101863Y50258D01*
X101794Y50091D01*
Y49909D01*
X101795Y49907D01*
X100319Y48431D01*
X100264Y48348D01*
X100244Y48250D01*
X100244Y48250D01*
Y34356D01*
X99405Y33517D01*
X99184D01*
X99184Y33517D01*
X99087Y33497D01*
X99003Y33442D01*
X99003Y33442D01*
X98210Y32648D01*
X98207Y32649D01*
X98026D01*
X97858Y32580D01*
X97730Y32451D01*
X97661Y32284D01*
Y32102D01*
X97730Y31935D01*
X97814Y31851D01*
X97858Y31795D01*
X97846Y31541D01*
X97585Y31281D01*
X97335Y31384D01*
Y58294D01*
X97341D01*
X97508Y58363D01*
X97637Y58492D01*
X97706Y58659D01*
Y58841D01*
X97637Y59008D01*
X97508Y59137D01*
X97341Y59206D01*
D02*
G37*
G36*
X113707Y48650D02*
X112407D01*
Y48097D01*
X112400Y47850D01*
X112400Y47653D01*
Y47100D01*
X113700D01*
Y47653D01*
X113707Y47900D01*
X113707Y48097D01*
Y48650D01*
D02*
G37*
G36*
X113700Y46900D02*
X113150D01*
Y46150D01*
X113700D01*
Y46900D01*
D02*
G37*
G36*
X123125Y42505D02*
X123125D01*
Y42100D01*
X123530D01*
Y42100D01*
X123453Y42286D01*
X123311Y42428D01*
X123125Y42505D01*
D02*
G37*
G36*
X122925D02*
X122925D01*
X122739Y42428D01*
X122597Y42286D01*
X122520Y42100D01*
Y42100D01*
X122925D01*
Y42505D01*
D02*
G37*
G36*
X123530Y41900D02*
X123125D01*
Y41495D01*
X123125D01*
X123311Y41572D01*
X123453Y41714D01*
X123530Y41900D01*
Y41900D01*
D02*
G37*
G36*
X122925D02*
X122520D01*
Y41900D01*
X122597Y41714D01*
X122739Y41572D01*
X122925Y41495D01*
X122925D01*
Y41900D01*
D02*
G37*
G36*
X137600Y40505D02*
X137600D01*
Y40100D01*
X138005D01*
Y40100D01*
X137928Y40286D01*
X137786Y40428D01*
X137600Y40505D01*
D02*
G37*
G36*
X137400D02*
X137400D01*
X137214Y40428D01*
X137072Y40286D01*
X136995Y40100D01*
Y40100D01*
X137400D01*
Y40505D01*
D02*
G37*
G36*
X131100D02*
X131100D01*
Y40100D01*
X131505D01*
Y40100D01*
X131428Y40286D01*
X131286Y40428D01*
X131100Y40505D01*
D02*
G37*
G36*
X130900D02*
X130900D01*
X130714Y40428D01*
X130572Y40286D01*
X130495Y40100D01*
Y40100D01*
X130900D01*
Y40505D01*
D02*
G37*
G36*
X138005Y39900D02*
X137600D01*
Y39495D01*
X137600D01*
X137786Y39572D01*
X137928Y39714D01*
X138005Y39900D01*
Y39900D01*
D02*
G37*
G36*
X137400D02*
X136995D01*
Y39900D01*
X137072Y39714D01*
X137214Y39572D01*
X137400Y39495D01*
X137400D01*
Y39900D01*
D02*
G37*
G36*
X131505D02*
X131100D01*
Y39495D01*
X131100D01*
X131286Y39572D01*
X131428Y39714D01*
X131505Y39900D01*
Y39900D01*
D02*
G37*
G36*
X130900D02*
X130495D01*
Y39900D01*
X130572Y39714D01*
X130714Y39572D01*
X130900Y39495D01*
X130900D01*
Y39900D01*
D02*
G37*
G36*
X56665Y38951D02*
X56415D01*
X56173Y38886D01*
X55956Y38761D01*
X55779Y38584D01*
X55654Y38367D01*
X55589Y38125D01*
Y37875D01*
X55654Y37633D01*
X55779Y37416D01*
X55956Y37239D01*
X56173Y37114D01*
X56415Y37049D01*
X56665D01*
X56907Y37114D01*
X57124Y37239D01*
X57301Y37416D01*
X57426Y37633D01*
X57491Y37875D01*
Y38125D01*
X57426Y38367D01*
X57301Y38584D01*
X57124Y38761D01*
X56907Y38886D01*
X56665Y38951D01*
D02*
G37*
G36*
X54400Y38962D02*
X53600D01*
X53385Y38919D01*
X53203Y38797D01*
X53081Y38615D01*
X53038Y38400D01*
Y37600D01*
X53081Y37385D01*
X53203Y37203D01*
X53385Y37081D01*
X53600Y37038D01*
X54400D01*
X54615Y37081D01*
X54797Y37203D01*
X54919Y37385D01*
X54962Y37600D01*
Y38400D01*
X54919Y38615D01*
X54797Y38797D01*
X54615Y38919D01*
X54400Y38962D01*
D02*
G37*
G36*
X43853Y37976D02*
X43667D01*
X43487Y37928D01*
X43326Y37835D01*
X43195Y37703D01*
X43102Y37543D01*
X43054Y37363D01*
Y37177D01*
X43102Y36998D01*
X43195Y36837D01*
X43326Y36705D01*
X43487Y36612D01*
X43667Y36564D01*
X43853D01*
X44033Y36612D01*
X44193Y36705D01*
X44325Y36837D01*
X44418Y36998D01*
X44466Y37177D01*
Y37363D01*
X44418Y37543D01*
X44325Y37703D01*
X44193Y37835D01*
X44033Y37928D01*
X43853Y37976D01*
D02*
G37*
G36*
X125600Y35255D02*
X125600D01*
Y34850D01*
X126005D01*
Y34850D01*
X125928Y35036D01*
X125786Y35178D01*
X125600Y35255D01*
D02*
G37*
G36*
X125400D02*
X125400D01*
X125214Y35178D01*
X125072Y35036D01*
X124995Y34850D01*
Y34850D01*
X125400D01*
Y35255D01*
D02*
G37*
G36*
X77341Y45206D02*
X77159D01*
X76992Y45137D01*
X76863Y45008D01*
X76794Y44841D01*
Y44659D01*
X76795Y44657D01*
X76569Y44431D01*
X76514Y44348D01*
X76494Y44250D01*
X76494Y44250D01*
Y36750D01*
X76494Y36750D01*
X76514Y36652D01*
X76569Y36569D01*
X77117Y36021D01*
X77117Y36021D01*
X77200Y35966D01*
X77298Y35946D01*
X77298Y35946D01*
X77528D01*
X77623Y35715D01*
X76737Y34829D01*
X76637Y34886D01*
X76395Y34951D01*
X76145D01*
X75903Y34886D01*
X75686Y34761D01*
X75509Y34584D01*
X75384Y34367D01*
X75319Y34125D01*
Y33875D01*
X75384Y33633D01*
X75509Y33416D01*
X75686Y33239D01*
X75903Y33114D01*
X76145Y33049D01*
X76395D01*
X76637Y33114D01*
X76854Y33239D01*
X77031Y33416D01*
X77156Y33633D01*
X77221Y33875D01*
Y34125D01*
X77156Y34367D01*
X77099Y34467D01*
X78227Y35595D01*
X79717D01*
X79812Y35364D01*
X79277Y34829D01*
X79177Y34886D01*
X78935Y34951D01*
X78685D01*
X78443Y34886D01*
X78226Y34761D01*
X78049Y34584D01*
X77924Y34367D01*
X77859Y34125D01*
Y33875D01*
X77924Y33633D01*
X78049Y33416D01*
X78226Y33239D01*
X78443Y33114D01*
X78685Y33049D01*
X78935D01*
X79177Y33114D01*
X79394Y33239D01*
X79571Y33416D01*
X79696Y33633D01*
X79761Y33875D01*
Y34125D01*
X79696Y34367D01*
X79639Y34467D01*
X80416Y35244D01*
X86894D01*
X87295Y34843D01*
X87294Y34841D01*
Y34659D01*
X87363Y34492D01*
X87492Y34363D01*
X87659Y34294D01*
X87841D01*
X88008Y34363D01*
X88115Y34470D01*
X88221Y34464D01*
X88344Y34291D01*
Y34109D01*
X88413Y33942D01*
X88542Y33813D01*
X88709Y33744D01*
X88891D01*
X89058Y33813D01*
X89187Y33942D01*
X89256Y34109D01*
Y34291D01*
X89214Y34392D01*
X89216Y34397D01*
X89369Y34587D01*
X89380Y34595D01*
X89404Y34590D01*
X89404Y34590D01*
X93919D01*
X94008Y34500D01*
X94176Y34431D01*
X94357D01*
X94525Y34500D01*
X94653Y34629D01*
X94723Y34796D01*
Y34978D01*
X94653Y35145D01*
X94525Y35274D01*
X94357Y35343D01*
X94176D01*
X94008Y35274D01*
X93880Y35145D01*
X93862Y35102D01*
X89510D01*
X88229Y36383D01*
X88146Y36438D01*
X88048Y36458D01*
X88048Y36458D01*
X77404D01*
X77006Y36856D01*
Y44119D01*
X77159Y44294D01*
X77341D01*
X77508Y44363D01*
X77637Y44492D01*
X77706Y44659D01*
Y44841D01*
X77637Y45008D01*
X77508Y45137D01*
X77341Y45206D01*
D02*
G37*
G36*
X126005Y34650D02*
X125600D01*
Y34245D01*
X125600D01*
X125786Y34322D01*
X125928Y34464D01*
X126005Y34650D01*
Y34650D01*
D02*
G37*
G36*
X125400D02*
X124995D01*
Y34650D01*
X125072Y34464D01*
X125214Y34322D01*
X125400Y34245D01*
X125400D01*
Y34650D01*
D02*
G37*
G36*
X73862Y35000D02*
X73830D01*
Y34100D01*
X74730D01*
Y34132D01*
X74662Y34386D01*
X74530Y34614D01*
X74344Y34800D01*
X74116Y34932D01*
X73862Y35000D01*
D02*
G37*
G36*
X73630D02*
X73598D01*
X73344Y34932D01*
X73116Y34800D01*
X72930Y34614D01*
X72798Y34386D01*
X72730Y34132D01*
Y34100D01*
X73630D01*
Y35000D01*
D02*
G37*
G36*
X81475Y34951D02*
X81225D01*
X80983Y34886D01*
X80766Y34761D01*
X80589Y34584D01*
X80464Y34367D01*
X80399Y34125D01*
Y33875D01*
X80464Y33633D01*
X80589Y33416D01*
X80766Y33239D01*
X80983Y33114D01*
X81225Y33049D01*
X81475D01*
X81717Y33114D01*
X81934Y33239D01*
X82111Y33416D01*
X82236Y33633D01*
X82301Y33875D01*
Y34125D01*
X82236Y34367D01*
X82111Y34584D01*
X81934Y34761D01*
X81717Y34886D01*
X81475Y34951D01*
D02*
G37*
G36*
X71315D02*
X71065D01*
X70823Y34886D01*
X70606Y34761D01*
X70429Y34584D01*
X70304Y34367D01*
X70239Y34125D01*
Y33875D01*
X70304Y33633D01*
X70429Y33416D01*
X70606Y33239D01*
X70823Y33114D01*
X71065Y33049D01*
X71315D01*
X71557Y33114D01*
X71774Y33239D01*
X71951Y33416D01*
X72076Y33633D01*
X72141Y33875D01*
Y34125D01*
X72076Y34367D01*
X71951Y34584D01*
X71774Y34761D01*
X71557Y34886D01*
X71315Y34951D01*
D02*
G37*
G36*
X33700Y31455D02*
X33700D01*
Y31050D01*
X34105D01*
Y31050D01*
X34028Y31236D01*
X33886Y31378D01*
X33700Y31455D01*
D02*
G37*
G36*
X33500D02*
X33500D01*
X33314Y31378D01*
X33172Y31236D01*
X33095Y31050D01*
Y31050D01*
X33500D01*
Y31455D01*
D02*
G37*
G36*
X50645Y32951D02*
X50395D01*
X50153Y32886D01*
X49936Y32761D01*
X49759Y32584D01*
X49634Y32367D01*
X49569Y32125D01*
Y31875D01*
X49634Y31633D01*
X49759Y31416D01*
X49936Y31239D01*
X50153Y31114D01*
X50395Y31049D01*
X50645D01*
X50887Y31114D01*
X51104Y31239D01*
X51281Y31416D01*
X51406Y31633D01*
X51471Y31875D01*
Y32125D01*
X51406Y32367D01*
X51281Y32584D01*
X51104Y32761D01*
X50887Y32886D01*
X50645Y32951D01*
D02*
G37*
G36*
X48380Y32962D02*
X47580D01*
X47365Y32919D01*
X47183Y32797D01*
X47061Y32615D01*
X47018Y32400D01*
Y31600D01*
X47061Y31385D01*
X47183Y31203D01*
X47365Y31081D01*
X47580Y31038D01*
X48380D01*
X48595Y31081D01*
X48777Y31203D01*
X48899Y31385D01*
X48942Y31600D01*
Y32400D01*
X48899Y32615D01*
X48777Y32797D01*
X48595Y32919D01*
X48380Y32962D01*
D02*
G37*
G36*
X34105Y30850D02*
X33700D01*
Y30445D01*
X33700D01*
X33886Y30522D01*
X34028Y30664D01*
X34105Y30850D01*
Y30850D01*
D02*
G37*
G36*
X33500D02*
X33095D01*
Y30850D01*
X33172Y30664D01*
X33314Y30522D01*
X33500Y30445D01*
X33500D01*
Y30850D01*
D02*
G37*
G36*
X86100Y29255D02*
X86100D01*
Y28850D01*
X86505D01*
Y28850D01*
X86428Y29036D01*
X86286Y29178D01*
X86100Y29255D01*
D02*
G37*
G36*
X85900D02*
X85900D01*
X85714Y29178D01*
X85572Y29036D01*
X85495Y28850D01*
Y28850D01*
X85900D01*
Y29255D01*
D02*
G37*
G36*
X86505Y28650D02*
X86100D01*
Y28245D01*
X86100D01*
X86286Y28322D01*
X86428Y28464D01*
X86505Y28650D01*
Y28650D01*
D02*
G37*
G36*
X85900D02*
X85495D01*
Y28650D01*
X85572Y28464D01*
X85714Y28322D01*
X85900Y28245D01*
X85900D01*
Y28650D01*
D02*
G37*
G36*
X25152Y28651D02*
X24848D01*
X24556Y28573D01*
X24293Y28421D01*
X24079Y28207D01*
X23927Y27944D01*
X23849Y27652D01*
Y27348D01*
X23927Y27056D01*
X24079Y26793D01*
X24293Y26579D01*
X24556Y26427D01*
X24848Y26349D01*
X25152D01*
X25444Y26427D01*
X25707Y26579D01*
X25921Y26793D01*
X26073Y27056D01*
X26151Y27348D01*
Y27652D01*
X26073Y27944D01*
X25921Y28207D01*
X25707Y28421D01*
X25444Y28573D01*
X25152Y28651D01*
D02*
G37*
G36*
X21152D02*
X20848D01*
X20556Y28573D01*
X20293Y28421D01*
X20079Y28207D01*
X19927Y27944D01*
X19849Y27652D01*
Y27348D01*
X19927Y27056D01*
X20079Y26793D01*
X20293Y26579D01*
X20556Y26427D01*
X20848Y26349D01*
X21152D01*
X21444Y26427D01*
X21707Y26579D01*
X21921Y26793D01*
X22073Y27056D01*
X22151Y27348D01*
Y27652D01*
X22073Y27944D01*
X21921Y28207D01*
X21707Y28421D01*
X21444Y28573D01*
X21152Y28651D01*
D02*
G37*
G36*
X35591Y32456D02*
X35409D01*
X35242Y32387D01*
X35113Y32258D01*
X35044Y32091D01*
Y31909D01*
X35091Y31795D01*
Y26205D01*
X35044Y26091D01*
Y25909D01*
X35113Y25742D01*
X35242Y25613D01*
X35409Y25544D01*
X35591D01*
X35758Y25613D01*
X35887Y25742D01*
X35956Y25909D01*
Y26091D01*
X35909Y26205D01*
Y31795D01*
X35956Y31909D01*
Y32091D01*
X35887Y32258D01*
X35758Y32387D01*
X35591Y32456D01*
D02*
G37*
G36*
X84787Y24656D02*
X84382D01*
Y24655D01*
X84459Y24470D01*
X84601Y24328D01*
X84787Y24251D01*
X84787D01*
Y24656D01*
D02*
G37*
G36*
X49100Y23557D02*
X49100D01*
Y23152D01*
X49505D01*
Y23152D01*
X49428Y23338D01*
X49286Y23480D01*
X49100Y23557D01*
D02*
G37*
G36*
X48900D02*
X48900D01*
X48714Y23480D01*
X48572Y23338D01*
X48495Y23152D01*
Y23152D01*
X48900D01*
Y23557D01*
D02*
G37*
G36*
X71100Y23510D02*
X71100D01*
Y23105D01*
X71505D01*
Y23105D01*
X71428Y23291D01*
X71286Y23433D01*
X71100Y23510D01*
D02*
G37*
G36*
X70900D02*
X70900D01*
X70714Y23433D01*
X70572Y23291D01*
X70495Y23105D01*
Y23105D01*
X70900D01*
Y23510D01*
D02*
G37*
G36*
X38112Y23350D02*
X38100D01*
Y22600D01*
X38850D01*
Y22612D01*
X38792Y22828D01*
X38680Y23022D01*
X38522Y23180D01*
X38328Y23292D01*
X38112Y23350D01*
D02*
G37*
G36*
X37900D02*
X37888D01*
X37672Y23292D01*
X37478Y23180D01*
X37320Y23022D01*
X37208Y22828D01*
X37150Y22612D01*
Y22600D01*
X37900D01*
Y23350D01*
D02*
G37*
G36*
X49505Y22952D02*
X49100D01*
Y22547D01*
X49100D01*
X49286Y22624D01*
X49428Y22766D01*
X49505Y22952D01*
Y22952D01*
D02*
G37*
G36*
X48900D02*
X48495D01*
Y22952D01*
X48572Y22766D01*
X48714Y22624D01*
X48900Y22547D01*
X48900D01*
Y22952D01*
D02*
G37*
G36*
X32325Y23310D02*
X31675D01*
X31489Y23273D01*
X31332Y23168D01*
X31227Y23011D01*
X31190Y22825D01*
Y22175D01*
X31227Y21989D01*
X31332Y21832D01*
X31489Y21727D01*
X31675Y21690D01*
X32325D01*
X32511Y21727D01*
X32668Y21832D01*
X32773Y21989D01*
X32810Y22175D01*
Y22825D01*
X32773Y23011D01*
X32668Y23168D01*
X32511Y23273D01*
X32325Y23310D01*
D02*
G37*
G36*
X38850Y22400D02*
X38100D01*
Y21650D01*
X38112D01*
X38328Y21708D01*
X38522Y21820D01*
X38680Y21978D01*
X38792Y22172D01*
X38850Y22388D01*
Y22400D01*
D02*
G37*
G36*
X37900D02*
X37150D01*
Y22388D01*
X37208Y22172D01*
X37320Y21978D01*
X37478Y21820D01*
X37672Y21708D01*
X37888Y21650D01*
X37900D01*
Y22400D01*
D02*
G37*
G36*
X23600Y21964D02*
X22400D01*
X22284Y21916D01*
X22237Y21800D01*
Y20200D01*
X22284Y20084D01*
X22400Y20036D01*
X23600D01*
X23716Y20084D01*
X23763Y20200D01*
Y21800D01*
X23716Y21916D01*
X23600Y21964D01*
D02*
G37*
G36*
X124091Y26956D02*
X123909D01*
X123742Y26887D01*
X123613Y26758D01*
X123544Y26591D01*
Y26409D01*
X123613Y26242D01*
X123742Y26113D01*
X123909Y26044D01*
X123969D01*
Y20363D01*
X123863Y20258D01*
X123794Y20091D01*
Y19909D01*
X123863Y19742D01*
X123992Y19613D01*
X124159Y19544D01*
X124341D01*
X124508Y19613D01*
X124637Y19742D01*
X124706Y19909D01*
Y20091D01*
X124637Y20258D01*
X124531Y20363D01*
Y26248D01*
X124510Y26356D01*
X124456Y26436D01*
Y26591D01*
X124387Y26758D01*
X124258Y26887D01*
X124091Y26956D01*
D02*
G37*
G36*
X123132Y15310D02*
X123100D01*
Y14410D01*
X124000D01*
Y14442D01*
X123932Y14696D01*
X123800Y14924D01*
X123614Y15110D01*
X123386Y15242D01*
X123132Y15310D01*
D02*
G37*
G36*
X122900D02*
X122868D01*
X122614Y15242D01*
X122386Y15110D01*
X122200Y14924D01*
X122068Y14696D01*
X122000Y14442D01*
Y14410D01*
X122900D01*
Y15310D01*
D02*
G37*
G36*
X124000Y14210D02*
X123100D01*
Y13310D01*
X123132D01*
X123386Y13378D01*
X123614Y13510D01*
X123800Y13696D01*
X123932Y13924D01*
X124000Y14178D01*
Y14210D01*
D02*
G37*
G36*
X122900D02*
X122000D01*
Y14178D01*
X122068Y13924D01*
X122200Y13696D01*
X122386Y13510D01*
X122614Y13378D01*
X122868Y13310D01*
X122900D01*
Y14210D01*
D02*
G37*
G36*
X115270Y25175D02*
X115089D01*
X114921Y25106D01*
X114793Y24978D01*
X114723Y24810D01*
Y24629D01*
X114793Y24461D01*
X114921Y24333D01*
X114949Y24321D01*
Y14909D01*
X114863Y14886D01*
X114646Y14761D01*
X114469Y14584D01*
X114344Y14367D01*
X114279Y14125D01*
Y13875D01*
X114344Y13633D01*
X114469Y13416D01*
X114646Y13239D01*
X114863Y13114D01*
X115105Y13049D01*
X115355D01*
X115597Y13114D01*
X115814Y13239D01*
X115991Y13416D01*
X116116Y13633D01*
X116181Y13875D01*
Y14125D01*
X116116Y14367D01*
X115991Y14584D01*
X115814Y14761D01*
X115597Y14886D01*
X115461Y14923D01*
Y24356D01*
X115566Y24461D01*
X115635Y24629D01*
Y24810D01*
X115566Y24978D01*
X115438Y25106D01*
X115270Y25175D01*
D02*
G37*
G36*
X117861Y25676D02*
X117680D01*
X117512Y25607D01*
X117384Y25479D01*
X117315Y25311D01*
Y25130D01*
X117384Y24962D01*
X117512Y24834D01*
X117515Y24833D01*
Y14962D01*
X117370D01*
X117155Y14919D01*
X116973Y14797D01*
X116851Y14615D01*
X116808Y14400D01*
Y13600D01*
X116851Y13385D01*
X116973Y13203D01*
X117155Y13081D01*
X117370Y13038D01*
X118170D01*
X118385Y13081D01*
X118567Y13203D01*
X118689Y13385D01*
X118732Y13600D01*
Y14400D01*
X118689Y14615D01*
X118567Y14797D01*
X118385Y14919D01*
X118170Y14962D01*
X118027D01*
Y24833D01*
X118029Y24834D01*
X118157Y24962D01*
X118227Y25130D01*
Y25311D01*
X118157Y25479D01*
X118029Y25607D01*
X117861Y25676D01*
D02*
G37*
G36*
X42125Y14761D02*
X41875D01*
X41633Y14696D01*
X41416Y14571D01*
X41239Y14394D01*
X41114Y14177D01*
X41049Y13935D01*
Y13685D01*
X41114Y13443D01*
X41239Y13226D01*
X41416Y13049D01*
X41633Y12924D01*
X41875Y12859D01*
X42125D01*
X42367Y12924D01*
X42584Y13049D01*
X42761Y13226D01*
X42886Y13443D01*
X42951Y13685D01*
Y13935D01*
X42886Y14177D01*
X42761Y14394D01*
X42584Y14571D01*
X42367Y14696D01*
X42125Y14761D01*
D02*
G37*
G36*
X123125Y12721D02*
X122875D01*
X122633Y12656D01*
X122416Y12531D01*
X122239Y12354D01*
X122114Y12137D01*
X122049Y11895D01*
Y11645D01*
X122114Y11403D01*
X122239Y11186D01*
X122416Y11009D01*
X122633Y10884D01*
X122875Y10819D01*
X123125D01*
X123367Y10884D01*
X123584Y11009D01*
X123761Y11186D01*
X123886Y11403D01*
X123951Y11645D01*
Y11895D01*
X123886Y12137D01*
X123761Y12354D01*
X123584Y12531D01*
X123367Y12656D01*
X123125Y12721D01*
D02*
G37*
G36*
X42125Y12221D02*
X41875D01*
X41633Y12156D01*
X41416Y12031D01*
X41239Y11854D01*
X41114Y11637D01*
X41049Y11395D01*
Y11145D01*
X41114Y10903D01*
X41239Y10686D01*
X41416Y10509D01*
X41633Y10384D01*
X41875Y10319D01*
X42125D01*
X42367Y10384D01*
X42584Y10509D01*
X42761Y10686D01*
X42886Y10903D01*
X42951Y11145D01*
Y11395D01*
X42886Y11637D01*
X42761Y11854D01*
X42584Y12031D01*
X42367Y12156D01*
X42125Y12221D01*
D02*
G37*
G36*
X49091Y10808D02*
X48909D01*
X48742Y10738D01*
X48613Y10610D01*
X48544Y10443D01*
Y10261D01*
X48613Y10094D01*
X48742Y9965D01*
X48909Y9896D01*
X49091D01*
X49258Y9965D01*
X49387Y10094D01*
X49456Y10261D01*
Y10443D01*
X49387Y10610D01*
X49258Y10738D01*
X49091Y10808D01*
D02*
G37*
G36*
X123125Y10181D02*
X122875D01*
X122633Y10116D01*
X122416Y9991D01*
X122239Y9814D01*
X122114Y9597D01*
X122049Y9355D01*
Y9105D01*
X122114Y8863D01*
X122239Y8646D01*
X122416Y8469D01*
X122633Y8344D01*
X122875Y8279D01*
X123125D01*
X123367Y8344D01*
X123584Y8469D01*
X123761Y8646D01*
X123886Y8863D01*
X123951Y9105D01*
Y9355D01*
X123886Y9597D01*
X123761Y9814D01*
X123584Y9991D01*
X123367Y10116D01*
X123125Y10181D01*
D02*
G37*
G36*
X130172Y9751D02*
X129828D01*
X129489Y9684D01*
X129171Y9552D01*
X128884Y9360D01*
X128640Y9116D01*
X128448Y8829D01*
X128316Y8511D01*
X128249Y8172D01*
Y7828D01*
X128316Y7489D01*
X128448Y7171D01*
X128640Y6884D01*
X128884Y6640D01*
X129171Y6448D01*
X129489Y6316D01*
X129828Y6249D01*
X130172D01*
X130511Y6316D01*
X130829Y6448D01*
X131116Y6640D01*
X131360Y6884D01*
X131552Y7171D01*
X131684Y7489D01*
X131751Y7828D01*
Y8172D01*
X131684Y8511D01*
X131552Y8829D01*
X131360Y9116D01*
X131116Y9360D01*
X130829Y9552D01*
X130511Y9684D01*
X130172Y9751D01*
D02*
G37*
G36*
X81895Y7951D02*
X81645D01*
X81403Y7886D01*
X81186Y7761D01*
X81009Y7584D01*
X80884Y7367D01*
X80819Y7125D01*
Y6875D01*
X80884Y6633D01*
X81009Y6416D01*
X81186Y6239D01*
X81403Y6114D01*
X81645Y6049D01*
X81895D01*
X82137Y6114D01*
X82354Y6239D01*
X82531Y6416D01*
X82656Y6633D01*
X82721Y6875D01*
Y7125D01*
X82656Y7367D01*
X82531Y7584D01*
X82354Y7761D01*
X82137Y7886D01*
X81895Y7951D01*
D02*
G37*
G36*
X79355D02*
X79105D01*
X78863Y7886D01*
X78646Y7761D01*
X78469Y7584D01*
X78344Y7367D01*
X78279Y7125D01*
Y6875D01*
X78344Y6633D01*
X78469Y6416D01*
X78646Y6239D01*
X78863Y6114D01*
X79105Y6049D01*
X79355D01*
X79597Y6114D01*
X79814Y6239D01*
X79991Y6416D01*
X80116Y6633D01*
X80181Y6875D01*
Y7125D01*
X80116Y7367D01*
X79991Y7584D01*
X79814Y7761D01*
X79597Y7886D01*
X79355Y7951D01*
D02*
G37*
G36*
X76815D02*
X76565D01*
X76323Y7886D01*
X76106Y7761D01*
X75929Y7584D01*
X75804Y7367D01*
X75739Y7125D01*
Y6875D01*
X75804Y6633D01*
X75929Y6416D01*
X76106Y6239D01*
X76323Y6114D01*
X76565Y6049D01*
X76815D01*
X77057Y6114D01*
X77274Y6239D01*
X77451Y6416D01*
X77576Y6633D01*
X77641Y6875D01*
Y7125D01*
X77576Y7367D01*
X77451Y7584D01*
X77274Y7761D01*
X77057Y7886D01*
X76815Y7951D01*
D02*
G37*
G36*
X84710Y7962D02*
X83910D01*
X83695Y7919D01*
X83513Y7797D01*
X83391Y7615D01*
X83348Y7400D01*
Y6600D01*
X83391Y6385D01*
X83513Y6203D01*
X83695Y6081D01*
X83910Y6038D01*
X84710D01*
X84925Y6081D01*
X85107Y6203D01*
X85229Y6385D01*
X85272Y6600D01*
Y7400D01*
X85229Y7615D01*
X85107Y7797D01*
X84925Y7919D01*
X84710Y7962D01*
D02*
G37*
G36*
X123400Y7652D02*
X122600D01*
X122385Y7609D01*
X122203Y7487D01*
X122081Y7305D01*
X122038Y7090D01*
Y6290D01*
X122081Y6075D01*
X122203Y5893D01*
X122385Y5771D01*
X122600Y5728D01*
X123400D01*
X123615Y5771D01*
X123797Y5893D01*
X123919Y6075D01*
X123962Y6290D01*
Y7090D01*
X123919Y7305D01*
X123797Y7487D01*
X123615Y7609D01*
X123400Y7652D01*
D02*
G37*
G36*
X135134Y61215D02*
X135050D01*
Y59915D01*
X136350D01*
Y59999D01*
X136255Y60355D01*
X136070Y60675D01*
X135810Y60935D01*
X135490Y61120D01*
X135134Y61215D01*
D02*
G37*
G36*
X134850D02*
X134766D01*
X134410Y61120D01*
X134090Y60935D01*
X133830Y60675D01*
X133645Y60355D01*
X133550Y59999D01*
Y59915D01*
X134850D01*
Y61215D01*
D02*
G37*
G36*
X136350Y59715D02*
X135050D01*
Y58415D01*
X135134D01*
X135490Y58510D01*
X135810Y58695D01*
X136070Y58955D01*
X136255Y59275D01*
X136350Y59631D01*
Y59715D01*
D02*
G37*
G36*
X134850D02*
X133550D01*
Y59631D01*
X133645Y59275D01*
X133830Y58955D01*
X134090Y58695D01*
X134410Y58510D01*
X134766Y58415D01*
X134850D01*
Y59715D01*
D02*
G37*
G36*
X142179Y59535D02*
X141941D01*
X141711Y59473D01*
X141504Y59354D01*
X141336Y59186D01*
X141217Y58979D01*
X141155Y58749D01*
Y58511D01*
X141217Y58281D01*
X141336Y58074D01*
X141504Y57906D01*
X141711Y57787D01*
X141941Y57725D01*
X142179D01*
X142409Y57787D01*
X142616Y57906D01*
X142784Y58074D01*
X142903Y58281D01*
X142965Y58511D01*
Y58749D01*
X142903Y58979D01*
X142784Y59186D01*
X142616Y59354D01*
X142409Y59473D01*
X142179Y59535D01*
D02*
G37*
G36*
X129229Y57349D02*
X129210D01*
Y56545D01*
X130014D01*
Y56564D01*
X129952Y56794D01*
X129833Y57000D01*
X129665Y57168D01*
X129459Y57287D01*
X129229Y57349D01*
D02*
G37*
G36*
X129010D02*
X128991D01*
X128761Y57287D01*
X128555Y57168D01*
X128387Y57000D01*
X128268Y56794D01*
X128206Y56564D01*
Y56545D01*
X129010D01*
Y57349D01*
D02*
G37*
G36*
X138175Y59491D02*
X137825D01*
X137482Y59423D01*
X137159Y59289D01*
X136868Y59095D01*
X136620Y58847D01*
X136426Y58556D01*
X136292Y58233D01*
X136224Y57890D01*
Y57540D01*
X136292Y57197D01*
X136426Y56874D01*
X136620Y56583D01*
X136868Y56335D01*
X137159Y56141D01*
X137482Y56007D01*
X137825Y55939D01*
X138175D01*
X138518Y56007D01*
X138841Y56141D01*
X139132Y56335D01*
X139380Y56583D01*
X139574Y56874D01*
X139708Y57197D01*
X139776Y57540D01*
Y57890D01*
X139708Y58233D01*
X139574Y58556D01*
X139380Y58847D01*
X139132Y59095D01*
X138841Y59289D01*
X138518Y59423D01*
X138175Y59491D01*
D02*
G37*
G36*
X130014Y56345D02*
X129210D01*
Y55541D01*
X129229D01*
X129459Y55603D01*
X129665Y55722D01*
X129833Y55890D01*
X129952Y56096D01*
X130014Y56326D01*
Y56345D01*
D02*
G37*
G36*
X129010D02*
X128206D01*
Y56326D01*
X128268Y56096D01*
X128387Y55890D01*
X128555Y55722D01*
X128761Y55603D01*
X128991Y55541D01*
X129010D01*
Y56345D01*
D02*
G37*
G36*
X142179Y56995D02*
X141941D01*
X141711Y56933D01*
X141504Y56814D01*
X141336Y56646D01*
X141217Y56439D01*
X141155Y56209D01*
Y55971D01*
X141217Y55741D01*
X141336Y55534D01*
X141504Y55366D01*
X141711Y55247D01*
X141941Y55185D01*
X142179D01*
X142409Y55247D01*
X142616Y55366D01*
X142784Y55534D01*
X142903Y55741D01*
X142965Y55971D01*
Y56209D01*
X142903Y56439D01*
X142784Y56646D01*
X142616Y56814D01*
X142409Y56933D01*
X142179Y56995D01*
D02*
G37*
G36*
X131763Y56030D02*
X131537D01*
X131320Y55972D01*
X131125Y55859D01*
X130966Y55700D01*
X130853Y55505D01*
X130795Y55288D01*
Y55062D01*
X130853Y54845D01*
X130966Y54650D01*
X131125Y54491D01*
X131320Y54378D01*
X131537Y54320D01*
X131763D01*
X131980Y54378D01*
X132175Y54491D01*
X132334Y54650D01*
X132447Y54845D01*
X132505Y55062D01*
Y55288D01*
X132447Y55505D01*
X132334Y55700D01*
X132175Y55859D01*
X131980Y55972D01*
X131763Y56030D01*
D02*
G37*
G36*
X129223Y54760D02*
X128997D01*
X128780Y54702D01*
X128585Y54589D01*
X128426Y54430D01*
X128313Y54235D01*
X128255Y54018D01*
Y53792D01*
X128313Y53575D01*
X128426Y53380D01*
X128511Y53295D01*
X128369Y53083D01*
X128232Y53140D01*
X128232D01*
Y52735D01*
X128637D01*
Y52735D01*
X128560Y52921D01*
X128499Y52982D01*
X128653Y53182D01*
X128712Y53147D01*
X128780Y53108D01*
X128997Y53050D01*
X129223D01*
X129440Y53108D01*
X129635Y53221D01*
X129794Y53380D01*
X129907Y53575D01*
X129965Y53792D01*
Y54018D01*
X129907Y54235D01*
X129794Y54430D01*
X129635Y54589D01*
X129440Y54702D01*
X129223Y54760D01*
D02*
G37*
G36*
X128032Y53140D02*
X128031D01*
X127846Y53063D01*
X127704Y52921D01*
X127627Y52735D01*
Y52735D01*
X128032D01*
Y53140D01*
D02*
G37*
G36*
Y52535D02*
X127627D01*
Y52535D01*
X127704Y52349D01*
X127846Y52207D01*
X128031Y52130D01*
X128032D01*
Y52535D01*
D02*
G37*
G36*
X131763Y53490D02*
X131537D01*
X131320Y53432D01*
X131125Y53319D01*
X130966Y53160D01*
X130853Y52965D01*
X130795Y52748D01*
Y52522D01*
X130853Y52305D01*
X130966Y52110D01*
X131125Y51951D01*
X131320Y51838D01*
X131537Y51780D01*
X131763D01*
X131980Y51838D01*
X132175Y51951D01*
X132334Y52110D01*
X132447Y52305D01*
X132505Y52522D01*
Y52748D01*
X132447Y52965D01*
X132334Y53160D01*
X132175Y53319D01*
X131980Y53432D01*
X131763Y53490D01*
D02*
G37*
G36*
X128637Y52535D02*
X128232D01*
Y52130D01*
X128232D01*
X128369Y52187D01*
X128511Y51975D01*
X128426Y51890D01*
X128313Y51695D01*
X128255Y51478D01*
Y51252D01*
X128313Y51035D01*
X128426Y50840D01*
X128585Y50681D01*
X128780Y50568D01*
X128997Y50510D01*
X129223D01*
X129440Y50568D01*
X129635Y50681D01*
X129794Y50840D01*
X129907Y51035D01*
X129965Y51252D01*
Y51478D01*
X129907Y51695D01*
X129794Y51890D01*
X129635Y52049D01*
X129440Y52162D01*
X129223Y52220D01*
X128997D01*
X128780Y52162D01*
X128653Y52088D01*
X128499Y52288D01*
X128560Y52349D01*
X128637Y52535D01*
Y52535D01*
D02*
G37*
G36*
X131763Y50950D02*
X131537D01*
X131320Y50892D01*
X131125Y50779D01*
X130966Y50620D01*
X130853Y50425D01*
X130795Y50208D01*
Y49982D01*
X130853Y49765D01*
X130966Y49570D01*
X131125Y49411D01*
X131320Y49298D01*
X131537Y49240D01*
X131763D01*
X131980Y49298D01*
X132175Y49411D01*
X132334Y49570D01*
X132447Y49765D01*
X132505Y49982D01*
Y50208D01*
X132447Y50425D01*
X132334Y50620D01*
X132175Y50779D01*
X131980Y50892D01*
X131763Y50950D01*
D02*
G37*
G36*
X129223Y49680D02*
X128997D01*
X128780Y49622D01*
X128585Y49509D01*
X128426Y49350D01*
X128313Y49155D01*
X128255Y48938D01*
Y48712D01*
X128313Y48495D01*
X128426Y48300D01*
X128585Y48141D01*
X128780Y48028D01*
X128997Y47970D01*
X129223D01*
X129440Y48028D01*
X129635Y48141D01*
X129794Y48300D01*
X129907Y48495D01*
X129965Y48712D01*
Y48938D01*
X129907Y49155D01*
X129794Y49350D01*
X129635Y49509D01*
X129440Y49622D01*
X129223Y49680D01*
D02*
G37*
G36*
X142179Y48815D02*
X141941D01*
X141711Y48753D01*
X141504Y48634D01*
X141336Y48466D01*
X141217Y48259D01*
X141155Y48029D01*
Y47791D01*
X141217Y47561D01*
X141336Y47354D01*
X141504Y47186D01*
X141711Y47067D01*
X141941Y47005D01*
X142179D01*
X142409Y47067D01*
X142616Y47186D01*
X142784Y47354D01*
X142903Y47561D01*
X142965Y47791D01*
Y48029D01*
X142903Y48259D01*
X142784Y48466D01*
X142616Y48634D01*
X142409Y48753D01*
X142179Y48815D01*
D02*
G37*
G36*
X132505Y48410D02*
X130795D01*
Y46700D01*
X132505D01*
Y48410D01*
D02*
G37*
G36*
X138175Y48061D02*
X137825D01*
X137482Y47993D01*
X137159Y47859D01*
X136868Y47665D01*
X136620Y47417D01*
X136426Y47126D01*
X136292Y46803D01*
X136224Y46460D01*
Y46110D01*
X136292Y45767D01*
X136426Y45444D01*
X136620Y45153D01*
X136868Y44905D01*
X137159Y44711D01*
X137482Y44577D01*
X137825Y44509D01*
X138175D01*
X138518Y44577D01*
X138841Y44711D01*
X139132Y44905D01*
X139380Y45153D01*
X139574Y45444D01*
X139708Y45767D01*
X139776Y46110D01*
Y46460D01*
X139708Y46803D01*
X139574Y47126D01*
X139380Y47417D01*
X139132Y47665D01*
X138841Y47859D01*
X138518Y47993D01*
X138175Y48061D01*
D02*
G37*
G36*
X142179Y46275D02*
X141941D01*
X141711Y46213D01*
X141504Y46094D01*
X141336Y45926D01*
X141217Y45719D01*
X141155Y45489D01*
Y45251D01*
X141217Y45021D01*
X141336Y44814D01*
X141504Y44646D01*
X141711Y44527D01*
X141941Y44465D01*
X142179D01*
X142409Y44527D01*
X142616Y44646D01*
X142784Y44814D01*
X142903Y45021D01*
X142965Y45251D01*
Y45489D01*
X142903Y45719D01*
X142784Y45926D01*
X142616Y46094D01*
X142409Y46213D01*
X142179Y46275D01*
D02*
G37*
G36*
X135134Y45585D02*
X135050D01*
Y44285D01*
X136350D01*
Y44369D01*
X136255Y44725D01*
X136070Y45045D01*
X135810Y45305D01*
X135490Y45490D01*
X135134Y45585D01*
D02*
G37*
G36*
X134850D02*
X134766D01*
X134410Y45490D01*
X134090Y45305D01*
X133830Y45045D01*
X133645Y44725D01*
X133550Y44369D01*
Y44285D01*
X134850D01*
Y45585D01*
D02*
G37*
G36*
X136350Y44085D02*
X135050D01*
Y42785D01*
X135134D01*
X135490Y42880D01*
X135810Y43065D01*
X136070Y43325D01*
X136255Y43645D01*
X136350Y44001D01*
Y44085D01*
D02*
G37*
G36*
X134850D02*
X133550D01*
Y44001D01*
X133645Y43645D01*
X133830Y43325D01*
X134090Y43065D01*
X134410Y42880D01*
X134766Y42785D01*
X134850D01*
Y44085D01*
D02*
G37*
%LPD*%
D16*
X116257Y50050D02*
D03*
Y51950D02*
D03*
X111757Y50050D02*
D03*
Y51950D02*
D03*
X118007Y51950D02*
D03*
Y50050D02*
D03*
X110007Y51950D02*
D03*
Y50050D02*
D03*
D17*
X114957Y48750D02*
D03*
X113057D02*
D03*
X113050Y47000D02*
D03*
X114950D02*
D03*
X113057Y53250D02*
D03*
X114957D02*
D03*
X113057Y55000D02*
D03*
X114957D02*
D03*
D34*
X97630Y30891D02*
X98181Y31442D01*
X97630Y30053D02*
Y30891D01*
X97676Y29713D02*
Y30006D01*
Y29713D02*
X97736Y29654D01*
X97630Y30053D02*
X97676Y30006D01*
X98843Y30991D02*
X101950Y34098D01*
X98192Y30348D02*
X98236Y30304D01*
X98367Y30991D02*
X98843D01*
X98181Y31442D02*
X98656D01*
X98192Y30815D02*
X98367Y30991D01*
X98192Y30348D02*
Y30815D01*
X98656Y31442D02*
X101499Y34285D01*
X101950Y34098D02*
Y45219D01*
X116040Y40180D02*
Y46960D01*
X114668Y38808D02*
X116040Y40180D01*
X107797Y51832D02*
X107917Y51711D01*
X107057Y51409D02*
X107479Y51832D01*
X107293Y52283D02*
X107797D01*
X107917Y51711D02*
X108175D01*
X106606Y47213D02*
Y51596D01*
X107293Y52283D01*
X107057Y47026D02*
Y51409D01*
X107917Y52403D02*
X108175D01*
X108234Y52462D01*
X108175Y51711D02*
X108234Y51652D01*
X107797Y52283D02*
X107917Y52403D01*
X107479Y51832D02*
X107797D01*
X106000Y45969D02*
X107057Y47026D01*
X106000Y45000D02*
Y45969D01*
X106037Y47037D02*
X106430D01*
X106000Y47000D02*
X106037Y47037D01*
X106430D02*
X106606Y47213D01*
X115119Y38622D02*
X116750Y40252D01*
Y47000D01*
X116000D02*
X116040Y46960D01*
X115603Y37746D02*
X115713Y37637D01*
X115108Y37746D02*
X115603D01*
X115713Y38307D02*
X115960D01*
X116000Y38347D01*
X115603Y38197D02*
X115713Y38307D01*
X115119Y38373D02*
X115295Y38197D01*
X115960Y37637D02*
X116000Y37597D01*
X114668Y38186D02*
X115108Y37746D01*
X114668Y38186D02*
Y38808D01*
X115713Y37637D02*
X115960D01*
X115295Y38197D02*
X115603D01*
X115119Y38373D02*
Y38622D01*
X102231Y45500D02*
X102250D01*
X101950Y45219D02*
X102231Y45500D01*
X101499Y45749D02*
X102250Y46500D01*
X101499Y34285D02*
Y45749D01*
X114950Y47000D02*
X114957Y47007D01*
Y48750D01*
X123025Y35970D02*
X124245Y34750D01*
X123025Y35970D02*
Y42000D01*
X124245Y34750D02*
X125500D01*
X95750Y50002D02*
Y62248D01*
X96000Y62498D01*
Y62500D01*
X86000D02*
X88250Y60250D01*
Y50000D02*
Y60250D01*
X110500Y9500D02*
X119250D01*
X109000Y11000D02*
X110500Y9500D01*
X104000Y16000D02*
X109000Y11000D01*
X103000Y41000D02*
Y51250D01*
Y30000D02*
Y41000D01*
X104000Y16000D02*
Y29000D01*
X83000Y54000D02*
Y58648D01*
X84257Y59905D01*
X67000Y54000D02*
Y58648D01*
X68257Y59905D01*
X51000Y58648D02*
X52257Y59905D01*
X51000Y54000D02*
Y58648D01*
X103000Y30000D02*
X104000Y29000D01*
X102250Y52000D02*
X103000Y51250D01*
X110000Y50043D02*
X110007Y50050D01*
X110000Y41000D02*
Y50043D01*
X102250Y56500D02*
X102250Y56500D01*
X102250Y52000D02*
Y56500D01*
X118757Y51950D02*
X118807Y52000D01*
X121750D01*
X118007Y51950D02*
X118757D01*
X116257D02*
X118007D01*
X116000Y53000D02*
X116257Y52743D01*
Y51950D02*
Y52743D01*
X115998Y49000D02*
X116000D01*
X115748Y48750D02*
X115998Y49000D01*
X114957Y48750D02*
X115748D01*
X110869Y50997D02*
X111503D01*
X111757Y50743D01*
Y50050D02*
Y50743D01*
X110007Y50050D02*
X111757D01*
D35*
X106000Y24082D02*
Y42998D01*
Y24082D02*
X106015Y24067D01*
X89404Y34846D02*
X94226D01*
X94267Y34887D01*
X88048Y36202D02*
X89404Y34846D01*
X69900Y14250D02*
X77524D01*
X75618Y11352D02*
X79814Y15547D01*
X79668Y15898D02*
X83599D01*
X75570Y11800D02*
X79668Y15898D01*
X79523Y16249D02*
X83454D01*
X77524Y14250D02*
X79523Y16249D01*
X79814Y15547D02*
X83745D01*
X71784Y11352D02*
X75618D01*
X71500Y11800D02*
X75570D01*
X78115Y12919D02*
X78190Y12994D01*
X78810D01*
X78909Y13494D02*
X79440D01*
X78847Y13556D02*
X78909Y13494D01*
X78816Y13000D02*
X82687D01*
X78810Y12994D02*
X78816Y13000D01*
X79706Y13499D02*
X79706Y13500D01*
X82690D01*
X79476Y14055D02*
X79531Y14000D01*
X82694D01*
X79440Y13494D02*
X79445Y13499D01*
X79706D01*
X50012Y14890D02*
X54623Y19500D01*
X85216D01*
X49392Y12892D02*
X55500Y19000D01*
X85212D01*
X49000Y12892D02*
X49392D01*
X48000Y26000D02*
X84500D01*
X47833Y26619D02*
X84881D01*
X47714Y26500D02*
X47833Y26619D01*
X84881D02*
X86500Y25000D01*
X38000Y26500D02*
X47714D01*
X84500Y26000D02*
X86500Y24000D01*
X39500Y26000D02*
X48000D01*
X82500Y22000D02*
X83525Y23025D01*
X87639D01*
X82687Y13000D02*
X93202Y23515D01*
X85216Y19500D02*
X89579Y23864D01*
X83308Y16600D02*
X90500Y23792D01*
X83745Y15547D02*
X92149Y23951D01*
X83454Y16249D02*
X90851Y23646D01*
X82694Y14000D02*
X92500Y23806D01*
X85212Y19000D02*
X90085Y23873D01*
X82690Y13500D02*
X92851Y23661D01*
X83599Y15898D02*
X91202Y23501D01*
X83816Y22500D02*
X86571D01*
X86647Y22424D01*
X89579Y23864D02*
Y25801D01*
X89527Y25854D02*
X89579Y25801D01*
X89500Y29500D02*
X90085Y28915D01*
Y23873D02*
Y28915D01*
X99184Y33261D02*
X99511D01*
X98117Y32193D02*
X99184Y33261D01*
X99511D02*
X100500Y34250D01*
X95911Y28239D02*
X96388Y27762D01*
X95911Y28239D02*
Y40094D01*
X96500Y28557D02*
Y40001D01*
X96467Y28524D02*
X96500Y28557D01*
X95505Y40500D02*
X95911Y40094D01*
X95477Y41025D02*
X96500Y40001D01*
X97079Y58495D02*
X97250Y58666D01*
X96355Y25678D02*
X97079Y26402D01*
Y58495D01*
X97250Y58666D02*
Y58750D01*
X100500Y34250D02*
Y48250D01*
X90851Y30851D02*
X91565Y31565D01*
X91595D01*
X92149Y29904D02*
X93059Y30814D01*
Y31835D01*
X70145Y32505D02*
X92794D01*
X92795Y32506D02*
X93215D01*
X93216Y32505D02*
X93995D01*
X95505Y30995D01*
X68650Y34000D02*
X70145Y32505D01*
X92794D02*
X92795Y32506D01*
X93215D02*
X93216Y32505D01*
X92149Y23951D02*
Y29904D01*
X92500Y23806D02*
Y29759D01*
X93942Y31201D01*
X93202Y28202D02*
X94759Y29759D01*
X94827D01*
X95505Y20005D02*
Y30995D01*
X113755Y45165D02*
X113776Y45186D01*
X113755Y21505D02*
Y45165D01*
X114261Y41827D02*
X114366Y41932D01*
X114261Y38026D02*
Y41827D01*
X114366Y41932D02*
Y45843D01*
X114261Y38026D02*
X114381Y37907D01*
X113034Y36386D02*
X113250Y36170D01*
X113034Y36386D02*
Y44444D01*
X113250Y27750D02*
Y36170D01*
X112562Y29312D02*
Y37364D01*
X112320Y37606D02*
Y45770D01*
X106750Y23500D02*
X112562Y29312D01*
X112320Y37606D02*
X112562Y37364D01*
X106000Y48067D02*
Y51000D01*
X104000Y33000D02*
Y46067D01*
X106000Y48067D01*
X68594Y8162D02*
X71784Y11352D01*
X49350Y8162D02*
X68594D01*
X101750Y12000D02*
Y17171D01*
X96355Y22566D02*
Y24000D01*
Y25678D01*
Y22566D02*
X101750Y17171D01*
X114381Y34966D02*
Y37907D01*
X112250Y20000D02*
X113755Y21505D01*
X115205Y14025D02*
Y24694D01*
X115179Y24719D02*
X115205Y24694D01*
Y14025D02*
X115230Y14000D01*
X117770D02*
X117771Y14001D01*
Y25220D01*
X89500Y30614D02*
X90500Y29614D01*
X91202Y29873D02*
X92262Y30934D01*
X90500Y23792D02*
Y29614D01*
X91202Y23501D02*
Y29873D01*
X90851Y23646D02*
Y30851D01*
X80310Y35500D02*
X87000D01*
X76270Y34000D02*
X78121Y35851D01*
X87649D01*
X87000Y35500D02*
X87750Y34750D01*
X78810Y34000D02*
X80310Y35500D01*
X77298Y36202D02*
X88048D01*
X87649Y35851D02*
X88800Y34700D01*
X76750Y36750D02*
X77298Y36202D01*
X95475Y41025D02*
X95477D01*
X94500Y42000D02*
X95475Y41025D01*
X95500Y20000D02*
X95505Y20005D01*
X34000Y22500D02*
X38000Y26500D01*
X62432Y22000D02*
X82500D01*
X65352Y21600D02*
X82916D01*
X83816Y22500D01*
X80641Y10352D02*
X94010Y23721D01*
X71190Y16600D02*
X83308D01*
X76690Y10352D02*
X80641D01*
X54500Y9000D02*
X68700D01*
X71500Y11800D01*
X92851Y28851D02*
X94495Y30495D01*
X94010Y23721D02*
Y26629D01*
X93202Y23515D02*
Y28202D01*
X92851Y23661D02*
Y28851D01*
X94000Y26639D02*
X94010Y26629D01*
X94000Y26639D02*
Y27500D01*
X29190Y13810D02*
X35408Y7592D01*
X42985D02*
X43077Y7500D01*
X44877D02*
X45190Y7813D01*
X45239D01*
X43077Y7500D02*
X44877D01*
X35408Y7592D02*
X42985D01*
X29000Y13810D02*
X29190D01*
X29000Y11270D02*
X33029Y7241D01*
X42839D01*
X43080Y7000D01*
X45440D02*
X45940Y6500D01*
X43080Y7000D02*
X45440D01*
X112966Y51950D02*
X113166Y51750D01*
X113250D01*
X111757Y51950D02*
X112966D01*
X110007D02*
X111757D01*
X53028Y22000D02*
X62432D01*
X65002Y21250D02*
X65352Y21600D01*
X54818Y21250D02*
X65002D01*
X54222Y4400D02*
X55094Y5272D01*
X30790Y4400D02*
X54222D01*
X29000Y6190D02*
X30790Y4400D01*
X45940Y6500D02*
X69688D01*
X49000Y15432D02*
X54818Y21250D01*
X49000Y17972D02*
X53028Y22000D01*
X45248Y5250D02*
X45250D01*
X44998Y5000D02*
X45248Y5250D01*
X32730Y5000D02*
X44998D01*
X76750Y36750D02*
Y44250D01*
X77250Y44750D01*
X88800Y34200D02*
Y34700D01*
X69688Y6500D02*
X71000Y7812D01*
X102250Y11750D02*
Y17500D01*
X97500Y22250D02*
X102250Y17500D01*
X97500Y22250D02*
Y25750D01*
X95120Y6650D02*
X97150D01*
X102250Y11750D01*
X98750Y9000D02*
X101750Y12000D01*
X94000Y9000D02*
X98750D01*
X92230Y7230D02*
X94000Y9000D01*
X92230Y7000D02*
Y7230D01*
X94770Y7000D02*
X95120Y6650D01*
X101500Y20000D02*
X103000Y18500D01*
Y12700D02*
Y18500D01*
Y12700D02*
X103650Y12050D01*
X89750Y40500D02*
X95505D01*
X29000Y8730D02*
X32730Y5000D01*
X49000Y7812D02*
X49350Y8162D01*
X55094Y5272D02*
X71000D01*
X40000Y27500D02*
X89500D01*
X37500Y30000D02*
X40000Y27500D01*
X36000Y22500D02*
X39500Y26000D01*
X107800Y22300D02*
X113250Y27750D01*
X89500Y30614D02*
Y31500D01*
X114957Y55000D02*
X116000D01*
X106750Y22300D02*
X107800D01*
X100500Y48250D02*
X102250Y50000D01*
X108250Y43500D02*
X109000Y44250D01*
Y54000D02*
X110000Y55000D01*
X109000Y44250D02*
Y54000D01*
X108250Y32000D02*
Y43500D01*
X107250Y31000D02*
X108250Y32000D01*
X113057Y53250D02*
Y55000D01*
X114957Y53250D02*
Y55000D01*
X112002Y53000D02*
X112252Y53250D01*
X112000Y53000D02*
X112002D01*
X112252Y53250D02*
X113057D01*
X107597Y44597D02*
Y48597D01*
X106000Y43000D02*
X107597Y44597D01*
Y48597D02*
X108250Y49250D01*
D36*
X124250Y20000D02*
Y26248D01*
X124000Y26498D02*
Y26500D01*
Y26498D02*
X124250Y26248D01*
D37*
X121800Y47000D02*
Y50000D01*
Y41000D02*
Y45000D01*
Y47000D01*
X114950D02*
X115072Y46878D01*
X115000Y41030D02*
X115072Y41102D01*
X115000Y41000D02*
Y41030D01*
X115072Y41102D02*
Y46878D01*
X90750Y67317D02*
X91000Y67067D01*
X121800Y50000D02*
Y52000D01*
X91000Y58750D02*
Y64000D01*
Y53500D02*
Y58750D01*
Y64000D02*
Y67067D01*
X90000Y52500D02*
X91000Y53500D01*
X35500Y26000D02*
Y32000D01*
X121800Y55000D02*
Y59000D01*
Y52000D02*
Y55000D01*
D40*
X87250Y67500D02*
D03*
D41*
X91000D02*
D03*
X94750D02*
D03*
D42*
Y88500D02*
D03*
X87250Y85000D02*
D03*
D43*
X131650Y47555D02*
D03*
D44*
X129110Y48825D02*
D03*
X131650Y50095D02*
D03*
X129110Y51365D02*
D03*
X131650Y52635D02*
D03*
X129110Y53905D02*
D03*
X131650Y55175D02*
D03*
X129110Y56445D02*
D03*
D45*
X138000Y46285D02*
D03*
Y57715D02*
D03*
D46*
X134950Y59815D02*
D03*
Y44185D02*
D03*
D47*
X142060Y45370D02*
D03*
Y58630D02*
D03*
Y47910D02*
D03*
Y56090D02*
D03*
D48*
X72094Y24703D02*
D03*
X48894D02*
D03*
D49*
X123000Y9230D02*
D03*
Y11770D02*
D03*
Y14310D02*
D03*
X56540Y38000D02*
D03*
X50520Y32000D02*
D03*
X42000Y8730D02*
D03*
Y11270D02*
D03*
Y13810D02*
D03*
X115230Y14000D02*
D03*
X76270Y34000D02*
D03*
X71190D02*
D03*
X73730D02*
D03*
X78810D02*
D03*
X81350D02*
D03*
X29000Y8730D02*
D03*
Y11270D02*
D03*
Y13810D02*
D03*
X92230Y7000D02*
D03*
X81770D02*
D03*
X79230D02*
D03*
X76690D02*
D03*
D50*
X123000Y6690D02*
D03*
X42000Y6190D02*
D03*
X29000D02*
D03*
D51*
X54000Y38000D02*
D03*
X47980Y32000D02*
D03*
X117770Y14000D02*
D03*
X68650Y34000D02*
D03*
X94770Y7000D02*
D03*
X84310D02*
D03*
D52*
X25000Y27500D02*
D03*
X21000D02*
D03*
D53*
X106230Y74680D02*
D03*
X111230Y82300D02*
D03*
Y74680D02*
D03*
X106230Y82300D02*
D03*
X101230D02*
D03*
Y74680D02*
D03*
X23230Y73300D02*
D03*
Y65680D02*
D03*
D54*
X116230Y82300D02*
D03*
Y74680D02*
D03*
X28230Y73300D02*
D03*
Y65680D02*
D03*
D55*
X130000Y87000D02*
D03*
X20000D02*
D03*
X130000Y8000D02*
D03*
X20000D02*
D03*
D56*
X23000Y53670D02*
D03*
D57*
Y57570D02*
D03*
X43760Y58860D02*
D03*
Y48700D02*
D03*
Y37270D02*
D03*
D58*
X38000Y22500D02*
D03*
X36000D02*
D03*
X34000D02*
D03*
D59*
X32000D02*
D03*
D60*
X121800Y45000D02*
D03*
X98236Y30304D02*
D03*
X97736Y29654D02*
D03*
X106015Y24067D02*
D03*
X94267Y34887D02*
D03*
X78115Y12919D02*
D03*
X78847Y13556D02*
D03*
X79476Y14055D02*
D03*
X50012Y14890D02*
D03*
X50491Y26619D02*
D03*
X87639Y23025D02*
D03*
X86647Y22424D02*
D03*
X89527Y25854D02*
D03*
X89500Y27500D02*
D03*
X98117Y32193D02*
D03*
X96388Y27762D02*
D03*
X96467Y28524D02*
D03*
X91595Y31565D02*
D03*
X93059Y31835D02*
D03*
X93942Y31201D02*
D03*
X94827Y29759D02*
D03*
X113776Y45186D02*
D03*
X114366Y45843D02*
D03*
X113034Y44444D02*
D03*
X112320Y45770D02*
D03*
X108234Y52462D02*
D03*
Y51652D02*
D03*
X48000Y26000D02*
D03*
X117771Y25220D02*
D03*
X77250Y44750D02*
D03*
X94500Y32000D02*
D03*
Y30500D02*
D03*
X72000Y50000D02*
D03*
X33600Y30950D02*
D03*
X35500Y32000D02*
D03*
Y26000D02*
D03*
X106000Y47000D02*
D03*
Y45000D02*
D03*
X110869Y50997D02*
D03*
X106000Y51000D02*
D03*
X102250Y50000D02*
D03*
X102250Y52000D02*
D03*
X108250Y49250D02*
D03*
X106000Y43000D02*
D03*
X112000Y53000D02*
D03*
X116000Y49000D02*
D03*
Y53000D02*
D03*
X121800Y52000D02*
D03*
Y50000D02*
D03*
Y47000D02*
D03*
X121750Y41000D02*
D03*
X121800Y55000D02*
D03*
X115000Y41000D02*
D03*
X116000Y47000D02*
D03*
X116850D02*
D03*
X106750Y23500D02*
D03*
X110000Y55000D02*
D03*
X107250Y31000D02*
D03*
X103000Y41000D02*
D03*
X102250Y56500D02*
D03*
X110000Y41000D02*
D03*
X102250Y45500D02*
D03*
Y46500D02*
D03*
X104000Y29000D02*
D03*
Y33000D02*
D03*
X121800Y59000D02*
D03*
X51000Y54000D02*
D03*
X52257Y59905D02*
D03*
X68257D02*
D03*
X67000Y54000D02*
D03*
X84257Y59905D02*
D03*
X83000Y54000D02*
D03*
X106750Y22300D02*
D03*
X109000Y11000D02*
D03*
X116000Y55000D02*
D03*
X90000Y52500D02*
D03*
X88800Y34200D02*
D03*
X89500Y31500D02*
D03*
Y29500D02*
D03*
X49000Y17972D02*
D03*
Y15432D02*
D03*
Y12892D02*
D03*
Y7812D02*
D03*
X76690Y10352D02*
D03*
X49000Y23052D02*
D03*
X86000Y28750D02*
D03*
X124250Y20000D02*
D03*
X37500Y30000D02*
D03*
X113250Y50236D02*
D03*
X114000Y51000D02*
D03*
X91000Y58750D02*
D03*
X113250Y51750D02*
D03*
X114750Y51742D02*
D03*
Y50273D02*
D03*
X95500Y20000D02*
D03*
X123175Y51950D02*
D03*
X86500Y25000D02*
D03*
Y24000D02*
D03*
X101500Y20000D02*
D03*
X103650Y12050D02*
D03*
X97500Y25750D02*
D03*
X96355Y24000D02*
D03*
X54500Y9000D02*
D03*
X92262Y30934D02*
D03*
X94000Y27500D02*
D03*
X49000Y10352D02*
D03*
X71000Y7812D02*
D03*
Y5272D02*
D03*
Y23005D02*
D03*
X87750Y34750D02*
D03*
X119250Y9500D02*
D03*
X112250Y20000D02*
D03*
X89750Y40500D02*
D03*
X115179Y24719D02*
D03*
X114381Y34966D02*
D03*
X116000Y38347D02*
D03*
Y37500D02*
D03*
X65000Y21250D02*
D03*
X45239Y7813D02*
D03*
X94500Y42000D02*
D03*
X91000Y64000D02*
D03*
X124000Y26500D02*
D03*
X95750Y50000D02*
D03*
X137500Y40000D02*
D03*
X97250Y58750D02*
D03*
X131000Y40000D02*
D03*
X92500Y65000D02*
D03*
X96000Y62500D02*
D03*
X128132Y52635D02*
D03*
X89500Y65000D02*
D03*
X123025Y42000D02*
D03*
X45250Y5250D02*
D03*
X125500Y34750D02*
D03*
X84887Y24756D02*
D03*
X71190Y16600D02*
D03*
X69900Y14250D02*
D03*
X62432Y22000D02*
D03*
X86000Y62500D02*
D03*
X88250Y50000D02*
D03*
%TF.MD5,308e674ac0b2b9f95736392c208f3714*%
M02*
