M48
;Layer_Color=9474304
;FILE_FORMAT=4:3
METRIC,LZ
;TYPE=PLATED
T1F00S00C0.250
T2F00S00C0.710
T3F00S00C0.800
T4F00S00C0.800
T5F00S00C0.900
T6F00S00C1.000
T7F00S00C1.100
T8F00S00C1.200
T9F00S00C1.300
T10F00S00C1.600
T11F00S00C3.200
;TYPE=NON_PLATED
T12F00S00C1.400
T13F00S00C3.250
%
T01
X004525Y000525
X0045239Y0007813
X0049Y0007812
Y0010352
Y0012892
Y0015432
X0050012Y001489
X0049Y0017972
Y0023052
X0048Y0026
X0050491Y0026619
X00355Y0026
X0062432Y0022
X0065Y002125
X00545Y0009
X0071Y0007812
Y0005272
X00699Y001425
X007119Y00166
X0071Y0023005
X0084887Y0024756
X00865Y0025
Y0024
X0086647Y0022424
X0087639Y0023025
X0089527Y0025854
X00895Y00275
X0094
X0096388Y0027762
X00975Y002575
X0096355Y0024
X00955Y002
X01015
X010675Y00223
Y00235
X0106015Y0024067
X010365Y001205
X0079476Y0014055
X0078847Y0013556
X0078115Y0012919
X007669Y0010352
X0109Y0011
X011925Y00095
X012425Y002
X0124Y00265
X0117771Y002522
X0115179Y0024719
X011225Y002
X010725Y0031
X0114381Y0034966
X0116Y00375
Y0038347
X0115Y0041
X011
X0113034Y0044444
X0113776Y0045186
X0114366Y0045843
X011232Y004577
X0116Y0047
X011685
X0116Y0049
X011475Y0050273
Y0051742
X0114Y0051
X011325Y005175
Y0050236
X0110869Y0050997
X0112Y0053
X011Y0055
X0108234Y0052462
Y0051652
X010825Y004925
X0116Y0053
Y0055
X01218
Y0052
X0123175Y005195
X01218Y005
Y0047
Y0045
X012175Y0041
X0123025Y0042
X01255Y003475
X0131Y004
X01375
X0128132Y0052635
X01218Y0059
X010225Y00565
X010225Y0052
X010225Y005
Y00465
Y00455
X0106Y0045
Y0043
Y0047
Y0051
X009575Y005
X008825
X009Y00525
X0091Y005875
Y0064
X00925Y0065
X00895
X0086Y00625
X0084257Y0059905
X0083Y0054
X007725Y004475
X0072Y005
X0068257Y0059905
X009725Y005875
X0096Y00625
X00945Y0042
X008975Y00405
X00888Y00342
X008775Y003475
X00895Y00315
Y00295
X0091595Y0031565
X0092262Y0030934
X0093059Y0031835
X0093942Y0031201
X00945Y00305
X0094827Y0029759
X00945Y0032
X0094267Y0034887
X0098117Y0032193
X0098236Y0030304
X0097736Y0029654
X0096467Y0028524
X0104Y0029
Y0033
X0103Y0041
X0086Y002875
X0067Y0054
X0051
X0052257Y0059905
X00375Y003
X00355Y0032
X00336Y003095
T02
X004376Y003727
Y00487
Y005886
X0023Y005757
Y005367
T03
X0032Y00225
X0034
X0036
X0038
T04
X0021Y00275
X0025
T05
X012911Y0048825
Y0051365
Y0053905
Y0056445
X013165Y0055175
Y0052635
Y0050095
Y0047555
T06
X014206Y004537
Y004791
Y005609
Y005863
T07
X0029Y000619
Y000873
Y001127
Y001381
X0042
Y001127
Y000873
Y000619
X007669Y0007
X007923
X008177
X008431
X009223
X009477
X011523Y0014
X011777
X0123Y001431
Y001177
Y000923
Y000669
X008135Y0034
X007881
X007627
X007373
X007119
X006865
X005654Y0038
X0054
X005052Y0032
X004798
T08
X008725Y00675
X0091
X009475
Y00885
X008725Y0085
T09
X002823Y006568
X002323
Y00733
X002823
X010123Y007468
X010623
Y00823
X010123
X011123
X011623
Y007468
X011123
T10
X013495Y0044185
Y0059815
T11
X002Y0008
X013
X002Y0087
X013
T12
X0048894Y0024703
X0072094
T13
X0138Y0046285
Y0057715
M30
