%TF.GenerationSoftware,Altium Limited,Altium Designer,22.7.1 (60)*%
G04 Layer_Color=32896*
%FSLAX43Y43*%
%MOMM*%
%TF.SameCoordinates,78523E66-F16A-4A5C-AB3F-0B208B4BDBBB*%
%TF.FilePolarity,Positive*%
%TF.FileFunction,Legend,Bot*%
%TF.Part,Single*%
G01*
G75*
%TA.AperFunction,NonConductor*%
%ADD61C,0.200*%
G36*
X121567Y90128D02*
X121600Y90124D01*
X121627Y90115D01*
X121646Y90105D01*
X121664Y90096D01*
X121674Y90091D01*
X121678Y90087D01*
X121697Y90078D01*
X121706Y90073D01*
X121748Y90036D01*
X121785Y89994D01*
X121803Y89966D01*
X121812Y89957D01*
Y89953D01*
X123205Y87537D01*
X123210D01*
Y87532D01*
Y87528D01*
X123219Y87509D01*
X123229Y87495D01*
X123233Y87486D01*
Y87481D01*
X123238Y87467D01*
X123242Y87449D01*
X123247Y87435D01*
Y87430D01*
X123252Y87379D01*
Y87333D01*
X123247Y87292D01*
X123238Y87255D01*
X123224Y87222D01*
X123215Y87199D01*
X123210Y87185D01*
X123205Y87180D01*
X123187Y87148D01*
X123182Y87139D01*
X123178Y87134D01*
X123154Y87111D01*
X123145Y87102D01*
X123141Y87097D01*
X123099Y87065D01*
X123057Y87042D01*
X123016Y87023D01*
X122974Y87014D01*
X122942Y87005D01*
X122914Y87000D01*
X120095D01*
X120072Y87005D01*
X120054D01*
X120049Y87009D01*
X120031D01*
X120012Y87014D01*
X119998Y87019D01*
X119994D01*
X119947Y87037D01*
X119906Y87060D01*
X119873Y87088D01*
X119846Y87116D01*
X119822Y87139D01*
X119809Y87162D01*
X119799Y87176D01*
X119795Y87180D01*
X119790D01*
X119781Y87204D01*
X119771Y87218D01*
X119767Y87227D01*
Y87231D01*
X119762Y87250D01*
X119758Y87268D01*
X119753Y87278D01*
Y87282D01*
X119748Y87333D01*
Y87379D01*
X119753Y87426D01*
X119762Y87463D01*
X119776Y87495D01*
X119785Y87523D01*
X119790Y87537D01*
X119795Y87541D01*
X121192Y89962D01*
X121211Y89990D01*
X121215Y89999D01*
X121220Y90003D01*
X121243Y90027D01*
X121252Y90036D01*
X121257Y90041D01*
X121299Y90073D01*
X121336Y90096D01*
X121377Y90115D01*
X121414Y90124D01*
X121447Y90133D01*
X121475Y90138D01*
X121535D01*
X121567Y90128D01*
D02*
G37*
G36*
X59701Y84389D02*
X59799Y84375D01*
X59882Y84347D01*
X59938Y84319D01*
X59993Y84292D01*
X60021Y84278D01*
X60035Y84264D01*
X60090Y84236D01*
X60118Y84222D01*
X60243Y84111D01*
X60354Y83986D01*
X60410Y83903D01*
X60437Y83875D01*
Y83861D01*
X64618Y76611D01*
X64632D01*
Y76597D01*
Y76583D01*
X64660Y76528D01*
X64687Y76486D01*
X64701Y76458D01*
Y76444D01*
X64715Y76403D01*
X64729Y76347D01*
X64743Y76306D01*
Y76292D01*
X64757Y76139D01*
Y76000D01*
X64743Y75875D01*
X64715Y75764D01*
X64674Y75667D01*
X64646Y75597D01*
X64632Y75556D01*
X64618Y75542D01*
X64562Y75444D01*
X64549Y75417D01*
X64535Y75403D01*
X64465Y75333D01*
X64437Y75306D01*
X64424Y75292D01*
X64299Y75194D01*
X64174Y75125D01*
X64049Y75069D01*
X63924Y75042D01*
X63826Y75014D01*
X63743Y75000D01*
X55285D01*
X55215Y75014D01*
X55160D01*
X55146Y75028D01*
X55090D01*
X55035Y75042D01*
X54993Y75056D01*
X54979D01*
X54840Y75111D01*
X54715Y75181D01*
X54618Y75264D01*
X54535Y75347D01*
X54465Y75417D01*
X54424Y75486D01*
X54396Y75528D01*
X54382Y75542D01*
X54368D01*
X54340Y75611D01*
X54313Y75653D01*
X54299Y75681D01*
Y75694D01*
X54285Y75750D01*
X54271Y75806D01*
X54257Y75833D01*
Y75847D01*
X54243Y76000D01*
Y76139D01*
X54257Y76278D01*
X54285Y76389D01*
X54326Y76486D01*
X54354Y76569D01*
X54368Y76611D01*
X54382Y76625D01*
X58576Y83889D01*
X58632Y83972D01*
X58646Y84000D01*
X58660Y84014D01*
X58729Y84083D01*
X58757Y84111D01*
X58771Y84125D01*
X58896Y84222D01*
X59007Y84292D01*
X59132Y84347D01*
X59243Y84375D01*
X59340Y84403D01*
X59424Y84417D01*
X59604D01*
X59701Y84389D01*
D02*
G37*
G36*
X18554Y60503D02*
X18580Y60500D01*
X18602Y60492D01*
X18617Y60485D01*
X18631Y60478D01*
X18639Y60474D01*
X18643Y60470D01*
X18657Y60463D01*
X18665Y60459D01*
X18698Y60429D01*
X18728Y60396D01*
X18743Y60374D01*
X18750Y60366D01*
Y60363D01*
X19865Y58430D01*
X19868D01*
Y58426D01*
Y58422D01*
X19876Y58407D01*
X19883Y58396D01*
X19887Y58389D01*
Y58385D01*
X19891Y58374D01*
X19894Y58359D01*
X19898Y58348D01*
Y58344D01*
X19902Y58304D01*
Y58267D01*
X19898Y58233D01*
X19891Y58204D01*
X19879Y58178D01*
X19872Y58159D01*
X19868Y58148D01*
X19865Y58144D01*
X19850Y58119D01*
X19846Y58111D01*
X19842Y58107D01*
X19824Y58089D01*
X19817Y58081D01*
X19813Y58078D01*
X19779Y58052D01*
X19746Y58033D01*
X19713Y58019D01*
X19680Y58011D01*
X19654Y58004D01*
X19631Y58000D01*
X17376D01*
X17358Y58004D01*
X17343D01*
X17339Y58007D01*
X17324D01*
X17309Y58011D01*
X17298Y58015D01*
X17295D01*
X17258Y58030D01*
X17224Y58048D01*
X17198Y58070D01*
X17176Y58093D01*
X17158Y58111D01*
X17146Y58130D01*
X17139Y58141D01*
X17135Y58144D01*
X17132D01*
X17124Y58163D01*
X17117Y58174D01*
X17113Y58181D01*
Y58185D01*
X17109Y58200D01*
X17106Y58215D01*
X17102Y58222D01*
Y58226D01*
X17098Y58267D01*
Y58304D01*
X17102Y58341D01*
X17109Y58370D01*
X17121Y58396D01*
X17128Y58418D01*
X17132Y58430D01*
X17135Y58433D01*
X18254Y60370D01*
X18269Y60392D01*
X18272Y60400D01*
X18276Y60403D01*
X18294Y60422D01*
X18302Y60429D01*
X18306Y60433D01*
X18339Y60459D01*
X18369Y60478D01*
X18402Y60492D01*
X18431Y60500D01*
X18457Y60507D01*
X18480Y60511D01*
X18528D01*
X18554Y60503D01*
D02*
G37*
%LPC*%
G36*
X121507Y89902D02*
X121498D01*
Y89897D01*
X121470D01*
X121447Y89888D01*
X121405Y89874D01*
X121377Y89855D01*
X121373Y89851D01*
X121368Y89846D01*
X121354Y89832D01*
X121350Y89828D01*
X121340Y89814D01*
X121336Y89809D01*
Y89804D01*
X120008Y87509D01*
Y87504D01*
X119994Y87477D01*
X119984Y87454D01*
X119980Y87435D01*
Y87426D01*
Y87412D01*
Y87407D01*
X119984Y87370D01*
X119989Y87338D01*
X119998Y87319D01*
X120003Y87310D01*
X120040Y87268D01*
X120072Y87241D01*
X120100Y87227D01*
X120109Y87222D01*
X120114D01*
X120109Y87227D01*
X120119Y87222D01*
X120132Y87218D01*
X120169D01*
Y87213D01*
X122826D01*
X122854Y87218D01*
X122881Y87222D01*
X122923Y87241D01*
X122951Y87255D01*
X122955Y87264D01*
X122960D01*
X122974Y87282D01*
X122979Y87287D01*
X122992Y87301D01*
X122997Y87310D01*
X123006Y87333D01*
X123016Y87356D01*
X123020Y87403D01*
Y87421D01*
X123016Y87430D01*
Y87440D01*
Y87444D01*
X123011Y87463D01*
X123006Y87467D01*
Y87472D01*
X123002Y87491D01*
X122997Y87495D01*
Y87500D01*
Y87504D01*
X121669Y89800D01*
X121650Y89828D01*
X121632Y89846D01*
X121618Y89860D01*
X121613Y89865D01*
X121604D01*
X121600Y89869D01*
Y89874D01*
X121562Y89892D01*
X121530Y89897D01*
X121507Y89902D01*
D02*
G37*
%LPD*%
G36*
X121627Y89629D02*
X122058Y88143D01*
X121387Y88472D01*
X121595Y87680D01*
X121738Y87791D01*
X121669Y87347D01*
X121350Y87717D01*
X121544Y87671D01*
X121012Y88772D01*
X121882Y88324D01*
X121313Y89638D01*
X121627Y89629D01*
D02*
G37*
%LPC*%
G36*
X59521Y83708D02*
X59493D01*
Y83694D01*
X59410D01*
X59340Y83667D01*
X59215Y83625D01*
X59132Y83569D01*
X59118Y83555D01*
X59104Y83542D01*
X59063Y83500D01*
X59049Y83486D01*
X59021Y83444D01*
X59007Y83430D01*
Y83417D01*
X55021Y76528D01*
Y76514D01*
X54979Y76431D01*
X54951Y76361D01*
X54938Y76306D01*
Y76278D01*
Y76236D01*
Y76222D01*
X54951Y76111D01*
X54965Y76014D01*
X54993Y75958D01*
X55007Y75931D01*
X55118Y75806D01*
X55215Y75722D01*
X55299Y75681D01*
X55326Y75667D01*
X55340D01*
X55326Y75681D01*
X55354Y75667D01*
X55396Y75653D01*
X55507D01*
Y75639D01*
X63479D01*
X63562Y75653D01*
X63646Y75667D01*
X63771Y75722D01*
X63854Y75764D01*
X63868Y75792D01*
X63882D01*
X63924Y75847D01*
X63937Y75861D01*
X63979Y75903D01*
X63993Y75931D01*
X64021Y76000D01*
X64049Y76069D01*
X64062Y76208D01*
Y76264D01*
X64049Y76292D01*
Y76319D01*
Y76333D01*
X64035Y76389D01*
X64021Y76403D01*
Y76417D01*
X64007Y76472D01*
X63993Y76486D01*
Y76500D01*
Y76514D01*
X60007Y83403D01*
X59951Y83486D01*
X59896Y83542D01*
X59854Y83583D01*
X59840Y83597D01*
X59812D01*
X59799Y83611D01*
Y83625D01*
X59688Y83680D01*
X59590Y83694D01*
X59521Y83708D01*
D02*
G37*
%LPD*%
G36*
X59882Y82889D02*
X61174Y78431D01*
X59160Y79417D01*
X59785Y77042D01*
X60215Y77375D01*
X60007Y76042D01*
X59049Y77153D01*
X59632Y77014D01*
X58035Y80319D01*
X60646Y78972D01*
X58938Y82917D01*
X59882Y82889D01*
D02*
G37*
%LPC*%
G36*
X18506Y60322D02*
X18498D01*
Y60318D01*
X18476D01*
X18457Y60311D01*
X18424Y60300D01*
X18402Y60285D01*
X18398Y60281D01*
X18394Y60278D01*
X18383Y60266D01*
X18380Y60263D01*
X18372Y60252D01*
X18369Y60248D01*
Y60244D01*
X17306Y58407D01*
Y58404D01*
X17295Y58381D01*
X17287Y58363D01*
X17283Y58348D01*
Y58341D01*
Y58330D01*
Y58326D01*
X17287Y58296D01*
X17291Y58270D01*
X17298Y58256D01*
X17302Y58248D01*
X17332Y58215D01*
X17358Y58193D01*
X17380Y58181D01*
X17387Y58178D01*
X17391D01*
X17387Y58181D01*
X17395Y58178D01*
X17406Y58174D01*
X17435D01*
Y58170D01*
X19561D01*
X19583Y58174D01*
X19605Y58178D01*
X19639Y58193D01*
X19661Y58204D01*
X19665Y58211D01*
X19668D01*
X19680Y58226D01*
X19683Y58230D01*
X19694Y58241D01*
X19698Y58248D01*
X19705Y58267D01*
X19713Y58285D01*
X19717Y58322D01*
Y58337D01*
X19713Y58344D01*
Y58352D01*
Y58356D01*
X19709Y58370D01*
X19705Y58374D01*
Y58378D01*
X19702Y58393D01*
X19698Y58396D01*
Y58400D01*
Y58404D01*
X18635Y60241D01*
X18620Y60263D01*
X18606Y60278D01*
X18594Y60289D01*
X18591Y60292D01*
X18583D01*
X18580Y60296D01*
Y60300D01*
X18550Y60315D01*
X18524Y60318D01*
X18506Y60322D01*
D02*
G37*
%LPD*%
G36*
X18602Y60103D02*
X18946Y58915D01*
X18409Y59178D01*
X18576Y58544D01*
X18691Y58633D01*
X18635Y58278D01*
X18380Y58574D01*
X18535Y58537D01*
X18109Y59418D01*
X18806Y59059D01*
X18350Y60111D01*
X18602Y60103D01*
D02*
G37*
D61*
X110991Y53592D02*
X111161Y53762D01*
X111501D01*
X111671Y53592D01*
Y52913D01*
X111501Y52743D01*
X111161D01*
X110991Y52913D01*
X109971Y52743D02*
X110651D01*
X109971Y53422D01*
Y53592D01*
X110141Y53762D01*
X110481D01*
X110651Y53592D01*
X109631D02*
X109461Y53762D01*
X109121D01*
X108951Y53592D01*
Y52913D01*
X109121Y52743D01*
X109461D01*
X109631Y52913D01*
Y53592D01*
X110991Y55345D02*
X111161Y55515D01*
X111501D01*
X111671Y55345D01*
Y54665D01*
X111501Y54495D01*
X111161D01*
X110991Y54665D01*
X110651Y54495D02*
X110311D01*
X110481D01*
Y55515D01*
X110651Y55345D01*
X109801Y54665D02*
X109631Y54495D01*
X109291D01*
X109121Y54665D01*
Y55345D01*
X109291Y55515D01*
X109631D01*
X109801Y55345D01*
Y55175D01*
X109631Y55005D01*
X109121D01*
X111405Y47999D02*
X111235Y48169D01*
Y48509D01*
X111405Y48679D01*
X112085D01*
X112255Y48509D01*
Y48169D01*
X112085Y47999D01*
X112255Y47659D02*
Y47319D01*
Y47489D01*
X111235D01*
X111405Y47659D01*
Y46809D02*
X111235Y46639D01*
Y46299D01*
X111405Y46129D01*
X111575D01*
X111745Y46299D01*
X111915Y46129D01*
X112085D01*
X112255Y46299D01*
Y46639D01*
X112085Y46809D01*
X111915D01*
X111745Y46639D01*
X111575Y46809D01*
X111405D01*
X111745Y46639D02*
Y46299D01*
X109678Y47999D02*
X109508Y48169D01*
Y48509D01*
X109678Y48679D01*
X110358D01*
X110528Y48509D01*
Y48169D01*
X110358Y47999D01*
X110528Y47659D02*
Y47319D01*
Y47489D01*
X109508D01*
X109678Y47659D01*
X109508Y46809D02*
Y46129D01*
X109678D01*
X110358Y46809D01*
X110528D01*
X115926Y55212D02*
X115756Y55382D01*
Y55722D01*
X115926Y55892D01*
X116606D01*
X116776Y55722D01*
Y55382D01*
X116606Y55212D01*
X116776Y54873D02*
Y54533D01*
Y54703D01*
X115756D01*
X115926Y54873D01*
X115756Y53343D02*
X115926Y53683D01*
X116266Y54023D01*
X116606D01*
X116776Y53853D01*
Y53513D01*
X116606Y53343D01*
X116436D01*
X116266Y53513D01*
Y54023D01*
X117679Y55212D02*
X117509Y55382D01*
Y55722D01*
X117679Y55892D01*
X118359D01*
X118529Y55722D01*
Y55382D01*
X118359Y55212D01*
X118529Y54873D02*
Y54533D01*
Y54703D01*
X117509D01*
X117679Y54873D01*
X117509Y53343D02*
Y54023D01*
X118019D01*
X117849Y53683D01*
Y53513D01*
X118019Y53343D01*
X118359D01*
X118529Y53513D01*
Y53853D01*
X118359Y54023D01*
X118204Y49097D02*
X118374Y49266D01*
X118714D01*
X118884Y49097D01*
Y48417D01*
X118714Y48247D01*
X118374D01*
X118204Y48417D01*
X117865Y48247D02*
X117525D01*
X117695D01*
Y49266D01*
X117865Y49097D01*
X116505Y48247D02*
Y49266D01*
X117015Y48757D01*
X116335D01*
X118204Y47344D02*
X118374Y47514D01*
X118714D01*
X118884Y47344D01*
Y46664D01*
X118714Y46494D01*
X118374D01*
X118204Y46664D01*
X117865Y46494D02*
X117525D01*
X117695D01*
Y47514D01*
X117865Y47344D01*
X117015D02*
X116845Y47514D01*
X116505D01*
X116335Y47344D01*
Y47174D01*
X116505Y47004D01*
X116675D01*
X116505D01*
X116335Y46834D01*
Y46664D01*
X116505Y46494D01*
X116845D01*
X117015Y46664D01*
%TF.MD5,540a73a359e112ec0c3fac9e19d327d4*%
M02*
