%TF.GenerationSoftware,Altium Limited,Altium Designer,22.7.1 (60)*%
G04 Layer_Color=255*
%FSLAX43Y43*%
%MOMM*%
%TF.SameCoordinates,FE58890B-FB48-4B87-A9EE-914DEB8A6D29*%
%TF.FilePolarity,Positive*%
%TF.FileFunction,Pads,Bot*%
%TF.Part,Single*%
G01*
G75*
%TA.AperFunction,SMDPad,CuDef*%
%ADD16R,1.300X0.900*%
%ADD17R,0.900X1.300*%
%TA.AperFunction,ComponentPad*%
%ADD40R,1.700X1.700*%
%ADD41C,1.700*%
%ADD42C,1.500*%
%ADD43R,1.408X1.408*%
%ADD44C,1.408*%
%ADD45C,3.250*%
%ADD46C,2.400*%
%ADD47C,1.508*%
%ADD48C,1.400*%
%ADD49C,1.600*%
G04:AMPARAMS|DCode=50|XSize=1.6mm|YSize=1.6mm|CornerRadius=0.4mm|HoleSize=0mm|Usage=FLASHONLY|Rotation=90.000|XOffset=0mm|YOffset=0mm|HoleType=Round|Shape=RoundedRectangle|*
%AMROUNDEDRECTD50*
21,1,1.600,0.800,0,0,90.0*
21,1,0.800,1.600,0,0,90.0*
1,1,0.800,0.400,0.400*
1,1,0.800,0.400,-0.400*
1,1,0.800,-0.400,-0.400*
1,1,0.800,-0.400,0.400*
%
%ADD50ROUNDEDRECTD50*%
G04:AMPARAMS|DCode=51|XSize=1.6mm|YSize=1.6mm|CornerRadius=0.4mm|HoleSize=0mm|Usage=FLASHONLY|Rotation=0.000|XOffset=0mm|YOffset=0mm|HoleType=Round|Shape=RoundedRectangle|*
%AMROUNDEDRECTD51*
21,1,1.600,0.800,0,0,0.0*
21,1,0.800,1.600,0,0,0.0*
1,1,0.800,0.400,-0.400*
1,1,0.800,-0.400,-0.400*
1,1,0.800,-0.400,0.400*
1,1,0.800,0.400,0.400*
%
%ADD51ROUNDEDRECTD51*%
%ADD52C,2.000*%
%ADD53C,1.950*%
G04:AMPARAMS|DCode=54|XSize=1.95mm|YSize=1.95mm|CornerRadius=0.488mm|HoleSize=0mm|Usage=FLASHONLY|Rotation=180.000|XOffset=0mm|YOffset=0mm|HoleType=Round|Shape=RoundedRectangle|*
%AMROUNDEDRECTD54*
21,1,1.950,0.975,0,0,180.0*
21,1,0.975,1.950,0,0,180.0*
1,1,0.975,-0.488,0.488*
1,1,0.975,0.488,0.488*
1,1,0.975,0.488,-0.488*
1,1,0.975,-0.488,-0.488*
%
%ADD54ROUNDEDRECTD54*%
%TA.AperFunction,ViaPad*%
%ADD55C,3.200*%
%TA.AperFunction,ComponentPad*%
%ADD56R,1.110X1.110*%
%ADD57C,1.110*%
%ADD58C,1.300*%
G04:AMPARAMS|DCode=59|XSize=1.3mm|YSize=1.3mm|CornerRadius=0.325mm|HoleSize=0mm|Usage=FLASHONLY|Rotation=180.000|XOffset=0mm|YOffset=0mm|HoleType=Round|Shape=RoundedRectangle|*
%AMROUNDEDRECTD59*
21,1,1.300,0.650,0,0,180.0*
21,1,0.650,1.300,0,0,180.0*
1,1,0.650,-0.325,0.325*
1,1,0.650,0.325,0.325*
1,1,0.650,0.325,-0.325*
1,1,0.650,-0.325,-0.325*
%
%ADD59ROUNDEDRECTD59*%
D16*
X116257Y50050D02*
D03*
Y51950D02*
D03*
X111757Y50050D02*
D03*
Y51950D02*
D03*
X118007Y51950D02*
D03*
Y50050D02*
D03*
X110007Y51950D02*
D03*
Y50050D02*
D03*
D17*
X114957Y48750D02*
D03*
X113057D02*
D03*
X113050Y47000D02*
D03*
X114950D02*
D03*
X113057Y53250D02*
D03*
X114957D02*
D03*
X113057Y55000D02*
D03*
X114957D02*
D03*
D40*
X87250Y67500D02*
D03*
D41*
X91000D02*
D03*
X94750D02*
D03*
D42*
Y88500D02*
D03*
X87250Y85000D02*
D03*
D43*
X131650Y47555D02*
D03*
D44*
X129110Y48825D02*
D03*
X131650Y50095D02*
D03*
X129110Y51365D02*
D03*
X131650Y52635D02*
D03*
X129110Y53905D02*
D03*
X131650Y55175D02*
D03*
X129110Y56445D02*
D03*
D45*
X138000Y46285D02*
D03*
Y57715D02*
D03*
D46*
X134950Y59815D02*
D03*
Y44185D02*
D03*
D47*
X142060Y45370D02*
D03*
Y58630D02*
D03*
Y47910D02*
D03*
Y56090D02*
D03*
D48*
X72094Y24703D02*
D03*
X48894D02*
D03*
D49*
X123000Y9230D02*
D03*
Y11770D02*
D03*
Y14310D02*
D03*
X56540Y38000D02*
D03*
X50520Y32000D02*
D03*
X42000Y8730D02*
D03*
Y11270D02*
D03*
Y13810D02*
D03*
X115230Y14000D02*
D03*
X76270Y34000D02*
D03*
X71190D02*
D03*
X73730D02*
D03*
X78810D02*
D03*
X81350D02*
D03*
X29000Y8730D02*
D03*
Y11270D02*
D03*
Y13810D02*
D03*
X92230Y7000D02*
D03*
X81770D02*
D03*
X79230D02*
D03*
X76690D02*
D03*
D50*
X123000Y6690D02*
D03*
X42000Y6190D02*
D03*
X29000D02*
D03*
D51*
X54000Y38000D02*
D03*
X47980Y32000D02*
D03*
X117770Y14000D02*
D03*
X68650Y34000D02*
D03*
X94770Y7000D02*
D03*
X84310D02*
D03*
D52*
X25000Y27500D02*
D03*
X21000D02*
D03*
D53*
X106230Y74680D02*
D03*
X111230Y82300D02*
D03*
Y74680D02*
D03*
X106230Y82300D02*
D03*
X101230D02*
D03*
Y74680D02*
D03*
X23230Y73300D02*
D03*
Y65680D02*
D03*
D54*
X116230Y82300D02*
D03*
Y74680D02*
D03*
X28230Y73300D02*
D03*
Y65680D02*
D03*
D55*
X130000Y87000D02*
D03*
X20000D02*
D03*
X130000Y8000D02*
D03*
X20000D02*
D03*
D56*
X23000Y53670D02*
D03*
D57*
Y57570D02*
D03*
X43760Y58860D02*
D03*
Y48700D02*
D03*
Y37270D02*
D03*
D58*
X38000Y22500D02*
D03*
X36000D02*
D03*
X34000D02*
D03*
D59*
X32000D02*
D03*
%TF.MD5,5a3844c87d4f0f11242ab1991522e39b*%
M02*
